<svg xmlns="http://www.w3.org/2000/svg" width="100" height="74" viewBox="0 0 100 74">
  <g id="Group_86" data-name="Group 86" transform="translate(-1747 -665)">
    <circle id="Ellipse_80" data-name="Ellipse 80" cx="6" cy="6" r="6" transform="translate(1747 665)" fill="#b6dafd"/>
    <ellipse id="Ellipse_80-2" data-name="Ellipse 80" cx="5.5" cy="6" rx="5.5" ry="6" transform="translate(1762 665)" fill="#b6dafd"/>
    <circle id="Ellipse_80-3" data-name="Ellipse 80" cx="6" cy="6" r="6" transform="translate(1776 665)" fill="#b6dafd"/>
    <circle id="Ellipse_80-4" data-name="Ellipse 80" cx="6" cy="6" r="6" transform="translate(1791 665)" fill="#b6dafd"/>
    <circle id="Ellipse_80-5" data-name="Ellipse 80" cx="6" cy="6" r="6" transform="translate(1806 665)" fill="#b6dafd"/>
    <ellipse id="Ellipse_80-6" data-name="Ellipse 80" cx="5.5" cy="6" rx="5.5" ry="6" transform="translate(1821 665)" fill="#b6dafd"/>
    <circle id="Ellipse_80-7" data-name="Ellipse 80" cx="6" cy="6" r="6" transform="translate(1835 665)" fill="#b6dafd"/>
    <ellipse id="Ellipse_80-8" data-name="Ellipse 80" cx="6" cy="5.5" rx="6" ry="5.5" transform="translate(1747 681)" fill="#b6dafd"/>
    <circle id="Ellipse_80-9" data-name="Ellipse 80" cx="5.5" cy="5.5" r="5.5" transform="translate(1762 681)" fill="#b6dafd"/>
    <ellipse id="Ellipse_80-10" data-name="Ellipse 80" cx="6" cy="5.5" rx="6" ry="5.5" transform="translate(1776 681)" fill="#b6dafd"/>
    <ellipse id="Ellipse_80-11" data-name="Ellipse 80" cx="6" cy="5.5" rx="6" ry="5.5" transform="translate(1791 681)" fill="#b6dafd"/>
    <ellipse id="Ellipse_80-12" data-name="Ellipse 80" cx="6" cy="5.5" rx="6" ry="5.5" transform="translate(1806 681)" fill="#b6dafd"/>
    <circle id="Ellipse_80-13" data-name="Ellipse 80" cx="5.5" cy="5.5" r="5.5" transform="translate(1821 681)" fill="#b6dafd"/>
    <ellipse id="Ellipse_80-14" data-name="Ellipse 80" cx="6" cy="5.5" rx="6" ry="5.5" transform="translate(1835 681)" fill="#b6dafd"/>
    <circle id="Ellipse_80-15" data-name="Ellipse 80" cx="6" cy="6" r="6" transform="translate(1747 696)" fill="#b6dafd"/>
    <ellipse id="Ellipse_80-16" data-name="Ellipse 80" cx="5.5" cy="6" rx="5.5" ry="6" transform="translate(1762 696)" fill="#b6dafd"/>
    <circle id="Ellipse_80-17" data-name="Ellipse 80" cx="6" cy="6" r="6" transform="translate(1776 696)" fill="#b6dafd"/>
    <circle id="Ellipse_80-18" data-name="Ellipse 80" cx="6" cy="6" r="6" transform="translate(1791 696)" fill="#b6dafd"/>
    <circle id="Ellipse_80-19" data-name="Ellipse 80" cx="6" cy="6" r="6" transform="translate(1806 696)" fill="#b6dafd"/>
    <ellipse id="Ellipse_80-20" data-name="Ellipse 80" cx="5.5" cy="6" rx="5.5" ry="6" transform="translate(1821 696)" fill="#b6dafd"/>
    <circle id="Ellipse_80-21" data-name="Ellipse 80" cx="6" cy="6" r="6" transform="translate(1835 696)" fill="#b6dafd"/>
    <ellipse id="Ellipse_80-22" data-name="Ellipse 80" cx="6" cy="5.5" rx="6" ry="5.5" transform="translate(1747 712)" fill="#b6dafd"/>
    <circle id="Ellipse_80-23" data-name="Ellipse 80" cx="5.5" cy="5.5" r="5.5" transform="translate(1762 712)" fill="#b6dafd"/>
    <ellipse id="Ellipse_80-24" data-name="Ellipse 80" cx="6" cy="5.5" rx="6" ry="5.5" transform="translate(1776 712)" fill="#b6dafd"/>
    <ellipse id="Ellipse_80-25" data-name="Ellipse 80" cx="6" cy="5.5" rx="6" ry="5.5" transform="translate(1791 712)" fill="#b6dafd"/>
    <ellipse id="Ellipse_80-26" data-name="Ellipse 80" cx="6" cy="5.5" rx="6" ry="5.5" transform="translate(1806 712)" fill="#b6dafd"/>
    <circle id="Ellipse_80-27" data-name="Ellipse 80" cx="5.5" cy="5.5" r="5.5" transform="translate(1821 712)" fill="#b6dafd"/>
    <ellipse id="Ellipse_80-28" data-name="Ellipse 80" cx="6" cy="5.5" rx="6" ry="5.5" transform="translate(1835 712)" fill="#b6dafd"/>
    <circle id="Ellipse_80-29" data-name="Ellipse 80" cx="6" cy="6" r="6" transform="translate(1747 727)" fill="#b6dafd"/>
    <ellipse id="Ellipse_80-30" data-name="Ellipse 80" cx="5.5" cy="6" rx="5.5" ry="6" transform="translate(1762 727)" fill="#b6dafd"/>
    <circle id="Ellipse_80-31" data-name="Ellipse 80" cx="6" cy="6" r="6" transform="translate(1776 727)" fill="#b6dafd"/>
    <circle id="Ellipse_80-32" data-name="Ellipse 80" cx="6" cy="6" r="6" transform="translate(1791 727)" fill="#b6dafd"/>
    <circle id="Ellipse_80-33" data-name="Ellipse 80" cx="6" cy="6" r="6" transform="translate(1806 727)" fill="#b6dafd"/>
    <ellipse id="Ellipse_80-34" data-name="Ellipse 80" cx="5.5" cy="6" rx="5.5" ry="6" transform="translate(1821 727)" fill="#b6dafd"/>
    <circle id="Ellipse_80-35" data-name="Ellipse 80" cx="6" cy="6" r="6" transform="translate(1835 727)" fill="#b6dafd"/>
  </g>
</svg>
