<svg xmlns="http://www.w3.org/2000/svg" width="180" height="244" viewBox="0 0 180 244">
  <g id="Group_226" data-name="Group 226" transform="translate(41 -4080)">
    <g id="Group_87" data-name="Group 87" transform="translate(-1788 3415)">
      <circle id="Ellipse_80" data-name="Ellipse 80" cx="11" cy="11" r="11" transform="translate(1747 665)" fill="#f79f8e"/>
      <ellipse id="Ellipse_80-2" data-name="Ellipse 80" cx="10" cy="11" rx="10" ry="11" transform="translate(1774 665)" fill="#f79f8e"/>
      <circle id="Ellipse_80-3" data-name="Ellipse 80" cx="11" cy="11" r="11" transform="translate(1799 665)" fill="#f79f8e"/>
      <circle id="Ellipse_80-4" data-name="Ellipse 80" cx="11" cy="11" r="11" transform="translate(1826 665)" fill="#f79f8e"/>
      <circle id="Ellipse_80-5" data-name="Ellipse 80" cx="11" cy="11" r="11" transform="translate(1853 665)" fill="#f79f8e"/>
      <ellipse id="Ellipse_80-6" data-name="Ellipse 80" cx="10" cy="11" rx="10" ry="11" transform="translate(1880 665)" fill="#f79f8e"/>
      <circle id="Ellipse_80-7" data-name="Ellipse 80" cx="11" cy="11" r="11" transform="translate(1905 665)" fill="#f79f8e"/>
      <ellipse id="Ellipse_80-8" data-name="Ellipse 80" cx="11" cy="10" rx="11" ry="10" transform="translate(1747 694)" fill="#f79f8e"/>
      <circle id="Ellipse_80-9" data-name="Ellipse 80" cx="10" cy="10" r="10" transform="translate(1774 694)" fill="#f79f8e"/>
      <ellipse id="Ellipse_80-10" data-name="Ellipse 80" cx="11" cy="10" rx="11" ry="10" transform="translate(1799 694)" fill="#f79f8e"/>
      <ellipse id="Ellipse_80-11" data-name="Ellipse 80" cx="11" cy="10" rx="11" ry="10" transform="translate(1826 694)" fill="#f79f8e"/>
      <ellipse id="Ellipse_80-12" data-name="Ellipse 80" cx="11" cy="10" rx="11" ry="10" transform="translate(1853 694)" fill="#f79f8e"/>
      <circle id="Ellipse_80-13" data-name="Ellipse 80" cx="10" cy="10" r="10" transform="translate(1880 694)" fill="#f79f8e"/>
      <ellipse id="Ellipse_80-14" data-name="Ellipse 80" cx="11" cy="10" rx="11" ry="10" transform="translate(1905 694)" fill="#f79f8e"/>
      <ellipse id="Ellipse_80-15" data-name="Ellipse 80" cx="11" cy="10.5" rx="11" ry="10.5" transform="translate(1747 721)" fill="#f79f8e"/>
      <ellipse id="Ellipse_80-16" data-name="Ellipse 80" cx="10" cy="10.5" rx="10" ry="10.5" transform="translate(1774 721)" fill="#f79f8e"/>
      <ellipse id="Ellipse_80-17" data-name="Ellipse 80" cx="11" cy="10.5" rx="11" ry="10.5" transform="translate(1799 721)" fill="#f79f8e"/>
      <ellipse id="Ellipse_80-18" data-name="Ellipse 80" cx="11" cy="10.5" rx="11" ry="10.5" transform="translate(1826 721)" fill="#f79f8e"/>
      <ellipse id="Ellipse_80-19" data-name="Ellipse 80" cx="11" cy="10.5" rx="11" ry="10.5" transform="translate(1853 721)" fill="#f79f8e"/>
      <ellipse id="Ellipse_80-20" data-name="Ellipse 80" cx="10" cy="10.5" rx="10" ry="10.5" transform="translate(1880 721)" fill="#f79f8e"/>
      <ellipse id="Ellipse_80-21" data-name="Ellipse 80" cx="11" cy="10.5" rx="11" ry="10.5" transform="translate(1905 721)" fill="#f79f8e"/>
      <ellipse id="Ellipse_80-22" data-name="Ellipse 80" cx="11" cy="10" rx="11" ry="10" transform="translate(1747 749)" fill="#f79f8e"/>
      <circle id="Ellipse_80-23" data-name="Ellipse 80" cx="10" cy="10" r="10" transform="translate(1774 749)" fill="#f79f8e"/>
      <ellipse id="Ellipse_80-24" data-name="Ellipse 80" cx="11" cy="10" rx="11" ry="10" transform="translate(1799 749)" fill="#f79f8e"/>
      <ellipse id="Ellipse_80-25" data-name="Ellipse 80" cx="11" cy="10" rx="11" ry="10" transform="translate(1826 749)" fill="#f79f8e"/>
      <ellipse id="Ellipse_80-26" data-name="Ellipse 80" cx="11" cy="10" rx="11" ry="10" transform="translate(1853 749)" fill="#f79f8e"/>
      <circle id="Ellipse_80-27" data-name="Ellipse 80" cx="10" cy="10" r="10" transform="translate(1880 749)" fill="#f79f8e"/>
      <ellipse id="Ellipse_80-28" data-name="Ellipse 80" cx="11" cy="10" rx="11" ry="10" transform="translate(1905 749)" fill="#f79f8e"/>
      <circle id="Ellipse_80-29" data-name="Ellipse 80" cx="11" cy="11" r="11" transform="translate(1747 776)" fill="#f79f8e"/>
      <ellipse id="Ellipse_80-30" data-name="Ellipse 80" cx="10" cy="11" rx="10" ry="11" transform="translate(1774 776)" fill="#f79f8e"/>
      <circle id="Ellipse_80-31" data-name="Ellipse 80" cx="11" cy="11" r="11" transform="translate(1799 776)" fill="#f79f8e"/>
      <circle id="Ellipse_80-32" data-name="Ellipse 80" cx="11" cy="11" r="11" transform="translate(1826 776)" fill="#f79f8e"/>
      <circle id="Ellipse_80-33" data-name="Ellipse 80" cx="11" cy="11" r="11" transform="translate(1853 776)" fill="#f79f8e"/>
      <ellipse id="Ellipse_80-34" data-name="Ellipse 80" cx="10" cy="11" rx="10" ry="11" transform="translate(1880 776)" fill="#f79f8e"/>
      <circle id="Ellipse_80-35" data-name="Ellipse 80" cx="11" cy="11" r="11" transform="translate(1905 776)" fill="#f79f8e"/>
    </g>
    <g id="Group_89" data-name="Group 89" transform="translate(-1788 3526)">
      <circle id="Ellipse_80-36" data-name="Ellipse 80" cx="11" cy="11" r="11" transform="translate(1747 665)" fill="#f79f8e"/>
      <ellipse id="Ellipse_80-37" data-name="Ellipse 80" cx="10" cy="11" rx="10" ry="11" transform="translate(1774 665)" fill="#f79f8e"/>
      <circle id="Ellipse_80-38" data-name="Ellipse 80" cx="11" cy="11" r="11" transform="translate(1799 665)" fill="#f79f8e"/>
      <circle id="Ellipse_80-39" data-name="Ellipse 80" cx="11" cy="11" r="11" transform="translate(1826 665)" fill="#f79f8e"/>
      <circle id="Ellipse_80-40" data-name="Ellipse 80" cx="11" cy="11" r="11" transform="translate(1853 665)" fill="#f79f8e"/>
      <ellipse id="Ellipse_80-41" data-name="Ellipse 80" cx="10" cy="11" rx="10" ry="11" transform="translate(1880 665)" fill="#f79f8e"/>
      <circle id="Ellipse_80-42" data-name="Ellipse 80" cx="11" cy="11" r="11" transform="translate(1905 665)" fill="#f79f8e"/>
      <ellipse id="Ellipse_80-43" data-name="Ellipse 80" cx="11" cy="10" rx="11" ry="10" transform="translate(1747 694)" fill="#f79f8e"/>
      <circle id="Ellipse_80-44" data-name="Ellipse 80" cx="10" cy="10" r="10" transform="translate(1774 694)" fill="#f79f8e"/>
      <ellipse id="Ellipse_80-45" data-name="Ellipse 80" cx="11" cy="10" rx="11" ry="10" transform="translate(1799 694)" fill="#f79f8e"/>
      <ellipse id="Ellipse_80-46" data-name="Ellipse 80" cx="11" cy="10" rx="11" ry="10" transform="translate(1826 694)" fill="#f79f8e"/>
      <ellipse id="Ellipse_80-47" data-name="Ellipse 80" cx="11" cy="10" rx="11" ry="10" transform="translate(1853 694)" fill="#f79f8e"/>
      <circle id="Ellipse_80-48" data-name="Ellipse 80" cx="10" cy="10" r="10" transform="translate(1880 694)" fill="#f79f8e"/>
      <ellipse id="Ellipse_80-49" data-name="Ellipse 80" cx="11" cy="10" rx="11" ry="10" transform="translate(1905 694)" fill="#f79f8e"/>
      <ellipse id="Ellipse_80-50" data-name="Ellipse 80" cx="11" cy="10.5" rx="11" ry="10.5" transform="translate(1747 721)" fill="#f79f8e"/>
      <ellipse id="Ellipse_80-51" data-name="Ellipse 80" cx="10" cy="10.5" rx="10" ry="10.5" transform="translate(1774 721)" fill="#f79f8e"/>
      <ellipse id="Ellipse_80-52" data-name="Ellipse 80" cx="11" cy="10.5" rx="11" ry="10.5" transform="translate(1799 721)" fill="#f79f8e"/>
      <ellipse id="Ellipse_80-53" data-name="Ellipse 80" cx="11" cy="10.5" rx="11" ry="10.5" transform="translate(1826 721)" fill="#f79f8e"/>
      <ellipse id="Ellipse_80-54" data-name="Ellipse 80" cx="11" cy="10.5" rx="11" ry="10.5" transform="translate(1853 721)" fill="#f79f8e"/>
      <ellipse id="Ellipse_80-55" data-name="Ellipse 80" cx="10" cy="10.5" rx="10" ry="10.5" transform="translate(1880 721)" fill="#f79f8e"/>
      <ellipse id="Ellipse_80-56" data-name="Ellipse 80" cx="11" cy="10.5" rx="11" ry="10.5" transform="translate(1905 721)" fill="#f79f8e"/>
      <ellipse id="Ellipse_80-57" data-name="Ellipse 80" cx="11" cy="10" rx="11" ry="10" transform="translate(1747 749)" fill="#f79f8e"/>
      <circle id="Ellipse_80-58" data-name="Ellipse 80" cx="10" cy="10" r="10" transform="translate(1774 749)" fill="#f79f8e"/>
      <ellipse id="Ellipse_80-59" data-name="Ellipse 80" cx="11" cy="10" rx="11" ry="10" transform="translate(1799 749)" fill="#f79f8e"/>
      <ellipse id="Ellipse_80-60" data-name="Ellipse 80" cx="11" cy="10" rx="11" ry="10" transform="translate(1826 749)" fill="#f79f8e"/>
      <ellipse id="Ellipse_80-61" data-name="Ellipse 80" cx="11" cy="10" rx="11" ry="10" transform="translate(1853 749)" fill="#f79f8e"/>
      <circle id="Ellipse_80-62" data-name="Ellipse 80" cx="10" cy="10" r="10" transform="translate(1880 749)" fill="#f79f8e"/>
      <ellipse id="Ellipse_80-63" data-name="Ellipse 80" cx="11" cy="10" rx="11" ry="10" transform="translate(1905 749)" fill="#f79f8e"/>
      <circle id="Ellipse_80-64" data-name="Ellipse 80" cx="11" cy="11" r="11" transform="translate(1747 776)" fill="#f79f8e"/>
      <ellipse id="Ellipse_80-65" data-name="Ellipse 80" cx="10" cy="11" rx="10" ry="11" transform="translate(1774 776)" fill="#f79f8e"/>
      <circle id="Ellipse_80-66" data-name="Ellipse 80" cx="11" cy="11" r="11" transform="translate(1799 776)" fill="#f79f8e"/>
      <circle id="Ellipse_80-67" data-name="Ellipse 80" cx="11" cy="11" r="11" transform="translate(1826 776)" fill="#f79f8e"/>
      <circle id="Ellipse_80-68" data-name="Ellipse 80" cx="11" cy="11" r="11" transform="translate(1853 776)" fill="#f79f8e"/>
      <ellipse id="Ellipse_80-69" data-name="Ellipse 80" cx="10" cy="11" rx="10" ry="11" transform="translate(1880 776)" fill="#f79f8e"/>
      <circle id="Ellipse_80-70" data-name="Ellipse 80" cx="11" cy="11" r="11" transform="translate(1905 776)" fill="#f79f8e"/>
    </g>
  </g>
</svg>
