<svg xmlns="http://www.w3.org/2000/svg" xmlns:xlink="http://www.w3.org/1999/xlink" width="1029.874" height="809.109" viewBox="0 0 1029.874 809.109">
  <defs>
    <linearGradient id="linear-gradient" x1="0.392" y1="0.649" x2="1.101" y2="-0.347" gradientUnits="objectBoundingBox">
      <stop offset="0" stop-color="#e8f4fd"/>
      <stop offset="0.573" stop-color="#4badfe"/>
      <stop offset="1" stop-color="#1a4fe1"/>
    </linearGradient>
  </defs>
  <g id="Group_224" data-name="Group 224" transform="translate(-817.126 -194.041)">
    <g id="Group_223" data-name="Group 223">
      <g id="Rectangle_104" data-name="Rectangle 104" transform="translate(890.992 747.126) rotate(47)" fill="none" stroke="#60a5f7" stroke-width="5">
        <rect width="101" height="101" stroke="none"/>
        <rect x="2.5" y="2.5" width="96" height="96" fill="none"/>
      </g>
      <g id="Group_222" data-name="Group 222">
        <path id="Path_422" data-name="Path 422" d="M10466.023-743.285s362.308-16.577,357.575,345.733-341,385.99-395.46,322.053-35.517-165.763-125.5-184.707-310.206,2.369-267.588-170.5,206.021-300.741,381.251-312.581S10644.871-629,10644.871-629L10626.2-430.7,10562.453-589Z" transform="translate(-9083.832 938.111)" fill="url(#linear-gradient)"/>
        <g id="Group_19" data-name="Group 19" transform="translate(959 228.712)">
          <path id="Path_271" data-name="Path 271" d="M367.648,637.81,87.042,636.441l-27.882-65.4,98.591-7.157-17.183-71.7,195-25.275L148.839,402l16.495-3.919,300.257,48.984-16.536,111.9L425.42,620.454Z" transform="translate(-10.66 -71.727)" fill="#6c63ff"/>
          <path id="Path_272" data-name="Path 272" d="M187,698.781s17.216-2.755,27.546,9.411c0,0-7.575,5.968-23.873-2.3Z" transform="translate(-106.314 -161.457)" fill="#6c63ff"/>
          <path id="Path_273" data-name="Path 273" d="M183.245,698.51s-10.985,13.519-5.575,28.57c0,0,8.952-3.583,9.928-21.832Z" transform="translate(-104.363 -161.457)" fill="#6c63ff"/>
          <path id="Path_274" data-name="Path 274" d="M172.76,670.439s6.886-12.633,34.432,5.05c0,0-3.673,8.493-15.839,7.8S175.974,677.1,172.76,670.439Z" transform="translate(-103.748 -155.611)" fill="#6c63ff"/>
          <path id="Path_275" data-name="Path 275" d="M167.145,670.287s-14.289-1.64-15.675,31.071c0,0,9.059,1.877,15.494-8.469S170.76,676.739,167.145,670.287Z" transform="translate(-99.912 -156.369)" fill="#6c63ff"/>
          <g id="Group_23" data-name="Group 23">
            <path id="Path_276" data-name="Path 276" d="M160.44,635.8s8.034-22.266,37.187-6.427c0,0-6.657,20.43-34.2,14Z" transform="translate(-101.528 -147.974)" fill="#c1dffb"/>
            <path id="Path_277" data-name="Path 277" d="M149.52,595.552s15.15-22.5,42.007-1.64c0,0-9.411,21.118-39.712,9.641Z" transform="translate(-99.561 -141.013)" fill="#c1dffb"/>
            <path id="Path_278" data-name="Path 278" d="M145.6,557.2s17.675-20.667,44.27,0c0,0-16.757,18.134-44.27,5.28Z" transform="translate(-98.854 -134.34)" fill="#c1dffb"/>
            <path id="Path_279" data-name="Path 279" d="M142.24,519.505s17.9-21.578,43.385-1.148c0,0-20.2,19.052-43.385,6.2Z" transform="translate(-98.248 -127.412)" fill="#c1dffb"/>
            <path id="Path_280" data-name="Path 280" d="M144.2,484.964s18.856-27.775,42.7-8.952c0,0-20.2,23.873-42.7,14.232Z" transform="translate(-98.602 -120.187)" fill="#c1dffb"/>
            <path id="Path_281" data-name="Path 281" d="M149.52,446.286s19.971-27.546,43.155-6.427c0,0-23.643,23.873-43.155,11.477Z" transform="translate(-99.561 -113.416)" fill="#c1dffb"/>
            <path id="Path_282" data-name="Path 282" d="M157.413,410.7s23.643-25.89,44.27-15.576c0,0-24.635,27.5-45.3,22.447Z" transform="translate(-100.797 -106.354)" fill="#c1dffb"/>
            <path id="Path_283" data-name="Path 283" d="M167.295,376.563s27.283-31.71,43.155-21.118c0,0-20.1,24.594-45.09,27.054Z" transform="translate(-102.414 -99.251)" fill="#c1dffb"/>
            <path id="Path_284" data-name="Path 284" d="M181.565,338.927s23.881-25.89,41.327-19.462c0,0-20.43,26.857-44.532,27.546Z" transform="translate(-104.757 -92.973)" fill="#c1dffb"/>
            <path id="Path_285" data-name="Path 285" d="M195.188,303.047s26.4-24.791,37.875-20.43c0,0-19.052,27.546-39.023,25.939Z" transform="translate(-107.582 -86.426)" fill="#c1dffb"/>
            <path id="Path_286" data-name="Path 286" d="M208.32,268.576s22.725-29.62,35.129-27.324c0,0-13.781,26.406-35.129,30.333Z" transform="translate(-110.155 -79.042)" fill="#c1dffb"/>
            <path id="Path_287" data-name="Path 287" d="M222.118,225.081s20.085-22.7,30.94-22.651c0,0-15.855,30.333-31.768,30.054Z" transform="translate(-112.492 -72.07)" fill="#c1dffb"/>
            <path id="Path_288" data-name="Path 288" d="M230.038,190.007l19.4-47.287s.967,42.745-21.873,56.059Z" transform="translate(-113.624 -61.311)" fill="#c1dffb"/>
            <path id="Path_289" data-name="Path 289" d="M240.161,127.4s3.214-39.49,1.148-42.7c0,0,13.871,32.834-1.279,60.15Z" transform="translate(-115.869 -50.857)" fill="#c1dffb"/>
            <path id="Path_290" data-name="Path 290" d="M152.235,637.265S132.117,624.8,119.09,655.3c0,0,17.9,11.887,35.514-10.256Z" transform="translate(-94.077 -149.967)" fill="#c1dffb"/>
            <path id="Path_291" data-name="Path 291" d="M140.676,595.886S116,584.63,104.03,616.479c0,0,19.061,13.117,38.892-12.543Z" transform="translate(-91.363 -142.617)" fill="#c1dffb"/>
            <path id="Path_292" data-name="Path 292" d="M134.47,559.511s-17.675-20.668-44.27,0c0,0,16.757,18.134,44.27,5.28Z" transform="translate(-88.872 -134.756)" fill="#c1dffb"/>
            <path id="Path_293" data-name="Path 293" d="M131.965,519.505s-17.9-21.578-43.385-1.148c0,0,20.2,19.052,43.385,6.2Z" transform="translate(-88.58 -127.412)" fill="#c1dffb"/>
            <path id="Path_294" data-name="Path 294" d="M135.439,484.7s-12.56-31.112-39.859-17.733c0,0,14.757,27.587,38.744,22.9Z" transform="translate(-89.841 -119.133)" fill="#c1dffb"/>
            <path id="Path_295" data-name="Path 295" d="M142.621,444.675S130.135,413.022,102.45,427.7c0,0,16.954,29.013,38.941,21.864Z" transform="translate(-91.079 -111.96)" fill="#c1dffb"/>
            <path id="Path_296" data-name="Path 296" d="M154.764,406.54s-4.919-34.7-27.874-37.81c0,0,4.87,36.6,24.783,44.065Z" transform="translate(-95.482 -102.035)" fill="#c1dffb"/>
            <path id="Path_297" data-name="Path 297" d="M163.837,372.25s-1.918-41.81-20.9-43.27c0,0,.639,31.735,18.757,49.189Z" transform="translate(-98.375 -94.873)" fill="#c1dffb"/>
            <path id="Path_298" data-name="Path 298" d="M179.445,333.425s-5.657-34.768-23.775-39.015c0,0,2.246,33.67,21.979,47.549Z" transform="translate(-100.668 -88.644)" fill="#c1dffb"/>
            <path id="Path_299" data-name="Path 299" d="M195.24,298.87s-.189-36.219-11.256-41.54c0,0-6.862,32.793,8.051,46.164Z" transform="translate(-105.486 -81.962)" fill="#c1dffb"/>
            <path id="Path_300" data-name="Path 300" d="M206.391,264.758s-1.549-37.293-13.01-42.548c0,0-3.919,29.513,11.3,44.991Z" transform="translate(-107.382 -75.634)" fill="#c1dffb"/>
            <path id="Path_301" data-name="Path 301" d="M221.85,225.459s-.066-30.333-8.247-37.449c0,0-8.133,33.227,3.976,43.549Z" transform="translate(-110.626 -69.472)" fill="#c1dffb"/>
            <path id="Path_302" data-name="Path 302" d="M226.992,187.484,219.031,137s-10.813,41.368,8.338,59.6Z" transform="translate(-111.537 -60.28)" fill="#c1dffb"/>
            <path id="Path_303" data-name="Path 303" d="M226.9,129.081s-20.43-33.94-20.012-37.711c0,0,2.172,35.572,27.874,53.288Z" transform="translate(-109.896 -52.059)" fill="#c1dffb"/>
            <path id="Path_304" data-name="Path 304" d="M228.065,113.687s-19.282-48.205-28-52.107c0,0,27.546,14,29.612,50.73Z" transform="translate(-108.667 -46.691)" fill="#c1dffb"/>
          </g>
          <path id="Path_305" data-name="Path 305" d="M220.88,218.167l-1.32-.4c16.273-53.067,20.331-86.9,11.436-95.385l.943-1C241.375,130.332,237.547,163.8,220.88,218.167Z" transform="translate(-112.181 -57.466)" fill="#444053"/>
          <path id="Path_306" data-name="Path 306" d="M166.081,362.839l-1.951-.7c1.73-4.861,3.591-9.8,5.542-14.658,16.987-42.335,31.448-81.719,40.72-111.954l1.7-.82c-9.288,30.292-23.5,71.184-40.5,113.577C169.647,353.058,167.795,357.969,166.081,362.839Z" transform="translate(-102.193 -77.886)" fill="#444053"/>
          <path id="Path_307" data-name="Path 307" d="M202.762,682.071c-.262-.287-26.636-29.989-45.024-80.694a298.56,298.56,0,0,1-17.765-92.459c-1.262-39.458,7.018-83.514,21.2-123.538l1.541,1.8c-31.842,89.827-19.192,166.8-2.41,213.152,18.192,50.246,44.27,79.62,44.524,79.915Z" transform="translate(-97.817 -105.035)" fill="#444053"/>
          <path id="Path_308" data-name="Path 308" d="M681.283,670.36s-18.585,22.684-3.828,56.977L529.069,791.692l-14.24,2.984-6.559-28.693,4.386-36.211v-19.79Z" transform="translate(-164.202 -156.384)" fill="#d5d6db"/>
          <path id="Path_309" data-name="Path 309" d="M59.16,600.831,264.54,563.39l272.137,43.352L367.648,667.6Z" transform="translate(-10.66 -101.514)" fill="#6c63ff"/>
          <path id="Path_310" data-name="Path 310" d="M59.16,600.831,264.54,563.39l272.137,43.352L367.648,667.6Z" transform="translate(-10.66 -101.514)" fill="#86c2fe"/>
          <path id="Path_311" data-name="Path 311" d="M146.041,652.47s-19.208,36.391,2.927,70l304.561,65.995s-18.9-28.989.976-69.225Z" transform="translate(-97.54 -153.161)" fill="#86c2fe"/>
          <path id="Path_312" data-name="Path 312" d="M146.041,652.47s-19.208,36.391,2.927,70l304.561,65.995s-18.9-28.989.976-69.225Z" transform="translate(-98.58 -151.083)" opacity="0.1"/>
          <path id="Path_313" data-name="Path 313" d="M157.738,667.86s-10.977,26.627,0,43.86" transform="translate(-100.162 -155.934)" opacity="0.1"/>
          <path id="Path_314" data-name="Path 314" d="M455.871,802.413,625.9,729.86s9.51,2.05,3.361,9.018-170.111,70.5-170.111,70.5L151.31,736.418Z" transform="translate(-99.883 -167.106)" fill="#86c2fe"/>
          <path id="Path_315" data-name="Path 315" d="M455.871,802.413,625.9,729.86s9.51,2.05,3.361,9.018-170.111,70.5-170.111,70.5L151.31,736.418Z" transform="translate(-99.883 -167.106)" fill="#86c2fe" opacity="0.1"/>
          <path id="Path_316" data-name="Path 316" d="M504.208,742.86s-16.4,19.676,0,49.189" transform="translate(-162.157 -169.448)" opacity="0.1"/>
          <rect id="Rectangle_71" data-name="Rectangle 71" width="77.53" height="0.82" transform="translate(347.888 597.614) rotate(-18.45)" opacity="0.1"/>
          <rect id="Rectangle_72" data-name="Rectangle 72" width="94.467" height="0.82" transform="translate(347.861 604.215) rotate(-20.82)" opacity="0.1"/>
          <rect id="Rectangle_73" data-name="Rectangle 73" width="109.494" height="0.82" transform="translate(348.354 611.995) rotate(-22.26)" opacity="0.1"/>
          <rect id="Rectangle_74" data-name="Rectangle 74" width="126.038" height="0.82" transform="translate(349.536 618.855) rotate(-24.31)" opacity="0.1"/>
          <rect id="Rectangle_75" data-name="Rectangle 75" width="137.852" height="0.82" transform="matrix(0.916, -0.401, 0.401, 0.916, 350.448, 622.194)" opacity="0.1"/>
          <rect id="Rectangle_76" data-name="Rectangle 76" width="164.963" height="0.82" transform="translate(352.354 627.801) rotate(-23.36)" opacity="0.1"/>
          <path id="Path_317" data-name="Path 317" d="M152.23,607.273,296.517,576.94l87.9,16.806L266.184,631.867Z" transform="translate(-27.43 -103.955)" fill="#fff" opacity="0.3"/>
          <path id="Path_318" data-name="Path 318" d="M693.054,659.69s7.46,3.009,3.083,7.657S524,720.545,524,720.545Z" transform="translate(-167.037 -154.462)" fill="#86c2fe"/>
          <path id="Path_319" data-name="Path 319" d="M780.575,574.18s-18.577,22.676-3.82,56.977L628.369,695.512l-14.24,3-6.559-28.693,4.452-36.2V613.8Z" transform="translate(-182.095 -139.054)" fill="#d5d6db"/>
          <path id="Path_320" data-name="Path 320" d="M158.46,504.643,363.832,467.21l272.145,43.352L466.948,571.416Z" transform="translate(-28.552 -84.183)" fill="#ff7b60"/>
          <path id="Path_321" data-name="Path 321" d="M245.3,556.29s-19.216,36.392,2.919,70l304.561,66s-18.9-29.013,1.008-69.233Z" transform="translate(-115.424 -135.831)" fill="#ff7b60"/>
          <path id="Path_323" data-name="Path 323" d="M257.028,571.68s-10.969,26.619,0,43.86" transform="translate(-118.054 -138.604)" opacity="0.1"/>
          <path id="Path_324" data-name="Path 324" d="M555.161,706.233,725.2,633.68s9.5,2.049,3.353,9.018S558.44,713.2,558.44,713.2L250.6,640.238Z" transform="translate(-117.774 -149.775)" fill="#ff7b60"/>
          <path id="Path_326" data-name="Path 326" d="M603.5,646.68s-16.4,19.676,0,49.189" transform="translate(-180.048 -152.118)" opacity="0.1"/>
          <rect id="Rectangle_77" data-name="Rectangle 77" width="77.53" height="0.82" transform="translate(429.294 518.773) rotate(-18.45)" opacity="0.1"/>
          <rect id="Rectangle_78" data-name="Rectangle 78" width="94.467" height="0.82" transform="translate(429.277 525.37) rotate(-20.82)" opacity="0.1"/>
          <rect id="Rectangle_79" data-name="Rectangle 79" width="109.494" height="0.82" transform="translate(429.758 533.139) rotate(-22.26)" opacity="0.1"/>
          <rect id="Rectangle_80" data-name="Rectangle 80" width="126.038" height="0.82" transform="translate(430.95 540.001) rotate(-24.31)" opacity="0.1"/>
          <rect id="Rectangle_81" data-name="Rectangle 81" width="137.852" height="0.82" transform="matrix(0.916, -0.401, 0.401, 0.916, 431.849, 543.329)" opacity="0.1"/>
          <rect id="Rectangle_82" data-name="Rectangle 82" width="164.963" height="0.82" transform="translate(433.762 548.936) rotate(-23.36)" opacity="0.1"/>
          <path id="Path_327" data-name="Path 327" d="M251.53,511.093,395.817,480.76l87.9,16.806L365.484,535.688Z" transform="translate(-45.322 -86.625)" fill="#fff" opacity="0.45"/>
          <path id="Path_328" data-name="Path 328" d="M792.359,563.51s7.452,3.009,3.083,7.649-172.112,53.2-172.112,53.2Z" transform="translate(-184.934 -137.132)" fill="#ff7b60"/>
          <path id="Path_329" data-name="Path 329" d="M789.981,464.15s-18.585,40.72-3.828,75.013L637.766,585.482l-14.207,3.009L617,559.8l4.386-36.211V503.772Z" transform="translate(-183.794 -119.228)" fill="#d5d6db"/>
          <path id="Path_330" data-name="Path 330" d="M167.89,394.621,373.27,357.18l272.145,43.352L476.378,461.386Z" transform="translate(-30.251 -64.358)" fill="#86c2fe"/>
          <path id="Path_331" data-name="Path 331" d="M254.766,446.26s-19.241,36.392,2.894,70L562.22,582.259s-18.9-29.013,1-69.225Z" transform="translate(-117.127 -116.005)" fill="#86c2fe"/>
          <path id="Path_332" data-name="Path 332" d="M254.766,446.26s-19.241,36.392,2.894,70L562.22,582.259s-18.9-29.013,1-69.225Z" transform="translate(-116.088 -117.044)" fill="#62a4f9" opacity="0.79"/>
          <path id="Path_333" data-name="Path 333" d="M266.468,461.65s-10.977,26.628,0,43.86" transform="translate(-119.754 -118.778)" opacity="0.1"/>
          <path id="Path_334" data-name="Path 334" d="M564.6,597.645,734.63,543.127s9.51,2.049,3.361,9.018S567.88,604.613,567.88,604.613L260.04,531.65Z" transform="translate(-119.475 -131.391)" fill="#86c2fe"/>
          <path id="Path_335" data-name="Path 335" d="M564.6,597.645,734.63,543.127s9.51,2.049,3.361,9.018S567.88,604.613,567.88,604.613L260.04,531.65Z" transform="translate(-119.475 -131.391)" fill="#0051dc" opacity="0.1"/>
          <path id="Path_336" data-name="Path 336" d="M612.938,536.65s-16.4,19.676,0,49.189" transform="translate(-181.749 -132.292)" opacity="0.1"/>
          <rect id="Rectangle_83" data-name="Rectangle 83" width="77.53" height="0.82" transform="translate(437.035 428.567) rotate(-18.45)" opacity="0.1"/>
          <rect id="Rectangle_84" data-name="Rectangle 84" width="94.467" height="0.82" transform="translate(437.013 435.169) rotate(-20.82)" opacity="0.1"/>
          <rect id="Rectangle_85" data-name="Rectangle 85" width="109.494" height="0.82" transform="translate(437.486 442.942) rotate(-22.26)" opacity="0.1"/>
          <rect id="Rectangle_86" data-name="Rectangle 86" width="126.038" height="0.82" transform="translate(438.69 449.796) rotate(-24.31)" opacity="0.1"/>
          <rect id="Rectangle_87" data-name="Rectangle 87" width="137.852" height="0.82" transform="matrix(0.916, -0.401, 0.401, 0.916, 439.593, 453.132)" opacity="0.1"/>
          <rect id="Rectangle_88" data-name="Rectangle 88" width="164.963" height="0.82" transform="translate(441.502 458.744) rotate(-23.36)" opacity="0.1"/>
          <path id="Path_337" data-name="Path 337" d="M260.96,401.063,405.247,370.73l87.9,16.806L374.914,425.657Z" transform="translate(-47.021 -66.799)" fill="#fff" opacity="0.3"/>
          <path id="Path_338" data-name="Path 338" d="M801.789,453.48s7.46,3.009,3.082,7.657-172.112,53.2-172.112,53.2Z" transform="translate(-186.634 -117.306)" fill="#86c2fe"/>
          <g id="Group_24" data-name="Group 24">
            <path id="Path_339" data-name="Path 339" d="M392.888,149.911s-31.153-1.877-27.513,19.979a5.331,5.331,0,0,0,2.771,5.616s.057-1.64,3.2-1.074a13.979,13.979,0,0,0,3.394.164,7.067,7.067,0,0,0,4.14-1.705h0s8.764-3.624,12.174-17.954c0,0,2.525-3.123,2.459-3.927l-5.28,2.246s1.8,3.8.385,6.952c0,0-.172-6.813-1.189-6.657-.2,0-2.73,1.32-2.73,1.32s3.091,6.616.754,11.42c0,0,.885-8.149-1.722-10.945l-3.706,2.164s3.615,6.829,1.164,12.4c0,0,.631-8.551-1.943-11.879l-3.361,2.623s3.4,6.731,1.328,11.354c0,0-.271-9.953-2.05-10.707,0,0-2.943,2.591-3.386,3.656,0,0,2.328,4.919.877,7.468,0,0-.877-6.632-1.64-6.665,0,0-2.927,4.394-3.23,7.378a15.955,15.955,0,0,1,2.517-7.821,8.781,8.781,0,0,0-4.476,2.32s.451-3.107,5.206-3.378c0,0,2.418-3.337,3.066-3.533,0,0-4.73-.4-7.591.869,0,0,2.525-2.927,8.452-1.64l3.279-2.705s-6.214-.82-8.854.09c0,0,3.042-2.591,9.748-.705l3.615-2.156s-5.3-1.14-8.461-.73c0,0,3.328-1.8,9.518.148l2.574-1.156s-3.878-.762-5.017-.885-1.2-.434-1.2-.434a13.535,13.535,0,0,1,7.3.82S392.994,150.255,392.888,149.911Z" transform="translate(-138.401 -62.6)" fill="#69aafa"/>
            <path id="Path_340" data-name="Path 340" d="M927.488,259.491s-31.153-1.877-27.513,19.979a5.332,5.332,0,0,0,2.771,5.616s.057-1.64,3.2-1.074a14.448,14.448,0,0,0,3.394.164,7.043,7.043,0,0,0,4.1-1.705h0s8.772-3.624,12.174-17.954c0,0,2.525-3.123,2.459-3.927l-5.263,2.246s1.8,3.8.385,6.952c0,0-.172-6.813-1.18-6.657-.2,0-2.738,1.32-2.738,1.32s3.091,6.616.762,11.42c0,0,.886-8.149-1.73-10.945l-3.706,2.164s3.615,6.829,1.164,12.4c0,0,.631-8.551-1.943-11.879l-3.353,2.623s3.394,6.731,1.32,11.354c0,0-.271-9.953-2.05-10.707,0,0-2.935,2.591-3.386,3.656,0,0,2.328,4.919.885,7.469,0,0-.885-6.632-1.64-6.665,0,0-2.927,4.394-3.23,7.378a15.9,15.9,0,0,1,2.525-7.821,8.82,8.82,0,0,0-4.484,2.32s.459-3.107,5.206-3.378c0,0,2.419-3.337,3.066-3.542,0,0-4.722-.394-7.592.877,0,0,2.525-2.927,8.452-1.64l3.279-2.705s-6.223-.82-8.854.09c0,0,3.033-2.591,9.748-.705l3.607-2.156s-5.3-1.14-8.461-.73c0,0,3.328-1.8,9.518.148l2.583-1.156s-3.886-.762-5.026-.885-1.2-.434-1.2-.434a13.437,13.437,0,0,1,7.3.82S927.586,259.835,927.488,259.491Z" transform="translate(-234.729 -82.344)" fill="#69aafa"/>
            <path id="Path_341" data-name="Path 341" d="M455.436,310.638s-13.576-28.144-30.858-14.273a5.324,5.324,0,0,0-3.55,5.157s1.435-.746,2.459,2.271A14.53,14.53,0,0,0,425,306.826a7.075,7.075,0,0,0,3.517,2.787h0s7.436,5.886,21.61,1.869c0,0,3.96.68,4.607.2l-4.525-3.5s-2.459,3.419-5.886,3.722c0,0,5.87-3.468,5.239-4.271-.131-.164-2.459-1.746-2.459-1.746s-4.271,5.927-9.6,6.231c0,0,7.542-3.2,8.706-6.845l-3.689-2.181s-4.206,6.493-10.264,7.067c0,0,7.772-3.615,9.42-7.485l-3.919-1.64s-4.222,6.247-9.272,6.7c0,0,8.559-5.091,8.346-7.018,0,0-3.7-1.3-4.845-1.172,0,0-3.132,4.419-6.083,4.419,0,0,5.353-4.009,5.025-4.657,0,0-5.263-.41-8.034.82a15.962,15.962,0,0,1,8.059-1.64,8.829,8.829,0,0,0-4.214-2.779s2.935-1.115,5.484,2.894c0,0,4.1.484,4.583.951,0,0-1.959-4.312-4.46-6.19,0,0,3.788.762,5.517,6.559l3.976,1.574s-2.287-5.837-4.394-7.682c0,0,3.738,1.385,5.37,8.2l3.64,2.1s-1.582-5.189-3.484-7.739c0,0,3.189,2.033,4.509,8.378l2.271,1.689s-1.23-3.763-1.64-4.812-.2-1.262-.2-1.262a13.453,13.453,0,0,1,2.853,6.763S455.141,310.884,455.436,310.638Z" transform="translate(-148.481 -88.303)" fill="#69aafa"/>
            <path id="Path_342" data-name="Path 342" d="M839.216,207.018s-13.568-28.144-30.858-14.273a5.335,5.335,0,0,0-3.55,5.157s1.443-.738,2.459,2.271a14.221,14.221,0,0,0,1.517,3.042,7.034,7.034,0,0,0,3.509,2.779h0s7.444,5.886,21.61,1.877c0,0,3.96.672,4.616.2l-4.5-3.509s-2.459,3.427-5.878,3.73c0,0,5.862-3.476,5.23-4.279-.131-.164-2.46-1.746-2.46-1.746s-4.263,5.927-9.6,6.231c0,0,7.55-3.2,8.714-6.837l-3.747-2.164s-4.2,6.485-10.264,7.067c0,0,7.772-3.624,9.428-7.493l-3.927-1.64s-4.222,6.255-9.264,6.7c0,0,8.551-5.091,8.338-7.009,0,0-3.689-1.3-4.837-1.172,0,0-3.132,4.411-6.091,4.411,0,0,5.362-4.009,5.034-4.657,0,0-5.263-.41-8.042.82a15.953,15.953,0,0,1,8.059-1.64,8.78,8.78,0,0,0-4.206-2.779s2.935-1.115,5.485,2.894c0,0,4.1.492,4.583.959,0,0-1.959-4.32-4.468-6.2,0,0,3.787.771,5.517,6.6l3.984,1.574s-2.287-5.845-4.394-7.69c0,0,3.738,1.385,5.362,8.2l3.648,2.1s-1.59-5.181-3.492-7.739c0,0,3.2,2.033,4.509,8.378l2.271,1.689s-1.221-3.763-1.64-4.812-.205-1.254-.205-1.254a13.487,13.487,0,0,1,2.845,6.763S838.962,207.281,839.216,207.018Z" transform="translate(-217.633 -69.633)" fill="#69aafa"/>
            <path id="Path_343" data-name="Path 343" d="M892.1,376.827s-13.568-28.152-30.882-14.281a5.334,5.334,0,0,0-3.55,5.157s1.443-.738,2.459,2.271a14.209,14.209,0,0,0,1.508,3.042,7.035,7.035,0,0,0,3.509,2.779h0s7.444,5.894,21.618,1.877c0,0,3.951.68,4.607.2l-4.525-3.5s-2.459,3.427-5.886,3.73c0,0,5.862-3.476,5.23-4.279-.131-.164-2.459-1.746-2.459-1.746s-4.263,5.927-9.6,6.239c0,0,7.551-3.205,8.715-6.845l-3.7-2.181s-4.2,6.493-10.264,7.067c0,0,7.772-3.624,9.428-7.493l-3.927-1.64s-4.222,6.247-9.264,6.7c0,0,8.559-5.091,8.346-7.018,0,0-3.7-1.3-4.845-1.172,0,0-3.132,4.411-6.091,4.411,0,0,5.362-4.009,5.034-4.656,0,0-5.263-.41-8.042.82a16,16,0,0,1,8.067-1.64,8.764,8.764,0,0,0-4.214-2.779s2.935-1.123,5.485,2.894c0,0,4.1.484,4.583.951,0,0-1.96-4.312-4.46-6.2,0,0,3.788.771,5.517,6.6l3.976,1.574s-2.287-5.845-4.394-7.682c0,0,3.738,1.377,5.362,8.2l3.648,2.091s-1.591-5.181-3.492-7.739c0,0,3.2,2.033,4.517,8.387l2.271,1.64s-1.23-3.763-1.64-4.812-.205-1.254-.205-1.254a13.4,13.4,0,0,1,2.845,6.763S891.847,377.073,892.1,376.827Z" transform="translate(-227.158 -100.228)" fill="#69aafa"/>
          </g>
          <ellipse id="Ellipse_68" data-name="Ellipse 68" cx="18.848" cy="2.107" rx="18.848" ry="2.107" transform="translate(23.16 602.843)" fill="#6c63ff" opacity="0.1"/>
          <path id="Path_346" data-name="Path 346" d="M686.65,342.778s12.543,32.793,19.675,29.513,5.2-17.216,6.558-21.036,2.869-32.793,2.869-32.793.689-20.5,2.049-24.644c1.263-3.812,2.287-23.037,2.459-26.062v-.4L718.91,243.58l-7.657-1.91L693.5,248.228l-2.459,14.043-.959,5.485-.41,2.336Z" transform="translate(-196.344 -79.141)" fill="#ffb1b4"/>
          <path id="Path_347" data-name="Path 347" d="M691.69,358.3s11.969,9.8,15.576,10.658,5.821,8.5,5.821,8.5" transform="translate(-197.252 -100.156)" opacity="0.1"/>
          <path id="Path_348" data-name="Path 348" d="M559.612,344.528s-12.543,32.793-19.675,29.513-5.2-17.216-6.559-21.036-2.869-32.793-2.869-32.793-.689-20.5-2.049-24.644c-1.263-3.812-2.287-23.037-2.459-26.062v-.4l1.361-23.775,7.657-1.91,17.757,6.559,2.459,14.043.959,5.485.41,2.336Z" transform="translate(-167.397 -79.456)" fill="#ffb1b4"/>
          <rect id="Rectangle_89" data-name="Rectangle 89" width="27.997" height="43.639" transform="translate(445.897 89.582)" fill="#3e373a"/>
          <rect id="Rectangle_90" data-name="Rectangle 90" width="27.997" height="43.639" transform="translate(445.897 89.582)" opacity="0.1"/>
          <path id="Path_349" data-name="Path 349" d="M559.5,406.017s-9.567,10.518-6.017,12.428S580,456.156,580,456.156s75.423,9.289,89.647-4.648,13.937-38.835,13.937-38.835-11.428,2.459-12.674,1.123-8.092-7.78-8.092-7.78S566.062,400.147,559.5,406.017Z" transform="translate(-172.207 -108.283)" fill="#ff7b60"/>
          <path id="Path_351" data-name="Path 351" d="M690.77,227.836l-24.594,19.676-7.436.541-2.73.2-45.852,3.361-47.549-3.476-7.075-.516-9.018-.656L527.66,228.926s13.346-14.3,25.037-23.947c4.607-3.812,8.961-6.895,12.133-8.108l.541-.189a13.5,13.5,0,0,0,5.2-3.624c9.231-9.518,17.765-33.006,17.765-33.006s40.72-21.036,35.8,6.559,18.306,20.774,18.306,20.774l7.657,3.492,3.025,1.385,7.714,3.533,17.4,7.985C691.9,210.071,690.77,227.836,690.77,227.836Z" transform="translate(-167.696 -63.052)" fill="#ffb1b4"/>
          <circle id="Ellipse_73" data-name="Ellipse 73" cx="36.621" cy="36.621" r="36.621" transform="translate(403.931 46.231)" opacity="0.1"/>
          <path id="Path_352" data-name="Path 352" d="M690.528,263.649H526v-.4l1.361-23.775s13.347-14.3,25.037-23.947l103.3-4.1,4.8-5.066,17.4,7.985c13.666,6.28,12.568,24.045,12.568,24.045S692.34,258.976,690.528,263.649Z" transform="translate(-167.397 -72.778)" opacity="0.1"/>
          <path id="Path_353" data-name="Path 353" d="M690.528,262.649H526v-.4l1.361-23.775s13.347-14.3,25.037-23.947l103.3-4.1,4.8-5.066,17.4,7.985c13.666,6.28,12.568,24.045,12.568,24.045S692.34,257.976,690.528,262.649Z" transform="translate(-167.397 -72.598)" fill="#fff"/>
          <path id="Path_354" data-name="Path 354" d="M591.538,192.346s25.955,33.071,60.527-.68,3.829,75.284,3.829,75.284l-74.6,8.854Z" transform="translate(-177.359 -68.962)" opacity="0.1"/>
          <path id="Path_355" data-name="Path 355" d="M591.538,194.346s25.955,33.071,60.527-.68,3.829,75.283,3.829,75.283l-74.6,8.854Z" transform="translate(-177.359 -69.323)" fill="#fff"/>
          <path id="Path_356" data-name="Path 356" d="M657.386,202.7l2.746,41.884,2.943,13.937,2.246,10.658s5.739,81.981,4.1,86.08.82,7.378,1.164,9.559-.344,7.657-.074,10.116,0,3.55-6.28,2.673-15.035-2.4-15.035-2.4-22.135,1.64-29.784-1.09-22.135-2.738-22.135-2.738-21.864.549-28.964-.271-10.936,8.747-15.576,6.009,5.46-29.235,8.739-36.892-4.37-27.054-4.37-27.054l9.838-54.575,2.189-12.371V207.335l.541-.189a13.493,13.493,0,0,0,5.2-3.624l2.46,39.138,77.063,2.738V201.35" transform="translate(-171.999 -71.875)" opacity="0.1"/>
          <path id="Path_357" data-name="Path 357" d="M657.386,200.7l2.746,41.884,2.943,13.937,2.246,10.658s5.739,81.981,4.1,86.08.82,7.378,1.164,9.559-.344,7.657-.074,10.117,0,3.55-6.28,2.673-15.035-2.4-15.035-2.4-22.135,1.64-29.784-1.09-22.135-2.738-22.135-2.738-21.864.549-28.964-.271-10.936,8.747-15.576,6.009,5.46-29.235,8.739-36.892-4.37-27.054-4.37-27.054l9.838-54.575,2.189-12.371V205.335l.541-.189a13.493,13.493,0,0,0,5.2-3.624l2.46,39.138,77.063,2.738V199.35" transform="translate(-171.999 -71.515)" fill="#fff"/>
          <path id="Path_358" data-name="Path 358" d="M663.728,85.89a9.034,9.034,0,0,0-2.459-4.64,10.067,10.067,0,0,0-4.329-1.771A85.522,85.522,0,0,0,645.56,77.3,18.214,18.214,0,0,0,643.1,72.19c-8.034-11.346-19.921-22.045-33.907-24.463-7.321-1.271-15.806-.131-20.5,5.64-2.574,3.173-3.681,7.378-6.28,10.494-5.009,6.05-14.052,6.8-20.364,11.477-3.369,2.459-5.813,6.026-8.2,9.485-2.583,3.747-5.239,7.649-6.058,12.125-1.64,8.944,4.271,17.47,5.362,26.5,2.459,20.192-19.184,38.1-15.093,58.026,2.386,11.617,13.117,19.8,24.217,23.947,3.91,1.467,8.379,2.927,10.207,6.681.82,1.64.959,3.533,1.73,5.189,2.591,5.526,11.109,5.739,15.683,1.713s6.017-10.535,6.558-16.609c2.2-26.529-8.428-52.739-7.19-79.333.369-8.042,2.632-17.167,9.838-20.807,9.7-4.919,21.364,3.279,32.038,1.713a63.561,63.561,0,0,1,3.066,38.785c-1.7,7.075-4.632,13.937-4.845,21.233-.32,11.108,5.673,21.258,10.854,31.079a16.535,16.535,0,0,1,2.189,5.993,14.445,14.445,0,0,1-1.172,6.272c-2.927,7.878-7.977,15.191-8.551,23.578a3.812,3.812,0,0,0,.615,2.8,3.525,3.525,0,0,0,2.115.951c8.854,1.517,16.511-6.329,20.831-14.207a66.6,66.6,0,0,0,8.214-28.3c.894-16.691-5.091-33.112-4.722-49.82C660.169,123.339,668.753,104.212,663.728,85.89Z" transform="translate(-169.478 -44.11)" opacity="0.1"/>
          <path id="Path_359" data-name="Path 359" d="M664.728,84.89a9.034,9.034,0,0,0-2.46-4.64,10.067,10.067,0,0,0-4.329-1.771A85.525,85.525,0,0,0,646.56,76.3,18.218,18.218,0,0,0,644.1,71.19c-8.034-11.346-19.921-22.045-33.907-24.463-7.321-1.271-15.806-.131-20.5,5.64-2.574,3.173-3.681,7.378-6.28,10.494-5.009,6.05-14.051,6.8-20.364,11.477-3.369,2.459-5.813,6.026-8.2,9.485-2.582,3.747-5.239,7.649-6.058,12.125-1.64,8.944,4.271,17.47,5.362,26.5,2.459,20.192-19.184,38.1-15.093,58.026,2.386,11.617,13.117,19.8,24.217,23.947,3.91,1.467,8.378,2.927,10.207,6.681.82,1.64.959,3.533,1.73,5.189,2.591,5.526,11.108,5.739,15.683,1.713s6.018-10.535,6.559-16.609c2.2-26.529-8.428-52.739-7.19-79.333.369-8.042,2.632-17.167,9.838-20.807,9.7-4.919,21.364,3.279,32.038,1.713a63.561,63.561,0,0,1,3.066,38.785c-1.7,7.075-4.632,13.937-4.845,21.233-.32,11.108,5.673,21.258,10.854,31.079a16.541,16.541,0,0,1,2.189,5.993,14.444,14.444,0,0,1-1.172,6.272c-2.927,7.878-7.977,15.191-8.551,23.578a3.812,3.812,0,0,0,.615,2.8,3.525,3.525,0,0,0,2.115.951c8.854,1.517,16.511-6.329,20.831-14.207a66.6,66.6,0,0,0,8.215-28.3c.894-16.691-5.091-33.112-4.722-49.82C661.17,122.339,669.753,103.212,664.728,84.89Z" transform="translate(-169.658 -43.93)" fill="#3e373a"/>
          <path id="Path_360" data-name="Path 360" d="M581.79,487.658l32.522,1.041-4.665-24.119-24.914,2.369Z" transform="translate(-104.83 -83.709)" fill="#c3c7d9"/>
          <path id="Path_361" data-name="Path 361" d="M760.076,455.251c-2.189,2.73-10.657,7.649-11.477,9.289s-10.928,6.558-16.126,7.378-21.586,4.378-24.594,6.288c-2.156,1.377-19.462,5.739-30.833,8.157a87.485,87.485,0,0,1-9.338,1.681c-4.919.271-58.748-18.036-58.748-18.036l10.379-10.658.574-.2c2.935-.992,16.495-5.575,24.021-7.755,8.477-2.46,18.315-12.568,18.315-12.568s14.478-4.919,16.4-5.468-4.919-19.126-4.919-19.126,31.423-4.361,43.721-8.059,40.72-2.328,45.909,12.158S762.3,452.521,760.076,455.251Z" transform="translate(-182.345 -108.468)" fill="#ff7b60"/>
          <path id="Path_362" data-name="Path 362" d="M603.365,516.384s-6.28,6.559-12.568,6.018-28.275,1.64-28.275,1.64a44.084,44.084,0,0,0-11.076,6.419c-5.14,4.05-7.87.82-8.378.131l-.09-.131c-2.738,8.616-9.018,2.05-9.018,2.05s2.73-26.234,1.894-29.513,5.4-8.911,5.4-8.911l7.378-1.877,18.692-4.788,26.783,9.288Z" transform="translate(-168.831 -123.421)" fill="#fff"/>
          <path id="Path_363" data-name="Path 363" d="M548.6,493.26l-5.534,38.384-.09-.131c-2.738,8.616-9.018,2.049-9.018,2.049s2.73-26.234,1.894-29.513,5.4-8.911,5.4-8.911Z" transform="translate(-168.831 -124.474)" opacity="0.1"/>
          <path id="Path_364" data-name="Path 364" d="M599,360.08s14.478,4.919,27.054,0" transform="translate(-180.551 -100.476)" opacity="0.1"/>
          <path id="Path_365" data-name="Path 365" d="M659.29,371.42s6.009,3,10.658,0" transform="translate(-191.414 -102.52)" opacity="0.1"/>
          <path id="Path_366" data-name="Path 366" d="M659.29,379.8s10.108,1.353,12.027-1.377" transform="translate(-191.414 -103.781)" opacity="0.1"/>
          <path id="Path_367" data-name="Path 367" d="M655.29,397.489s18.987-2.459,23.7-5.739" transform="translate(-190.693 -106.183)" opacity="0.1"/>
          <path id="Path_368" data-name="Path 368" d="M584.62,391.75s10.658,6.009,18.585,5.739" transform="translate(-177.96 -106.183)" opacity="0.1"/>
          <path id="Path_369" data-name="Path 369" d="M677.035,498.39a87.53,87.53,0,0,1-9.338,1.681c-4.919.271-58.748-18.036-58.748-18.036l10.379-10.658.574-.2c1.64,1.156,2.984,2.148,3.943,2.9,4.517,3.558,8.879-1.09,10.518-1.09s15.847,11.748,15.847,11.748,13.117,3.009,15.306,5.739,9.838,2.189,11.2,4.1C677.126,495.168,677.175,496.619,677.035,498.39Z" transform="translate(-182.343 -120.495)" opacity="0.1"/>
          <path id="Path_370" data-name="Path 370" d="M551.125,415.618s-13.265.762-20.913-2.459-33.063-10.658-40.442-5.435-25.144,9.838-16.946,30.612,12.027,21.315,12.027,21.315a29.6,29.6,0,0,1,6.559,6.8c2.459,3.829,25.414,12.568,31.153,12.568s15.847,0,30.054,9.838S579.671,499.8,579.671,499.8s18.036,7.378,23.651,9.018,31.276,8.739,37.293,6.558,9.838-15.855,9.838-15.855,2.73-12.3,1.361-14.207-9.018-1.369-11.2-4.1-15.306-5.739-15.306-5.739-14.175-11.756-15.814-11.756-6,4.64-10.518,1.09a239.954,239.954,0,0,0-28.292-18.036C560.307,441.3,551.125,415.618,551.125,415.618Z" transform="translate(-157.434 -108.735)" fill="#ff7b60"/>
          <path id="Path_371" data-name="Path 371" d="M536.27,427.35a15.659,15.659,0,0,1,13.437,3.55c6.558,5.468,28.628,16.445,28.628,16.445" transform="translate(-169.248 -112.54)" opacity="0.1"/>
          <path id="Path_372" data-name="Path 372" d="M728.663,427s-29.243,4.427-34.7,10.436" transform="translate(-197.661 -112.534)" opacity="0.1"/>
          <path id="Path_373" data-name="Path 373" d="M760.772,528.411h-1.287c-4.624-.164-20.29-.656-23.307,0-3.55.82-50.558,0-50.558,0l9.19-1.91s-3.41-11.953-1.246-12.945c0,0-12.3-8.1-3.025-13.568a28.764,28.764,0,0,1,19.266-3.164l23.275-7.887,4.468-1.517s26.234,1.369,33.333,19.405S760.772,528.411,760.772,528.411Z" transform="translate(-196.158 -123.421)" fill="#fff"/>
          <path id="Path_374" data-name="Path 374" d="M771.2,528.42h-1.287c7.633-6.3,24.9-25.463-26.406-39.433l4.468-1.517s26.234,1.369,33.334,19.4S771.2,528.42,771.2,528.42Z" transform="translate(-206.589 -123.43)" opacity="0.1"/>
          <circle id="Ellipse_74" data-name="Ellipse 74" cx="1.435" cy="1.435" r="1.435" transform="translate(514.95 380.87)" fill="#4b4b5b"/>
          <circle id="Ellipse_75" data-name="Ellipse 75" cx="1.435" cy="1.435" r="1.435" transform="translate(506.612 383.24)" fill="#4b4b5b"/>
          <g id="Group_18" data-name="Group 18" transform="translate(369.115 51.559)" opacity="0.1">
            <path id="Path_375" data-name="Path 375" d="M648.481,136.313a63.61,63.61,0,0,0-4.706-26.349c-10.658,1.59-22.332-6.632-32.038-1.713-7.182,3.64-9.436,12.765-9.838,20.807-.1,2.123-.115,4.247-.074,6.37,0-.754,0-1.517.074-2.271.377-8.042,2.632-17.167,9.838-20.807,9.707-4.919,21.364,3.279,32.038,1.713a63.439,63.439,0,0,1,4.706,22.25Z" transform="translate(-550.171 -106.373)"/>
            <path id="Path_376" data-name="Path 376" d="M556.739,135.175a27.313,27.313,0,0,0-.107-5.362c-.869-7.214-4.812-14.109-5.526-21.143-.918,8.485,4.484,16.634,5.526,25.242A5.124,5.124,0,0,1,556.739,135.175Z" transform="translate(-541.017 -106.735)"/>
            <path id="Path_377" data-name="Path 377" d="M597.741,225.441c-.508,6.083-1.943,12.584-6.558,16.618s-13.117,3.812-15.683-1.713c-.82-1.64-.943-3.55-1.738-5.189-1.82-3.755-6.3-5.214-10.207-6.681-11.108-4.156-21.823-12.3-24.209-23.947a25.155,25.155,0,0,1-.434-3.2,25.838,25.838,0,0,0,.434,7.3c2.386,11.617,13.117,19.79,24.209,23.947,3.911,1.467,8.387,2.927,10.207,6.681.82,1.64.959,3.533,1.738,5.189,2.582,5.526,11.1,5.739,15.683,1.713s6.009-10.535,6.558-16.618a93.675,93.675,0,0,0,.254-9.625C597.995,221.776,597.888,223.613,597.741,225.441Z" transform="translate(-538.823 -123.431)"/>
            <path id="Path_378" data-name="Path 378" d="M687.93,148.268v3.55c.459-15.249,6.05-30.579,5.5-45.508C693,120.116,688.242,134.233,687.93,148.268Z" transform="translate(-565.69 -106.31)"/>
            <path id="Path_379" data-name="Path 379" d="M663.644,224.551a10.573,10.573,0,0,0,.189-2.96,16.4,16.4,0,0,0-2.189-5.993c-4.739-9.018-10.141-18.249-10.781-28.259,0,.426-.057.82-.066,1.279-.328,11.1,5.665,21.258,10.846,31.079A19.679,19.679,0,0,1,663.644,224.551Z" transform="translate(-558.997 -120.91)"/>
            <path id="Path_380" data-name="Path 380" d="M686.669,217.9a66.708,66.708,0,0,1-8.272,28.3c-4.329,7.878-11.978,15.724-20.84,14.207a3.484,3.484,0,0,1-2.115-.959,2.05,2.05,0,0,1-.385-.639c-.1.639-.18,1.287-.229,1.943a3.779,3.779,0,0,0,.615,2.8,3.484,3.484,0,0,0,2.115.959c8.862,1.517,16.511-6.329,20.84-14.207a66.709,66.709,0,0,0,8.272-28.3c.1-1.918.107-3.829.049-5.739C686.7,216.809,686.7,217.35,686.669,217.9Z" transform="translate(-559.715 -126.121)"/>
          </g>
          <path id="Path_381" data-name="Path 381" d="M695.31,516.979s20.749,8.707,34.432-10.559" transform="translate(-197.904 -126.845)" fill="none" stroke="#000" stroke-miterlimit="10" stroke-width="1" opacity="0.1"/>
          <path id="Path_382" data-name="Path 382" d="M700.29,536.76s16.945-11.018,38.531-.361" transform="translate(-198.802 -131.41)" fill="none" stroke="#000" stroke-miterlimit="10" stroke-width="1" opacity="0.1"/>
          <path id="Path_383" data-name="Path 383" d="M561.93,532.961s7.116-16.052,26.119-3.812" transform="translate(-173.871 -130.111)" fill="none" stroke="#000" stroke-miterlimit="10" stroke-width="1" opacity="0.1"/>
          <path id="Path_384" data-name="Path 384" d="M533.79,241.725,548.3,228.608s56.264-3.689,58.592,15.437c0,0,19.946-22.676,61.9-17.626l17.749,14.134L637.48,262.081l-47.672,16.536L554.7,262.9Z" transform="translate(-168.801 -76.26)" opacity="0.1"/>
          <path id="Path_385" data-name="Path 385" d="M533.79,242.725,548.3,229.608s56.264-3.689,58.592,15.437c0,0,19.946-22.676,61.9-17.626l17.749,14.134L637.48,263.081l-47.672,16.536L554.7,263.9Z" transform="translate(-168.801 -76.44)" fill="#d5d6db"/>
          <path id="Path_386" data-name="Path 386" d="M437.38,204.83l6.419,76.792,68.045,3.419-2.951-76.464-.057-1.287Z" transform="translate(-78.81 -36.906)" opacity="0.1"/>
          <path id="Path_387" data-name="Path 387" d="M437.38,202.83l6.419,76.792,68.045,3.419-2.951-76.464-.057-1.287Z" transform="translate(-78.81 -36.546)" fill="#ff7b60"/>
          <path id="Path_388" data-name="Path 388" d="M619.9,202.83,549.71,213.356v77.136l68.594-9.912Z" transform="translate(-99.05 -36.546)" opacity="0.1"/>
          <path id="Path_389" data-name="Path 389" d="M619.9,200.83,549.71,211.356v77.136l68.594-9.911Z" transform="translate(-99.05 -36.185)" fill="#ff7b60"/>
          <path id="Path_390" data-name="Path 390" d="M606.806,223.79,568.89,228l.828,12.92,37.064-4.05Z" transform="translate(-102.506 -40.322)" fill="#fff" opacity="0.3"/>
          <path id="Path_391" data-name="Path 391" d="M537.928,375.049l3.861,10.387s5.739,4.919,12.018,2.459,11.756-3.681,14.486-6.075,6.558-14.421,6.558-14.421,3.829-13.117,7.649-16.4,13.937-48.459,0-44.04-24.594,45.409-24.594,45.409a9.721,9.721,0,0,1-6.009,3.279c-3.55.279-10.658-.549-12.027,2.459S533.829,369.039,537.928,375.049Z" transform="translate(-169.249 -90.851)" fill="#ffb1b4"/>
          <path id="Path_392" data-name="Path 392" d="M633.765,257.952a23.61,23.61,0,0,1-20.585-5.132l2.959,76.456s6.968,7.542,17.626,5.821Z" transform="translate(-183.106 -81.15)" opacity="0.1"/>
          <path id="Path_394" data-name="Path 394" d="M633.765,255.952a23.61,23.61,0,0,1-20.585-5.132l2.959,76.456s6.968,7.542,17.626,5.821Z" transform="translate(-183.106 -77.672)" fill="#ffa390"/>
          <path id="Path_395" data-name="Path 395" d="M640.29,244.9s28.554-8.731,36-7.5" transform="translate(-187.99 -78.349)" opacity="0.1"/>
          <path id="Path_396" data-name="Path 396" d="M594.231,240.814s-27.677-6.559-32.3-4.7" transform="translate(-173.871 -78.08)" opacity="0.1"/>
          <path id="Path_397" data-name="Path 397" d="M662.25,246.9s19.093-7,26-3.673" transform="translate(-191.947 -79.259)" opacity="0.1"/>
          <path id="Path_398" data-name="Path 398" d="M650.52,458.973a62.766,62.766,0,0,1,9.411-5.845c4.919-2.369,13.937-8.518,13.937-8.518" transform="translate(-189.834 -115.708)" opacity="0.1"/>
          <path id="Path_399" data-name="Path 399" d="M557.227,360.08s-11.978,9.8-15.577,10.658-5.821,8.5-5.821,8.5" transform="translate(-169.168 -100.476)" opacity="0.1"/>
          <path id="Path_400" data-name="Path 400" d="M703.962,373.274l-3.82,10.412s-5.739,4.919-12.027,2.459-11.748-3.681-14.486-6.075-6.559-14.421-6.559-14.421-3.82-13.117-7.649-16.4-13.937-48.459,0-44.04,24.594,45.409,24.594,45.409a9.721,9.721,0,0,0,6.009,3.279c3.55.279,10.657-.549,12.026,2.459S708.061,367.289,703.962,373.274Z" transform="translate(-190.152 -90.535)" fill="#ffb1b4"/>
          <path id="Path_401" data-name="Path 401" d="M707.15,364.94s7.829,5.034,7.8,11.051" transform="translate(-200.038 -101.352)" opacity="0.1"/>
          <circle id="Ellipse_76" data-name="Ellipse 76" cx="36.621" cy="36.621" r="36.621" transform="translate(404.062 40.279)" fill="#ffb1b4"/>
          <path id="Path_402" data-name="Path 402" d="M594.085,121.814c4.443-.7,8.337-3.279,12.584-4.763,9.5-3.337,20.012-1.049,29.628,1.959,3.689,1.156,7.436,2.459,11.305,2.459s7.977-1.582,9.953-4.919c1.82-3.066,1.467-7.05-.066-10.272s-4.1-5.812-6.69-8.256c-8.526-8.051-19.1-15.576-30.8-14.757-4.706.336-9.207,2.017-13.535,3.878a149.2,149.2,0,0,0-15.888,8c-3.943,2.287-11.248,5.345-13.519,9.526C571.892,114.091,586.05,123.077,594.085,121.814Z" transform="translate(-176.397 -50.587)" fill="#3e373a"/>
          <path id="Path_403" data-name="Path 403" d="M657.554,118.253c-1.976,3.337-6.083,4.919-9.953,4.919s-7.616-1.254-11.313-2.41c-9.616-3.009-20.118-5.3-29.628-1.959-4.238,1.484-8.141,4.1-12.584,4.755-6.477,1.017-16.9-4.624-18.036-11.8-1.271,8.288,10.822,15.388,18.036,14.257,4.443-.7,8.346-3.279,12.584-4.755,9.51-3.345,20.012-1.049,29.628,1.959,3.7,1.156,7.436,2.459,11.313,2.41s7.977-1.574,9.953-4.919a9.6,9.6,0,0,0,1.148-5.993,8.836,8.836,0,0,1-1.148,3.533Z" transform="translate(-176.397 -55.733)" opacity="0.1"/>
        </g>
        <circle id="Ellipse_78" data-name="Ellipse 78" cx="36" cy="36" r="36" transform="translate(1644 205)" fill="#ffa491" opacity="0.69"/>
        <path id="Polygon_2" data-name="Polygon 2" d="M37.018,35.056a23,23,0,0,1,39.964,0L94.4,65.61A23,23,0,0,1,74.416,100H39.584A23,23,0,0,1,19.6,65.61Z" transform="matrix(0.208, -0.978, 0.978, 0.208, 1228.242, 982.359)" fill="#ffa491" opacity="0.74"/>
        <g id="Group_86" data-name="Group 86">
          <circle id="Ellipse_80" data-name="Ellipse 80" cx="6" cy="6" r="6" transform="translate(1747 665)" fill="#b6dafd"/>
          <ellipse id="Ellipse_80-2" data-name="Ellipse 80" cx="5.5" cy="6" rx="5.5" ry="6" transform="translate(1762 665)" fill="#b6dafd"/>
          <circle id="Ellipse_80-3" data-name="Ellipse 80" cx="6" cy="6" r="6" transform="translate(1776 665)" fill="#b6dafd"/>
          <circle id="Ellipse_80-4" data-name="Ellipse 80" cx="6" cy="6" r="6" transform="translate(1791 665)" fill="#b6dafd"/>
          <circle id="Ellipse_80-5" data-name="Ellipse 80" cx="6" cy="6" r="6" transform="translate(1806 665)" fill="#b6dafd"/>
          <ellipse id="Ellipse_80-6" data-name="Ellipse 80" cx="5.5" cy="6" rx="5.5" ry="6" transform="translate(1821 665)" fill="#b6dafd"/>
          <circle id="Ellipse_80-7" data-name="Ellipse 80" cx="6" cy="6" r="6" transform="translate(1835 665)" fill="#b6dafd"/>
          <ellipse id="Ellipse_80-8" data-name="Ellipse 80" cx="6" cy="5.5" rx="6" ry="5.5" transform="translate(1747 681)" fill="#b6dafd"/>
          <circle id="Ellipse_80-9" data-name="Ellipse 80" cx="5.5" cy="5.5" r="5.5" transform="translate(1762 681)" fill="#b6dafd"/>
          <ellipse id="Ellipse_80-10" data-name="Ellipse 80" cx="6" cy="5.5" rx="6" ry="5.5" transform="translate(1776 681)" fill="#b6dafd"/>
          <ellipse id="Ellipse_80-11" data-name="Ellipse 80" cx="6" cy="5.5" rx="6" ry="5.5" transform="translate(1791 681)" fill="#b6dafd"/>
          <ellipse id="Ellipse_80-12" data-name="Ellipse 80" cx="6" cy="5.5" rx="6" ry="5.5" transform="translate(1806 681)" fill="#b6dafd"/>
          <circle id="Ellipse_80-13" data-name="Ellipse 80" cx="5.5" cy="5.5" r="5.5" transform="translate(1821 681)" fill="#b6dafd"/>
          <ellipse id="Ellipse_80-14" data-name="Ellipse 80" cx="6" cy="5.5" rx="6" ry="5.5" transform="translate(1835 681)" fill="#b6dafd"/>
          <circle id="Ellipse_80-15" data-name="Ellipse 80" cx="6" cy="6" r="6" transform="translate(1747 696)" fill="#b6dafd"/>
          <ellipse id="Ellipse_80-16" data-name="Ellipse 80" cx="5.5" cy="6" rx="5.5" ry="6" transform="translate(1762 696)" fill="#b6dafd"/>
          <circle id="Ellipse_80-17" data-name="Ellipse 80" cx="6" cy="6" r="6" transform="translate(1776 696)" fill="#b6dafd"/>
          <circle id="Ellipse_80-18" data-name="Ellipse 80" cx="6" cy="6" r="6" transform="translate(1791 696)" fill="#b6dafd"/>
          <circle id="Ellipse_80-19" data-name="Ellipse 80" cx="6" cy="6" r="6" transform="translate(1806 696)" fill="#b6dafd"/>
          <ellipse id="Ellipse_80-20" data-name="Ellipse 80" cx="5.5" cy="6" rx="5.5" ry="6" transform="translate(1821 696)" fill="#b6dafd"/>
          <circle id="Ellipse_80-21" data-name="Ellipse 80" cx="6" cy="6" r="6" transform="translate(1835 696)" fill="#b6dafd"/>
          <ellipse id="Ellipse_80-22" data-name="Ellipse 80" cx="6" cy="5.5" rx="6" ry="5.5" transform="translate(1747 712)" fill="#b6dafd"/>
          <circle id="Ellipse_80-23" data-name="Ellipse 80" cx="5.5" cy="5.5" r="5.5" transform="translate(1762 712)" fill="#b6dafd"/>
          <ellipse id="Ellipse_80-24" data-name="Ellipse 80" cx="6" cy="5.5" rx="6" ry="5.5" transform="translate(1776 712)" fill="#b6dafd"/>
          <ellipse id="Ellipse_80-25" data-name="Ellipse 80" cx="6" cy="5.5" rx="6" ry="5.5" transform="translate(1791 712)" fill="#b6dafd"/>
          <ellipse id="Ellipse_80-26" data-name="Ellipse 80" cx="6" cy="5.5" rx="6" ry="5.5" transform="translate(1806 712)" fill="#b6dafd"/>
          <circle id="Ellipse_80-27" data-name="Ellipse 80" cx="5.5" cy="5.5" r="5.5" transform="translate(1821 712)" fill="#b6dafd"/>
          <ellipse id="Ellipse_80-28" data-name="Ellipse 80" cx="6" cy="5.5" rx="6" ry="5.5" transform="translate(1835 712)" fill="#b6dafd"/>
          <circle id="Ellipse_80-29" data-name="Ellipse 80" cx="6" cy="6" r="6" transform="translate(1747 727)" fill="#b6dafd"/>
          <ellipse id="Ellipse_80-30" data-name="Ellipse 80" cx="5.5" cy="6" rx="5.5" ry="6" transform="translate(1762 727)" fill="#b6dafd"/>
          <circle id="Ellipse_80-31" data-name="Ellipse 80" cx="6" cy="6" r="6" transform="translate(1776 727)" fill="#b6dafd"/>
          <circle id="Ellipse_80-32" data-name="Ellipse 80" cx="6" cy="6" r="6" transform="translate(1791 727)" fill="#b6dafd"/>
          <circle id="Ellipse_80-33" data-name="Ellipse 80" cx="6" cy="6" r="6" transform="translate(1806 727)" fill="#b6dafd"/>
          <ellipse id="Ellipse_80-34" data-name="Ellipse 80" cx="5.5" cy="6" rx="5.5" ry="6" transform="translate(1821 727)" fill="#b6dafd"/>
          <circle id="Ellipse_80-35" data-name="Ellipse 80" cx="6" cy="6" r="6" transform="translate(1835 727)" fill="#b6dafd"/>
        </g>
      </g>
    </g>
    <g id="Ellipse_96" data-name="Ellipse 96" transform="translate(1408 301)" fill="none" stroke="#6e654c" stroke-width="1">
      <circle cx="11" cy="11" r="11" stroke="none"/>
      <circle cx="11" cy="11" r="10.5" fill="none"/>
    </g>
    <g id="Ellipse_97" data-name="Ellipse 97" transform="translate(1377 301)" fill="none" stroke="#6e654c" stroke-width="1">
      <circle cx="11" cy="11" r="11" stroke="none"/>
      <circle cx="11" cy="11" r="10.5" fill="none"/>
    </g>
    <path id="Path_436" data-name="Path 436" d="M13339,312s5.181-5.342,9.415,0" transform="translate(-11940)" fill="none" stroke="#6e654c" stroke-width="1"/>
    <path id="Path_437" data-name="Path 437" d="M13344.923,315.349s.25,7.971,2.242,9.839-3.238,3.487-5.6.623" transform="translate(-11940)" fill="none" stroke="#707070" stroke-width="1"/>
    <path id="Path_438" data-name="Path 438" d="M13335.326,331.808s5.965,2.417,10.27,0-3.246,8.46-7.93,4.08S13335.326,331.808,13335.326,331.808Z" transform="translate(-11937.061 -0.219)" fill="#fff"/>
    <rect id="Rectangle_143" data-name="Rectangle 143" width="3" height="5" rx="1.5" transform="translate(1415 312)" fill="#707070"/>
    <rect id="Rectangle_144" data-name="Rectangle 144" width="3" height="5" rx="1.5" transform="translate(1391 312)" fill="#707070"/>
  </g>
</svg>
