<svg xmlns="http://www.w3.org/2000/svg" xmlns:xlink="http://www.w3.org/1999/xlink" width="1122.758" height="768.346" viewBox="0 0 1122.758 768.346">
  <defs>
    <linearGradient id="linear-gradient" x1="0.392" y1="0.649" x2="1.101" y2="-0.347" gradientUnits="objectBoundingBox">
      <stop offset="0" stop-color="#e8f4fd"/>
      <stop offset="0.573" stop-color="#4badfe"/>
      <stop offset="1" stop-color="#1a4fe1"/>
    </linearGradient>
    <linearGradient id="linear-gradient-2" x1="0.5" y1="1" x2="0.5" gradientUnits="objectBoundingBox">
      <stop offset="0" stop-color="gray" stop-opacity="0.251"/>
      <stop offset="0.54" stop-color="gray" stop-opacity="0.122"/>
      <stop offset="1" stop-color="gray" stop-opacity="0.102"/>
    </linearGradient>
    <linearGradient id="linear-gradient-3" x1="0.5" x2="0.5" y2="0" xlink:href="#linear-gradient-2"/>
    <linearGradient id="linear-gradient-4" x1="0.5" x2="0.5" y2="0" xlink:href="#linear-gradient-2"/>
    <linearGradient id="linear-gradient-5" x1="1.096" x2="1.096" y2="0" xlink:href="#linear-gradient-2"/>
  </defs>
  <g id="Group_231" data-name="Group 231" transform="translate(23 -194.041)">
    <g id="Group_227" data-name="Group 227">
      <path id="Path_422" data-name="Path 422" d="M10466.023-743.285s362.308-16.577,357.575,345.733-341,385.99-395.46,322.053-35.517-165.763-125.5-184.707-310.206,2.369-267.588-170.5,206.021-300.741,381.251-312.581S10644.871-629,10644.871-629L10626.2-430.7,10562.453-589Z" transform="translate(-9881.832 938.111)" fill="url(#linear-gradient)"/>
      <circle id="Ellipse_78" data-name="Ellipse 78" cx="36" cy="36" r="36" transform="translate(143 238)" fill="#ffa491" opacity="0.69"/>
      <path id="Polygon_2" data-name="Polygon 2" d="M37.018,35.056a23,23,0,0,1,39.964,0L94.4,65.61A23,23,0,0,1,74.416,100H39.584A23,23,0,0,1,19.6,65.61Z" transform="matrix(0.208, -0.978, 0.978, 0.208, 978.242, 924.359)" fill="#ffa491" opacity="0.7"/>
      <g id="Group_86" data-name="Group 86" transform="translate(-1770 -24)">
        <circle id="Ellipse_80" data-name="Ellipse 80" cx="6" cy="6" r="6" transform="translate(1747 665)" fill="#b6dafd"/>
        <ellipse id="Ellipse_80-2" data-name="Ellipse 80" cx="5.5" cy="6" rx="5.5" ry="6" transform="translate(1762 665)" fill="#b6dafd"/>
        <circle id="Ellipse_80-3" data-name="Ellipse 80" cx="6" cy="6" r="6" transform="translate(1776 665)" fill="#b6dafd"/>
        <circle id="Ellipse_80-4" data-name="Ellipse 80" cx="6" cy="6" r="6" transform="translate(1791 665)" fill="#b6dafd"/>
        <circle id="Ellipse_80-5" data-name="Ellipse 80" cx="6" cy="6" r="6" transform="translate(1806 665)" fill="#b6dafd"/>
        <ellipse id="Ellipse_80-6" data-name="Ellipse 80" cx="5.5" cy="6" rx="5.5" ry="6" transform="translate(1821 665)" fill="#b6dafd"/>
        <circle id="Ellipse_80-7" data-name="Ellipse 80" cx="6" cy="6" r="6" transform="translate(1835 665)" fill="#b6dafd"/>
        <ellipse id="Ellipse_80-8" data-name="Ellipse 80" cx="6" cy="5.5" rx="6" ry="5.5" transform="translate(1747 681)" fill="#b6dafd"/>
        <circle id="Ellipse_80-9" data-name="Ellipse 80" cx="5.5" cy="5.5" r="5.5" transform="translate(1762 681)" fill="#b6dafd"/>
        <ellipse id="Ellipse_80-10" data-name="Ellipse 80" cx="6" cy="5.5" rx="6" ry="5.5" transform="translate(1776 681)" fill="#b6dafd"/>
        <ellipse id="Ellipse_80-11" data-name="Ellipse 80" cx="6" cy="5.5" rx="6" ry="5.5" transform="translate(1791 681)" fill="#b6dafd"/>
        <ellipse id="Ellipse_80-12" data-name="Ellipse 80" cx="6" cy="5.5" rx="6" ry="5.5" transform="translate(1806 681)" fill="#b6dafd"/>
        <circle id="Ellipse_80-13" data-name="Ellipse 80" cx="5.5" cy="5.5" r="5.5" transform="translate(1821 681)" fill="#b6dafd"/>
        <ellipse id="Ellipse_80-14" data-name="Ellipse 80" cx="6" cy="5.5" rx="6" ry="5.5" transform="translate(1835 681)" fill="#b6dafd"/>
        <circle id="Ellipse_80-15" data-name="Ellipse 80" cx="6" cy="6" r="6" transform="translate(1747 696)" fill="#b6dafd"/>
        <ellipse id="Ellipse_80-16" data-name="Ellipse 80" cx="5.5" cy="6" rx="5.5" ry="6" transform="translate(1762 696)" fill="#b6dafd"/>
        <circle id="Ellipse_80-17" data-name="Ellipse 80" cx="6" cy="6" r="6" transform="translate(1776 696)" fill="#b6dafd"/>
        <circle id="Ellipse_80-18" data-name="Ellipse 80" cx="6" cy="6" r="6" transform="translate(1791 696)" fill="#b6dafd"/>
        <circle id="Ellipse_80-19" data-name="Ellipse 80" cx="6" cy="6" r="6" transform="translate(1806 696)" fill="#b6dafd"/>
        <ellipse id="Ellipse_80-20" data-name="Ellipse 80" cx="5.5" cy="6" rx="5.5" ry="6" transform="translate(1821 696)" fill="#b6dafd"/>
        <circle id="Ellipse_80-21" data-name="Ellipse 80" cx="6" cy="6" r="6" transform="translate(1835 696)" fill="#b6dafd"/>
        <ellipse id="Ellipse_80-22" data-name="Ellipse 80" cx="6" cy="5.5" rx="6" ry="5.5" transform="translate(1747 712)" fill="#b6dafd"/>
        <circle id="Ellipse_80-23" data-name="Ellipse 80" cx="5.5" cy="5.5" r="5.5" transform="translate(1762 712)" fill="#b6dafd"/>
        <ellipse id="Ellipse_80-24" data-name="Ellipse 80" cx="6" cy="5.5" rx="6" ry="5.5" transform="translate(1776 712)" fill="#b6dafd"/>
        <ellipse id="Ellipse_80-25" data-name="Ellipse 80" cx="6" cy="5.5" rx="6" ry="5.5" transform="translate(1791 712)" fill="#b6dafd"/>
        <ellipse id="Ellipse_80-26" data-name="Ellipse 80" cx="6" cy="5.5" rx="6" ry="5.5" transform="translate(1806 712)" fill="#b6dafd"/>
        <circle id="Ellipse_80-27" data-name="Ellipse 80" cx="5.5" cy="5.5" r="5.5" transform="translate(1821 712)" fill="#b6dafd"/>
        <ellipse id="Ellipse_80-28" data-name="Ellipse 80" cx="6" cy="5.5" rx="6" ry="5.5" transform="translate(1835 712)" fill="#b6dafd"/>
        <circle id="Ellipse_80-29" data-name="Ellipse 80" cx="6" cy="6" r="6" transform="translate(1747 727)" fill="#b6dafd"/>
        <ellipse id="Ellipse_80-30" data-name="Ellipse 80" cx="5.5" cy="6" rx="5.5" ry="6" transform="translate(1762 727)" fill="#b6dafd"/>
        <circle id="Ellipse_80-31" data-name="Ellipse 80" cx="6" cy="6" r="6" transform="translate(1776 727)" fill="#b6dafd"/>
        <circle id="Ellipse_80-32" data-name="Ellipse 80" cx="6" cy="6" r="6" transform="translate(1791 727)" fill="#b6dafd"/>
        <circle id="Ellipse_80-33" data-name="Ellipse 80" cx="6" cy="6" r="6" transform="translate(1806 727)" fill="#b6dafd"/>
        <ellipse id="Ellipse_80-34" data-name="Ellipse 80" cx="5.5" cy="6" rx="5.5" ry="6" transform="translate(1821 727)" fill="#b6dafd"/>
        <circle id="Ellipse_80-35" data-name="Ellipse 80" cx="6" cy="6" r="6" transform="translate(1835 727)" fill="#b6dafd"/>
      </g>
      <g id="Group_100" data-name="Group 100" transform="translate(-1770 54)">
        <circle id="Ellipse_80-36" data-name="Ellipse 80" cx="6" cy="6" r="6" transform="translate(1747 665)" fill="#b6dafd"/>
        <ellipse id="Ellipse_80-37" data-name="Ellipse 80" cx="5.5" cy="6" rx="5.5" ry="6" transform="translate(1762 665)" fill="#b6dafd"/>
        <circle id="Ellipse_80-38" data-name="Ellipse 80" cx="6" cy="6" r="6" transform="translate(1776 665)" fill="#b6dafd"/>
        <circle id="Ellipse_80-39" data-name="Ellipse 80" cx="6" cy="6" r="6" transform="translate(1791 665)" fill="#b6dafd"/>
        <circle id="Ellipse_80-40" data-name="Ellipse 80" cx="6" cy="6" r="6" transform="translate(1806 665)" fill="#b6dafd"/>
        <ellipse id="Ellipse_80-41" data-name="Ellipse 80" cx="5.5" cy="6" rx="5.5" ry="6" transform="translate(1821 665)" fill="#b6dafd"/>
        <circle id="Ellipse_80-42" data-name="Ellipse 80" cx="6" cy="6" r="6" transform="translate(1835 665)" fill="#b6dafd"/>
        <ellipse id="Ellipse_80-43" data-name="Ellipse 80" cx="6" cy="5.5" rx="6" ry="5.5" transform="translate(1747 681)" fill="#b6dafd"/>
        <circle id="Ellipse_80-44" data-name="Ellipse 80" cx="5.5" cy="5.5" r="5.5" transform="translate(1762 681)" fill="#b6dafd"/>
        <ellipse id="Ellipse_80-45" data-name="Ellipse 80" cx="6" cy="5.5" rx="6" ry="5.5" transform="translate(1776 681)" fill="#b6dafd"/>
        <ellipse id="Ellipse_80-46" data-name="Ellipse 80" cx="6" cy="5.5" rx="6" ry="5.5" transform="translate(1791 681)" fill="#b6dafd"/>
        <ellipse id="Ellipse_80-47" data-name="Ellipse 80" cx="6" cy="5.5" rx="6" ry="5.5" transform="translate(1806 681)" fill="#b6dafd"/>
        <circle id="Ellipse_80-48" data-name="Ellipse 80" cx="5.5" cy="5.5" r="5.5" transform="translate(1821 681)" fill="#b6dafd"/>
        <ellipse id="Ellipse_80-49" data-name="Ellipse 80" cx="6" cy="5.5" rx="6" ry="5.5" transform="translate(1835 681)" fill="#b6dafd"/>
        <circle id="Ellipse_80-50" data-name="Ellipse 80" cx="6" cy="6" r="6" transform="translate(1747 696)" fill="#b6dafd"/>
        <ellipse id="Ellipse_80-51" data-name="Ellipse 80" cx="5.5" cy="6" rx="5.5" ry="6" transform="translate(1762 696)" fill="#b6dafd"/>
        <circle id="Ellipse_80-52" data-name="Ellipse 80" cx="6" cy="6" r="6" transform="translate(1776 696)" fill="#b6dafd"/>
        <circle id="Ellipse_80-53" data-name="Ellipse 80" cx="6" cy="6" r="6" transform="translate(1791 696)" fill="#b6dafd"/>
        <circle id="Ellipse_80-54" data-name="Ellipse 80" cx="6" cy="6" r="6" transform="translate(1806 696)" fill="#b6dafd"/>
        <ellipse id="Ellipse_80-55" data-name="Ellipse 80" cx="5.5" cy="6" rx="5.5" ry="6" transform="translate(1821 696)" fill="#b6dafd"/>
        <circle id="Ellipse_80-56" data-name="Ellipse 80" cx="6" cy="6" r="6" transform="translate(1835 696)" fill="#b6dafd"/>
        <ellipse id="Ellipse_80-57" data-name="Ellipse 80" cx="6" cy="5.5" rx="6" ry="5.5" transform="translate(1747 712)" fill="#b6dafd"/>
        <circle id="Ellipse_80-58" data-name="Ellipse 80" cx="5.5" cy="5.5" r="5.5" transform="translate(1762 712)" fill="#b6dafd"/>
        <ellipse id="Ellipse_80-59" data-name="Ellipse 80" cx="6" cy="5.5" rx="6" ry="5.5" transform="translate(1776 712)" fill="#b6dafd"/>
        <ellipse id="Ellipse_80-60" data-name="Ellipse 80" cx="6" cy="5.5" rx="6" ry="5.5" transform="translate(1791 712)" fill="#b6dafd"/>
        <ellipse id="Ellipse_80-61" data-name="Ellipse 80" cx="6" cy="5.5" rx="6" ry="5.5" transform="translate(1806 712)" fill="#b6dafd"/>
        <circle id="Ellipse_80-62" data-name="Ellipse 80" cx="5.5" cy="5.5" r="5.5" transform="translate(1821 712)" fill="#b6dafd"/>
        <ellipse id="Ellipse_80-63" data-name="Ellipse 80" cx="6" cy="5.5" rx="6" ry="5.5" transform="translate(1835 712)" fill="#b6dafd"/>
        <circle id="Ellipse_80-64" data-name="Ellipse 80" cx="6" cy="6" r="6" transform="translate(1747 727)" fill="#b6dafd"/>
        <ellipse id="Ellipse_80-65" data-name="Ellipse 80" cx="5.5" cy="6" rx="5.5" ry="6" transform="translate(1762 727)" fill="#b6dafd"/>
        <circle id="Ellipse_80-66" data-name="Ellipse 80" cx="6" cy="6" r="6" transform="translate(1776 727)" fill="#b6dafd"/>
        <circle id="Ellipse_80-67" data-name="Ellipse 80" cx="6" cy="6" r="6" transform="translate(1791 727)" fill="#b6dafd"/>
        <circle id="Ellipse_80-68" data-name="Ellipse 80" cx="6" cy="6" r="6" transform="translate(1806 727)" fill="#b6dafd"/>
        <ellipse id="Ellipse_80-69" data-name="Ellipse 80" cx="5.5" cy="6" rx="5.5" ry="6" transform="translate(1821 727)" fill="#b6dafd"/>
        <circle id="Ellipse_80-70" data-name="Ellipse 80" cx="6" cy="6" r="6" transform="translate(1835 727)" fill="#b6dafd"/>
      </g>
      <g id="Group_99" data-name="Group 99" transform="translate(47.347 228.325)">
        <ellipse id="Ellipse_99" data-name="Ellipse 99" cx="66.506" cy="14.931" rx="66.506" ry="14.931" transform="translate(539.174 661.862)" fill="#6c63ff" opacity="0.1"/>
        <ellipse id="Ellipse_100" data-name="Ellipse 100" cx="119.981" cy="9.848" rx="119.981" ry="9.848" transform="translate(640.237 714.365)" fill="#6c63ff" opacity="0.1"/>
        <ellipse id="Ellipse_101" data-name="Ellipse 101" cx="119.981" cy="14.931" rx="119.981" ry="14.931" transform="translate(158.5 694.351)" fill="#6c63ff" opacity="0.1"/>
        <ellipse id="Ellipse_102" data-name="Ellipse 102" cx="90.278" cy="14.931" rx="90.278" ry="14.931" transform="translate(371.137 619.605)" fill="#6c63ff" opacity="0.1"/>
        <path id="Path_460" data-name="Path 460" d="M585.767,299.462c-1.91-12.854-13.588-42.849-13.588-42.849h0q-.3-1.326-.69-2.652c-8.283-28.466-19.749-30.941-19.749-30.941l-41.072-8.84a3.183,3.183,0,0,1,.884.822,5.7,5.7,0,0,0-.645.1,16.089,16.089,0,0,1-3.6-7.78c-.08-.424-.15-.884-.2-1.317a28.89,28.89,0,0,0-2.352-43.433c-.433-.336-.884-.663-1.317-.972,1.936-2.06,2-4.924.548-7.788-3.236-6.719-10.272-10.971-17.5-13.048-5.525-1.582-11.492-2.1-16.991-.362a61.382,61.382,0,0,0-8.893,4.128c-5.455,2.723-11.492,4.88-15.568,9.362-.955,1.043-1.839,2.378-1.556,3.757a10.14,10.14,0,0,0,1.547,2.732c1.176,2.042.884,4.615.08,6.842s-1.98,4.3-2.537,6.577-.345,4.968,1.37,6.6a29.1,29.1,0,0,0,2.564,1.768,13.445,13.445,0,0,1,2.449,2.749q2.44,3.271,4.862,6.568a67.667,67.667,0,0,1,6.091,9.256c1.211,2.387,2.148,4.933,3.766,7.072a10.485,10.485,0,0,0,1.618,1.7l-.477-.186a7.364,7.364,0,0,0,5.4,2.2h.247a1.485,1.485,0,0,0,.99-.407V212c.1,3.156.08,6.515-.141,9.671l-.38-.194a3.315,3.315,0,0,0-3.536.371l-37.81,30.34s-8.221,11.245-7.072,30.658l-6.63,29.111s-8.283,24.7-1.91,42.336,10.069,27.723,10.069,27.723,2.546,20.041,6.374,21.677,5.481,2.52,5.481,2.52l.76,4.791h0s.256.469.707,1.255c2.785,4.845,13.1,21.942,19.1,20.112a76.64,76.64,0,0,1,.972,14.047l5.932,39.826s4.137,10.829,3.881,16.5,4.827,13.764,4.827,13.764a26.3,26.3,0,0,0-2.546,18.521c2.422,10.608,5.481,59.478,5.481,59.478l4.42,11.846-.124,13.888a13.26,13.26,0,0,1-2.74,6.188c-2.864,3.112-2.652,6.71-9.556,10.962s-11.28,5.861-11.28,11.492a14.784,14.784,0,0,1-.212,2.343c-.637,4.137-1.874,6.383,10.821,7.585,14.914,1.414,24.859-8.31,24.859-8.31s2.192-3.978,12.518-5.587c0,0,3.536-.186,3.722-3.306.071-1.078.053-3.138,0-5.41-.168-4.323-.583-9.371-1.132-9.618-.69-.309-1.892-4.659-2.307-6.232h2.873s2.652-20.041,0-33.019-.256-22.18-.256-22.18l-.513-34.274s-3.536-3.784-.76-10.467,0-39.693,0-39.693,1.026-11.846,3.952-14.622.141-17.354,0-18.114l5.216,17.5s2.29,34.778,7.143,41.072l1.4,15.754s9.937,14.5,8.027,22.3,2.042,36.042,2.042,36.042V609.52s-4.464,11.59,1.768,15.753l2.652-.106c-.884.822-1.565,2.06-2.6,3.13-1.193,1.229-1.874,5.905-2.254,9.928-.318,3.4-.424,6.33-.424,6.33a10.423,10.423,0,0,0,7.647,4.535c4.995.292,21.455,12.81,21.455,12.81s16.257,0,20.465-.884l.248-.062a5.525,5.525,0,0,0,3.174-2.59A6.63,6.63,0,0,0,586,653.6c-.522-2.484-2.493-5.207-6.86-7.523-10.865-5.729-12.483-11.095-12.483-11.095l-7.134-10.706h1.017s-.628-11.342,7.134-24.072l-.5-56.074s3.182-19.281-2.29-29.748c0,0-.451-11.086,3.209-14.489s-4.871-37.8-4.871-37.8-1.768-18.467-3.846-35.317h0c8.6,8.16,17.522-21.217,19.024-26.442h.221l-.1-.38c.062-.248.1-.371.1-.371h0s-1.909-6.789-.513-5.41,4.844-3.784,4.844-3.784-.513-28.1,5.481-42.266S585.767,299.462,585.767,299.462ZM560.13,317.346l.044-.08c.884,17.159-.168,53.776-.168,53.776s-1.185,4.694-2.449,10.219l-.884-34.787h0L555.79,313.7ZM450.413,305.518s4.332,54.183,0,62c-1.229,2.228-2.263,6.188-3.121,10.706-1.432-3.757-4.464-12.58-3.377-17.256,1.406-6.047-2.8-21.933-2.8-22.3s-.38-8.84,2.652-15.311,1.043-9.274,1.043-9.274S447.354,303.467,450.413,305.518Z" transform="translate(-56.892 -20.14)" fill="url(#linear-gradient-2)"/>
        <path id="Path_461" data-name="Path 461" d="M464.447,461.828c-3.775,16.593-18.786-8.5-22.207-14.516-.442-.787-.69-1.246-.69-1.246l1.627-7.629,8.6-3.536a24.027,24.027,0,0,1,3.854,2.511C460.345,441.115,467.355,448.974,464.447,461.828Z" transform="translate(-60.37 -54.417)" fill="#d38884"/>
        <path id="Path_462" data-name="Path 462" d="M595.935,434.092a1.159,1.159,0,0,1-.1.371,1.88,1.88,0,0,1-.115.4c-1.476,5.18-10.228,34.345-18.68,26.247-9.247-8.84-4.756-29.279-4.756-29.279h.062L591.8,429.84l3.854,3.96h0Z" transform="translate(-75.405 -53.831)" fill="#d38884"/>
        <path id="Path_463" data-name="Path 463" d="M570.845,577.91l.5,55.694c-7.629,12.642-7,23.869-7,23.869l-25.142.99c-6.135-4.128-1.768-15.63-1.768-15.63V614.155s-3.881-28.015-2.007-35.777-7.877-22.1-7.877-22.1l-1.379-15.639c-4.756-6.25-7.01-40.772-7.01-40.772l-5.1-17.433c.141.751,2.794,15.3,0,17.981s-3.881,14.507-3.881,14.507,2.749,32.78,0,39.4.743,10.387.743,10.387l.5,34.026s-2.378,9.132.248,22.013,0,32.78,0,32.78H484.7l.124-13.888-4.367-11.758s-3.006-48.534-5.384-59.045a26.38,26.38,0,0,1,2.493-18.388s-4.995-8-4.747-13.632-3.854-16.372-3.854-16.372l-5.817-39.525a76.786,76.786,0,0,0-2.882-22.516c-3.377-11.263-8.381-26.026-8.381-26.026l5.649.5,28.5,2.537s69.3-4.659,72.4-.787a13,13,0,0,1,1.308,4.04c3.112,13.977,7.223,57.763,7.223,57.763s8.381,34.15,4.783,37.527-3.156,14.374-3.156,14.374C573.983,558.726,570.845,577.91,570.845,577.91Z" transform="translate(-61.568 -54.125)" fill="#5895ff"/>
        <path id="Path_464" data-name="Path 464" d="M513.45,702.955c-.194,3.1-3.651,3.289-3.651,3.289-10.131,1.591-12.288,5.534-12.288,5.534s-9.724,9.662-24.391,8.257c-12.465-1.2-11.254-3.421-10.608-7.532a15.579,15.579,0,0,0,.2-2.316c0-5.631,4.314-7.231,11.068-11.492s6.568-7.788,9.38-10.882,3.1-9.1,3.1-9.1c3.183-5.543,11.254.884,11.254.884.38,1.963,12.377,1.688,12.377,1.688s1.591,6.383,2.413,6.754c.539.248.946,5.251,1.105,9.548C513.5,699.843,513.521,701.885,513.45,702.955Z" transform="translate(-62.758 -82.43)" fill="#b07473"/>
        <path id="Path_465" data-name="Path 465" d="M513.45,705.728c-.194,3.1-3.651,3.289-3.651,3.289-10.131,1.591-12.288,5.534-12.288,5.534s-9.724,9.662-24.391,8.257c-12.465-1.2-11.254-3.421-10.608-7.532,5.569,1.379,16.213,3.306,22.428-.071,8.637-4.685,14.834-7.956,14.834-7.956l13.65-6.869C513.5,702.617,513.521,704.659,513.45,705.728Z" transform="translate(-62.758 -85.204)" opacity="0.1"/>
        <path id="Path_466" data-name="Path 466" d="M599.735,720.124a5.393,5.393,0,0,1-3.112,2.573l-.239.062c-4.128.884-20.085.884-20.085.884s-16.134-12.474-21.014-12.757-7.505-4.509-7.505-4.509.1-2.9.407-6.277c.38-4,1.043-8.637,2.219-9.857,2.157-2.254,2.652-5.3,7.505-3.377,0,0,6.931-12.217,15.1-2.776l8.451,12.819s1.591,5.3,12.3,11.059c4.279,2.3,6.188,5,6.728,7.47A6.587,6.587,0,0,1,599.735,720.124Z" transform="translate(-72.689 -82.899)" fill="#b07473"/>
        <path id="Path_467" data-name="Path 467" d="M599.735,722.693c-.955.8-2.007,1.671-3.112,2.573l-.239.062c-4.128.884-20.085.884-20.085.884s-16.134-12.474-21.014-12.757-7.505-4.509-7.505-4.509.1-2.9.407-6.277c4.968,1.485,12.491,4.111,14.507,6.94,3.094,4.305,12.491,10.317,12.491,10.317s17.522-1.688,25.3-1.918A6.587,6.587,0,0,1,599.735,722.693Z" transform="translate(-72.689 -85.469)" opacity="0.1"/>
        <path id="Path_468" data-name="Path 468" d="M523.29,227.681l-23.073,24.391s-27.962-2.06-23.082-10.317c2.484-4.208,2.873-13.013,2.652-20.669-.2-7.382-.964-13.667-.964-13.667s39.216-19.52,36.245-1.317a29.959,29.959,0,0,0-.106,10.387C516.634,225.683,523.29,227.681,523.29,227.681Z" transform="translate(-64.43 -26.985)" fill="#d38884"/>
        <path id="Path_469" data-name="Path 469" d="M515.33,206.1a29.959,29.959,0,0,0-.106,10.387,28.784,28.784,0,0,1-20.527,8.566c-5.3,0-11.042-4.358-15.329-6.878-.2-7.391-.248-10.759-.248-10.759S518.336,187.9,515.33,206.1Z" transform="translate(-64.727 -26.985)" opacity="0.1"/>
        <path id="Path_470" data-name="Path 470" d="M521.838,190.38A28.9,28.9,0,1,1,510.964,167.8,28.9,28.9,0,0,1,521.838,190.38Z" transform="translate(-62.978 -22.712)" fill="#d38884"/>
        <path id="Path_471" data-name="Path 471" d="M560.315,438.738c-7.2,17.124-53.484,17.477-53.484,17.477V437.545l-2.8-.186c1.211,5.348-1.7,18.388-1.7,18.388-36.581,5.163-45.5-15.683-45.5-15.683l1.273-7.134,28.5,2.537s69.3-4.659,72.4-.787a13.006,13.006,0,0,1,1.308,4.058Z" transform="translate(-62.142 -54.189)" opacity="0.1"/>
        <path id="Path_472" data-name="Path 472" d="M506.831,430.148V411.477l-2.8-.177c1.211,5.3-1.7,18.388-1.7,18.388-27.529,3.881-39.393-6.957-43.574-12.562a17.106,17.106,0,0,1-1.927-3.112L468,351.159l2.652-92.505,4-16.231.928-7.788v-.088h.1l2.847,1.22,17.035,7.364,19.352-14.613.283-.2.964-.734,1.6,1.282,3.978,3.191L534.5,314.436s22.1,63.43,26.238,89.031c.168,1.025.3,1.98.407,2.873C563.878,429.715,506.831,430.148,506.831,430.148Z" transform="translate(-62.142 -30.376)" fill="#ff7b60"/>
        <circle id="Ellipse_104" data-name="Ellipse 104" cx="1.644" cy="1.644" r="1.644" transform="translate(433.851 212.931)" fill="#67647e"/>
        <circle id="Ellipse_105" data-name="Ellipse 105" cx="1.644" cy="1.644" r="1.644" transform="translate(434.611 227.942)" fill="#67647e"/>
        <circle id="Ellipse_106" data-name="Ellipse 106" cx="1.644" cy="1.644" r="1.644" transform="translate(436.255 252.244)" fill="#67647e"/>
        <circle id="Ellipse_107" data-name="Ellipse 107" cx="1.644" cy="1.644" r="1.644" transform="translate(438.969 278.421)" fill="#67647e"/>
        <circle id="Ellipse_108" data-name="Ellipse 108" cx="1.644" cy="1.644" r="1.644" transform="translate(440.613 302.997)" fill="#67647e"/>
        <circle id="Ellipse_109" data-name="Ellipse 109" cx="1.644" cy="1.644" r="1.644" transform="translate(442.258 329.173)" fill="#0051dc"/>
        <circle id="Ellipse_110" data-name="Ellipse 110" cx="1.644" cy="1.644" r="1.644" transform="translate(441.604 355.067)" fill="#67647e"/>
        <path id="Path_473" data-name="Path 473" d="M476.684,361.18s-1.839,24.072-5.216,31.074-4.88,26.645-4.88,26.645l-7.841-.884a17.108,17.108,0,0,1-1.927-3.112l11.174-62.855,2.652-92.505,4.013-16.24.928-7.788.106-.044a3.165,3.165,0,0,1,2.794.044l.371.194q-.168.477-.318.981c-3.059,9.574-4.2,27.219-4.2,27.219s4.42,32.276,4.88,47.287S476.684,361.18,476.684,361.18Z" transform="translate(-62.141 -31.255)" opacity="0.1"/>
        <path id="Path_474" data-name="Path 474" d="M455.633,437.437a4.531,4.531,0,0,1-.3.583c-3.041,5.136-10.75,8.4-13.093,9.291-.442-.787-.69-1.246-.69-1.246l1.627-7.629,8.6-3.536a24.03,24.03,0,0,1,3.854,2.537Z" transform="translate(-60.37 -54.417)" opacity="0.1"/>
        <path id="Path_475" data-name="Path 475" d="M431.565,298.81l-7.134,4.252-6.5,28.9s-8.133,24.514-1.883,42.027,9.884,27.538,9.884,27.538,2.5,19.891,6.259,21.517,5.375,2.5,5.375,2.5l.751,4.756s10.184-3.457,13.782-9.548-2.652-21.217-2.652-21.217-5.375-12.889-4-18.892-2.758-21.765-2.758-22.1-.371-8.761,2.652-15.205,1.008-9.194,1.008-9.194l-1.883-18.388Z" transform="translate(-57.139 -38.636)" fill="#5895ff"/>
        <path id="Path_476" data-name="Path 476" d="M568.467,409.6s-18.892,7.125-24.894.884-5.384-35.529-5.384-35.529-5.746-54.041-9.38-62.917-1.768-72.933-1.768-72.933-2.44-8.283-4.57-10.449a2.316,2.316,0,0,0-.451-.362l.734.159,2.564.548,3.978,3.191,12.757,82.383S564.153,378,568.29,403.6Z" transform="translate(-69.702 -30.458)" opacity="0.1"/>
        <path id="Path_477" data-name="Path 477" d="M596.076,434.841h-.212c-2.378.309-23.365,2.847-23.453-1.521a12.8,12.8,0,0,1,.08-1.512l19.449-1.989,3.854,3.96h0c.071.256.124.477.177.654Z" transform="translate(-75.545 -53.828)" opacity="0.1"/>
        <path id="Path_478" data-name="Path 478" d="M575.937,266.07l13.791,7.2s11.492,29.757,13.331,42.513c0,0,8.513,34.177,2.652,48.233s-5.375,41.956-5.375,41.956-3.377,5.127-4.756,3.757.5,5.375.5,5.375-23.577,3.13-23.674-1.5,5.41-26.769,5.41-26.769,1.5-52.662-.628-60.919S575.937,266.07,575.937,266.07Z" transform="translate(-75.545 -34.839)" fill="#5895ff"/>
        <path id="Path_479" data-name="Path 479" d="M528.373,329.52s-7.762,19.007-10.264,20.262.5,6.25.5,6.25S532.749,336.274,528.373,329.52Z" transform="translate(-69.133 -42.197)" opacity="0.1"/>
        <path id="Path_480" data-name="Path 480" d="M523.022,254.1c.088-.362-9.256,9.167-11.758,10.608S520.4,264.619,523.022,254.1Z" transform="translate(-68.414 -33.45)" opacity="0.1"/>
        <path id="Path_481" data-name="Path 481" d="M493.534,327.82s-14.259,9.22-12.376,12.872S493.534,327.82,493.534,327.82Z" transform="translate(-64.944 -42)" opacity="0.1"/>
        <path id="Path_482" data-name="Path 482" d="M524.47,480.07s12.138,7.806,31.021,9.724Z" transform="translate(-69.986 -59.656)" opacity="0.1"/>
        <path id="Path_483" data-name="Path 483" d="M491.5,501.3s11.254,14.145,16.39,14.507S491.5,501.3,491.5,501.3Z" transform="translate(-66.163 -62.117)" opacity="0.1"/>
        <path id="Path_484" data-name="Path 484" d="M507.549,564c-.5.248-6.383,12.757-12.376,13.137S507.549,564,507.549,564Z" transform="translate(-66.449 -69.388)" opacity="0.1"/>
        <path id="Path_485" data-name="Path 485" d="M568.33,594.951s11.157-2.5,13.641,5.5C581.971,600.424,581.219,597.922,568.33,594.951Z" transform="translate(-75.072 -72.935)" opacity="0.1"/>
        <path id="Path_486" data-name="Path 486" d="M559.84,646.632s13.517-2.758,16.39,1S559.84,646.632,559.84,646.632Z" transform="translate(-74.088 -78.858)" opacity="0.1"/>
        <path id="Path_487" data-name="Path 487" d="M514.849,654c0,.124-13.756,2.758-13.26,4.509s14.675,1.5,15.179-1.255A2.652,2.652,0,0,0,514.849,654Z" transform="translate(-67.331 -79.825)" opacity="0.1"/>
        <path id="Path_488" data-name="Path 488" d="M554.75,667.316s22.6-2.758,21.217,2S554.75,667.316,554.75,667.316Z" transform="translate(-73.497 -81.277)" opacity="0.1"/>
        <path id="Path_489" data-name="Path 489" d="M420.89,352.44c.124.371,14.887,2.378,16.885,7.134,0,0-14.507-6.763-16.8-6.763" transform="translate(-57.974 -44.855)" opacity="0.1"/>
        <path id="Path_490" data-name="Path 490" d="M442.881,396.16s-12.262,3.881-11.386,9.724S430.248,403.179,442.881,396.16Z" transform="translate(-59.199 -49.925)" opacity="0.1"/>
        <path id="Path_491" data-name="Path 491" d="M437.92,429.166s4.464-6.126,8.717-5S437.92,429.166,437.92,429.166Z" transform="translate(-59.949 -53.156)" opacity="0.1"/>
        <path id="Path_492" data-name="Path 492" d="M510.97,167.8a6.957,6.957,0,0,1-1.432,1.07c-3.536,2.06-4.509,5.233-6.188,8.893-1.565,3.35-3.289,6.9-6.445,8.8-4.075,2.458-9.441,1.556-13.676,3.7a10.608,10.608,0,0,0-5.658,10.458,30.166,30.166,0,0,0,1.2,4.791,34.169,34.169,0,0,1,1.291,10.405,1.77,1.77,0,0,1,0,.309A28.89,28.89,0,1,1,511.005,167.8Z" transform="translate(-62.984 -22.711)" opacity="0.1"/>
        <path id="Path_493" data-name="Path 493" d="M508.326,156.9c-3.174-6.666-10.078-10.891-17.177-12.951-5.419-1.565-11.307-2.077-16.682-.354a61.19,61.19,0,0,0-8.725,4.093c-5.357,2.705-11.245,4.845-15.276,9.291a4.656,4.656,0,0,0-1.529,3.731,10.417,10.417,0,0,0,1.512,2.705c1.158,2.033.884,4.588.08,6.8a62.352,62.352,0,0,0-2.493,6.533c-.548,2.272-.336,4.933,1.344,6.551a24.5,24.5,0,0,0,2.528,1.768,13.307,13.307,0,0,1,2.4,2.723l4.774,6.524a66.171,66.171,0,0,1,5.976,9.185c1.185,2.369,2.1,4.9,3.7,7.01s4.067,3.81,6.7,3.58a1.3,1.3,0,0,0,1.061-.5,1.4,1.4,0,0,0,.133-.663,33.931,33.931,0,0,0-1.264-10.37,29.922,29.922,0,0,1-1.2-4.791,10.653,10.653,0,0,1,5.658-10.458c4.243-2.139,9.609-1.238,13.676-3.686,3.165-1.91,4.889-5.454,6.445-8.84,1.706-3.66,2.652-6.834,6.188-8.893S510.085,160.413,508.326,156.9Z" transform="translate(-61.091 -20.512)" fill="#585268"/>
        <path id="Path_494" data-name="Path 494" d="M501.63,693.06s4.42,5.631,3.271,8.84S501.63,693.06,501.63,693.06Z" transform="translate(-67.337 -84.355)" opacity="0.1"/>
        <path id="Path_495" data-name="Path 495" d="M569.28,707.987s.981-7.55,4.915-7.62,4.128-.407,7.134.751,5.826,2.953,4.924,3.218-5.172-4.314-9.556-1.971a31.576,31.576,0,0,0-7.417,5.622Z" transform="translate(-75.182 -85.191)" opacity="0.1"/>
        <path id="Path_496" data-name="Path 496" d="M485.2,253.517l12.376-8.672s-18.105-10.7-20.262-9.194-3.642,15.029-3.642,15.029Z" transform="translate(-64.095 -31.295)" opacity="0.1"/>
        <path id="Path_497" data-name="Path 497" d="M485.138,252.865l12.376-8.84s-18.105-10.7-20.262-9.194S473.61,250.6,473.61,250.6Z" transform="translate(-64.088 -31.2)" fill="#e1e7ef"/>
        <path id="Path_498" data-name="Path 498" d="M485.138,252.865l12.376-8.84s-18.105-10.7-20.262-9.194S473.61,250.6,473.61,250.6Z" transform="translate(-64.088 -31.2)" fill="#ff7b60"/>
        <path id="Path_499" data-name="Path 499" d="M473.75,234.86l-.371-.186a3.209,3.209,0,0,0-3.474.362l-37.13,30.119s-8.071,11.165-6.948,30.429l21.9,31.021s2.5-10.5,5.5-8.5c0,0,4.252,53.794,0,61.547s-6.126,36.776-6.126,36.776l14.383,1.627s1.5-19.643,4.88-26.645,5.216-31.074,5.216-31.074,3.041-34.972,2.537-49.983-4.88-47.287-4.88-47.287S470.461,244.142,473.75,234.86Z" transform="translate(-58.534 -31.158)" fill="#5895ff"/>
        <path id="Path_500" data-name="Path 500" d="M519.866,247.2,504.44,241.49s19.643-21.517,22.1-9.583Z" transform="translate(-67.663 -30.459)" opacity="0.1"/>
        <path id="Path_501" data-name="Path 501" d="M519.866,246.351,504.44,240.64s19.643-21.517,22.1-9.583Z" transform="translate(-67.663 -30.361)" fill="#e1e7ef"/>
        <path id="Path_502" data-name="Path 502" d="M519.866,246.351,504.44,240.64s19.643-21.517,22.1-9.583Z" transform="translate(-67.663 -30.361)" fill="#ff7b60"/>
        <path id="Path_503" data-name="Path 503" d="M521.32,228.119a.884.884,0,0,1,.636.141Z" transform="translate(-69.621 -30.437)" opacity="0.1"/>
        <path id="Path_504" data-name="Path 504" d="M523,226.428l40.931,8.84s11.263,2.5,19.4,30.773-11.139,62.908-11.139,62.908l-4.252-3.616,2.13,82.56s-18.892,7.125-24.894.884-5.375-35.556-5.375-35.556-5.755-54.032-9.388-62.917-1.768-72.924-1.768-72.924S525.3,225.933,523,226.428Z" transform="translate(-69.816 -30.24)" fill="#5895ff"/>
        <path id="Path_505" data-name="Path 505" d="M565.29,285.891c-.575.53-1.246,25.513,1.255,44.529a242.663,242.663,0,0,0,7.072,34.274L569.9,288.517S567.04,284.265,565.29,285.891Z" transform="translate(-74.657 -37.095)" opacity="0.1"/>
        <path id="Path_506" data-name="Path 506" d="M559.7,261.6c1,.628,5.384,11.006,3.377,15.258S559.7,261.6,559.7,261.6Z" transform="translate(-74.072 -34.321)" opacity="0.1"/>
        <path id="Path_507" data-name="Path 507" d="M510.989,157.554a22.6,22.6,0,0,0-9-9.424,21.4,21.4,0,0,1,6.745,7.956c1.768,3.536,1.246,7.072-2.192,9.008s-4.509,5.233-6.188,8.893c-1.565,3.35-3.289,6.9-6.453,8.84-4.067,2.458-9.433,1.547-13.676,3.686a10.679,10.679,0,0,0-5.658,10.467,30.06,30.06,0,0,0,1.211,4.783,34.2,34.2,0,0,1,1.291,10.405,1.4,1.4,0,0,1-.141.663,1.264,1.264,0,0,1-1.052.5,6.091,6.091,0,0,1-3.085-.575,7.178,7.178,0,0,0,5.3,2.077,1.043,1.043,0,0,0,1.185-1.167A33.922,33.922,0,0,0,478,203.267a29.042,29.042,0,0,1-1.211-4.791,10.653,10.653,0,0,1,5.658-10.458c4.243-2.139,9.609-1.238,13.676-3.686,3.165-1.91,4.889-5.454,6.445-8.84,1.706-3.66,2.652-6.834,6.188-8.893S512.757,161.063,510.989,157.554Z" transform="translate(-63.993 -21.162)" opacity="0.1"/>
        <path id="Path_508" data-name="Path 508" d="M778.265,271.237c-12.182-.239-22.932-8.84-29.023-19.352a19.448,19.448,0,0,1-2.935-8.283,9.562,9.562,0,0,1,.336-1.98,20.542,20.542,0,0,0,.884-3.032,5.3,5.3,0,0,0,0-1.238v-.071c.292-2.237-1.026-4.42-2.652-5.95s-3.669-2.652-5.366-4.173c-5.234-4.6-6.825-11.97-6.922-18.989V207.8c.062-3.006.3-6.02.274-9.026a37.962,37.962,0,0,0-.221-5.11c-.5-4.252-2.122-8.584-5.463-11.3-8.717-7.072-23.374.292-32.4-6.392-2.192-1.635-3.969-4.049-6.63-4.685-2.007-.486-4.093.168-6.056.822-6.648,2.192-14.065,5.074-16.664,11.492-1.485,3.686-1.07,7.894-2.431,11.625-.884,2.5-2.573,4.65-3.8,7.019a10.988,10.988,0,0,0-1.414,5.861,6.613,6.613,0,0,0,.433,3.121,7.956,7.956,0,0,0,2.166,3.1,10.305,10.305,0,0,1-1.291,2.069c-1.7,2.078-4.305,3.536-6.073,5.6-3.271,3.793-3.147,8.946-1.538,13.4s4.517,8.513,6.524,12.854c.884,1.883,1.556,3.987.663,5.861-.628,1.3-1.927,2.29-2.935,3.412a10.723,10.723,0,0,0-2.652,5.923c-19.9,4.544-19.917,20.536-19.917,20.536h0l-10.75,27.034s-1.724,4.553-3.748,10.564l-12.721-2.281,8.84,14.8c-1.671,6.029-2.855,11.616-2.466,14.427,0,0-3.952,18.565,3.076,21.809l15.506,6.975a9.184,9.184,0,0,0,2.148.964l.628.283a1.662,1.662,0,0,0,1.45,0h.212a2.087,2.087,0,0,0,.884-.133,1.769,1.769,0,0,0,.778-.84.262.262,0,0,1,0-.088l4.641-1.344,3.934,4.659c1.768,1.246,3.536,2.325,5.207,3.3l-6.091,60.486s-.981,80.447-3.952,98.782c-1.1,6.789-1.105,11.422-.69,14.569l-.115.194c.734,5.172,2.652,6.188,2.652,6.188v-.071a.573.573,0,0,0,.115.071,52.083,52.083,0,0,1,3.182-6.825v1.326c-.062,6.825-.274,16.381-.981,22.6-1.2,10.608,3.076,45.572,3.076,45.572l1.476,31.825a29.421,29.421,0,0,1-3.625,15.506c-3.536,6.356-8.053,15.3-8.38,19.272a3.983,3.983,0,0,0,0,.645h0l-7.585,9.123s-2.961,4.579,3.731,6.427c3.6,1,9.8,0,14.79-1.176a9.884,9.884,0,0,0,7.665-9.618A34.036,34.036,0,0,1,662.306,687l1.246,7.329L671.9,696.4l1.07-20.085a8.841,8.841,0,0,0,.575-3.536h0c1.644-14.286-3.872-13-3.872-13a.769.769,0,0,1,.265.5l-.265-.486h0C666.284,653.1,667.9,642.1,667.9,642.1s4.42-31.825,5.932-40.232c1.087-5.941.636-25.389.274-36.245a12.943,12.943,0,0,0-.044-1.317c12.942-.168,28.8-.6,39.932-1.68v1.308l-2.051,75.187a41.276,41.276,0,0,1-2.882,13.986.763.763,0,0,1-.1.256,61,61,0,0,0-4.075,19.705l-.955,23.869v.663h0c-1.662.636-4.288,2.484-4.358,7.841-.115,7.85,13.72,5.233,13.72,5.233,13.826,0,13.941-14.392,13.941-14.392s.433-13.2,1.1-22.03-2.086-6.887-2.086-6.887l-.212,25.124V670.662l.212-3.191v-.088h0V666.7l1.742-25.911s12.739-43.176,14.71-51.46c1.406-5.888.822-23.621.362-33.425a7.785,7.785,0,0,0-.071-1.3c3.952-.354,7.444-.389,8.84-.389h.645s-.654-69.344-2.307-95.476S745.892,408.7,739.306,401.5c-3.978-4.349-9.521-17.778-13.26-27.723a138.688,138.688,0,0,0,24.373,7.956c20.854,4.367,18-13.738,18-13.738L766.3,333.756h.141a174.578,174.578,0,0,0-2.3-26.769c-1.105-6.789-2.794-13.809-5.375-19.449,2.263-.884,4.5-1.83,6.692-2.8,5.667-2.5,12.049-6.047,12.863-12.155h-.274a7.888,7.888,0,0,0,.212-1.344ZM648.993,320.743h0c.044,3.536-.088,9.671-.3,16.452l-6.621-8.84,6.639-10.768ZM737.714,338.7Zm2.758,13.375-11.033-3.536a49.5,49.5,0,0,1,6.816-8.434l.955-.884-.345.071.53-.486.318-.071-.5.486.6-.124a18.821,18.821,0,0,0,3.757,7.559c3.96,4.323-1.087,5.419-1.087,5.419Z" transform="translate(-79.434 -23.828)" fill="url(#linear-gradient-3)"/>
        <path id="Path_509" data-name="Path 509" d="M649.674,715.66l-1.291,24.47-8.23-2.06L638.42,727.9Z" transform="translate(-55.654 -69.171)" fill="#a27772"/>
        <path id="Path_510" data-name="Path 510" d="M649.674,715.66l-1.291,24.47-8.23-2.06L638.42,727.9Z" transform="translate(-55.654 -69.171)" opacity="0.1"/>
        <path id="Path_511" data-name="Path 511" d="M716.48,746.671l12.553,2.6,9.309-8.222V717.878l.212-3.165v-.1h0v-.672l1.733-25.752s12.562-42.867,14.516-51.1c1.379-5.835.8-23.445.345-33.178-.186-3.987-.345-6.657-.345-6.657l-27.714-6.71-.583,21.305L724.481,686.5a41.366,41.366,0,0,1-2.838,13.888l-.1.256a60.75,60.75,0,0,0-4.022,19.555l-.937,23.736v.654Z" transform="translate(-92.252 -72.467)" fill="#cc818c"/>
        <path id="Path_512" data-name="Path 512" d="M741.45,730.148v.654h0v-.672Z" transform="translate(-95.148 -88.654)" opacity="0.1"/>
        <path id="Path_513" data-name="Path 513" d="M716.48,766.154l12.553,2.6,9.309-8.222V758.56a2.652,2.652,0,0,1-1.335,2.122l-.133.08a25.018,25.018,0,0,1-14.091,2.785l-4.9-.415a4.588,4.588,0,0,0-1.3.318v.654Z" transform="translate(-92.252 -91.951)" opacity="0.1"/>
        <path id="Path_514" data-name="Path 514" d="M736.32,758.174l.133-.071a2.652,2.652,0,0,0,1.353-2.3l.2-24.939s2.705-1.936,2.051,6.834-1.078,21.871-1.078,21.871-.106,14.286-13.747,14.286c0,0-13.641,2.6-13.535-5.2s5.631-8.115,5.631-8.115l4.9.424A24.956,24.956,0,0,0,736.32,758.174Z" transform="translate(-91.698 -88.718)" fill="#b07473"/>
        <path id="Path_515" data-name="Path 515" d="M642.52,742.438c.318,5.631,16.885,2.378,16.885,2.378l11.148-21.641s9.309-7.152,4.65-13.428a10.03,10.03,0,0,1-.681-1.07l-.044-.053h0c-.1-.159-.186-.327-.274-.5h0c-3.342-6.63-1.7-17.5-1.7-17.5s4.323-31.613,5.843-39.95c1.07-5.888.628-25.2.274-36.007-.141-4.491-.274-7.505-.274-7.505l-27.5-7.364v8.2c-.062,6.781-.274,16.266-.972,22.437-1.185,10.494,3.032,45.245,3.032,45.245l1.459,31.622a29.288,29.288,0,0,1-3.536,15.391c-3.448,6.312-7.956,15.205-8.266,19.139a3.863,3.863,0,0,0-.044.61Z" transform="translate(-83.676 -73.539)" fill="#cc818c"/>
        <path id="Path_516" data-name="Path 516" d="M642.519,756.721c.318,5.631,16.885,2.378,16.885,2.378l11.148-21.641s9.309-7.152,4.65-13.428a10.03,10.03,0,0,1-.681-1.07c-.15,3.28-3.748,11.492-3.748,11.492s-9.2,18.414-12.129,22.631-15.639-.787-16.116-.964a3.869,3.869,0,0,0-.009.6Z" transform="translate(-83.675 -87.822)" opacity="0.1"/>
        <path id="Path_517" data-name="Path 517" d="M673.125,722.3s5.446-1.264,3.819,12.916h0a9.132,9.132,0,0,1-4.305,8.107c-3.9,2.449-9.91,7.718-12.951,17.964h0a9.8,9.8,0,0,1-7.559,9.548c-4.915,1.149-11.042,2.157-14.587,1.167-6.6-1.839-3.678-6.383-3.678-6.383l7.576-8.991s13.207,5.2,16.125.972S669.7,734.973,669.7,734.973,674.743,723.49,673.125,722.3Z" transform="translate(-82.597 -87.742)" fill="#b07473"/>
        <path id="Path_518" data-name="Path 518" d="M728.4,593.52l-.583,21.305c7.382-.716,12.668-1.715,13.57-3.121,1.954-3.023,9.044-4.3,15.073-4.818-.186-3.987-.345-6.657-.345-6.657Z" transform="translate(-93.567 -72.812)" opacity="0.1"/>
        <path id="Path_519" data-name="Path 519" d="M651.94,610.924a10.114,10.114,0,0,1,3.032-3.66c2.917-1.618,2.6,10.4,2.6,10.4s9.724.088,22.145-.071c-.141-4.491-.274-7.514-.274-7.514l-27.5-7.355S651.993,606.132,651.94,610.924Z" transform="translate(-84.768 -73.879)" opacity="0.1"/>
        <path id="Path_520" data-name="Path 520" d="M648.014,588.89s3.253-8.84,6.188-10.414,2.6,10.387,2.6,10.387,71.448.654,75.019-4.871,24.355-5.2,24.355-5.2-.645-68.849-2.272-94.822-4.217-49.692-10.715-56.835c-4.2-4.624-10.175-19.581-13.87-29.553-2.007-5.446-3.342-9.415-3.342-9.415l-68.194,3.89-.557,5.525-7.24,72.42s-.972,79.89-3.9,98.075S648.014,588.89,648.014,588.89Z" transform="translate(-83.981 -48.998)" fill="#5895ff"/>
        <g id="Group_91" data-name="Group 91" transform="translate(561.249 339.172)" opacity="0.1">
          <path id="Path_521" data-name="Path 521" d="M728.322,583.993c3.536-5.516,24.355-5.2,24.355-5.2s-.645-68.849-2.272-94.822-4.217-49.692-10.714-56.835c-4.217-4.641-10.175-19.581-13.87-29.553-1.688-4.579-2.9-8.107-3.235-9.114l5.3-.3s1.335,3.969,3.35,9.415c3.7,9.972,9.662,24.93,13.862,29.553,6.5,7.143,9.1,30.853,10.714,56.835s2.281,94.822,2.281,94.822-20.784-.318-24.364,5.2c-3.05,4.712-55.624,4.933-70.882,4.889C682.431,588.837,725.563,588.254,728.322,583.993Z" transform="translate(-647.282 -388.17)"/>
          <path id="Path_522" data-name="Path 522" d="M648.661,603.42c1.317-.734,1.971,1.3,2.3,3.766a50.989,50.989,0,0,0-3.068,6.648s-1.883-1.017-2.652-6.188C646.319,605.8,647.512,604.057,648.661,603.42Z" transform="translate(-645.24 -413.114)"/>
        </g>
        <path id="Path_523" data-name="Path 523" d="M670.446,198.459c-4.721,6.436.053,15.586-5.012,21.845-1.671,2.069-4.243,3.536-5.985,5.569-3.227,3.766-3.1,8.885-1.521,13.3s4.42,8.451,6.436,12.765c.884,1.865,1.538,3.96.654,5.817-.619,1.291-1.9,2.272-2.9,3.386-3.253,3.633-3.342,8.681-1.591,12.96s5.092,7.956,8.389,11.581c1.3,1.423,2.944,3,5.11,2.953a7.072,7.072,0,0,0,3.209-1.052,32.709,32.709,0,0,0,14.887-42.69c-2.74-6.568-7.311-12.863-7.355-19.8,0-5.508,2.829-10.768,3.333-16.249.61-6.666-3.333-17.248-11.378-20.156C677.253,192.969,672.842,195.152,670.446,198.459Z" transform="translate(-85.337 -25.866)" fill="#585268"/>
        <path id="Path_524" data-name="Path 524" d="M670.446,198.459c-4.721,6.436.053,15.586-5.012,21.845-1.671,2.069-4.243,3.536-5.985,5.569-3.227,3.766-3.1,8.885-1.521,13.3s4.42,8.451,6.436,12.765c.884,1.865,1.538,3.96.654,5.817-.619,1.291-1.9,2.272-2.9,3.386-3.253,3.633-3.342,8.681-1.591,12.96s5.092,7.956,8.389,11.581c1.3,1.423,2.944,3,5.11,2.953a7.072,7.072,0,0,0,3.209-1.052,32.709,32.709,0,0,0,14.887-42.69c-2.74-6.568-7.311-12.863-7.355-19.8,0-5.508,2.829-10.768,3.333-16.249.61-6.666-3.333-17.248-11.378-20.156C677.253,192.969,672.842,195.152,670.446,198.459Z" transform="translate(-85.337 -25.866)" opacity="0.1"/>
        <path id="Path_525" data-name="Path 525" d="M724.654,464.55c-9.45.5-18.344,4.562-26.618,9.159s-16.284,9.8-25.186,13.066" transform="translate(-87.193 -57.856)" opacity="0.1"/>
        <path id="Path_526" data-name="Path 526" d="M718.991,489.74a38.959,38.959,0,0,0-24.532,11.934c-2.3,2.431-4.279,5.154-6.674,7.488a29.651,29.651,0,0,1-13.155,7.452" transform="translate(-87.399 -60.777)" opacity="0.1"/>
        <path id="Path_527" data-name="Path 527" d="M719.983,508.91a42.893,42.893,0,0,0-19.732,11.9c-1.45,1.565-2.767,3.236-4.217,4.8-7.824,8.4-18.874,12.854-29.544,17.071" transform="translate(-86.455 -63)" opacity="0.1"/>
        <path id="Path_528" data-name="Path 528" d="M721.17,243a193.985,193.985,0,0,0,1.945,22.561c.884,5.3,2.122,10.078,3.9,12.191,5.2,6.188-25.328,14.454-25.328,14.454L683.66,278.238s14.286-13.154,7.629-25.982S721.17,243,721.17,243Z" transform="translate(-88.446 -32.111)" fill="#cc818c"/>
        <path id="Path_529" data-name="Path 529" d="M658.79,397.585h72.093c-2.007-5.446-3.342-9.415-3.342-9.415l-68.194,3.89Z" transform="translate(-85.562 -48.998)" opacity="0.1"/>
        <path id="Path_530" data-name="Path 530" d="M651.694,382.842h77.079c-2.166-7.753,0-14.923,3.085-20.439a45.172,45.172,0,0,1,8.071-10.467l.53-.486,26.91-5.958,1.45-.318s.221-48.931-17.106-55.65S724,273.725,724,273.725l-23.807,7.355-17.539-8.84c-5.631,6.056-20.572,3.678-20.572,3.678-24.461,2.811-24.461,21.217-24.461,21.217s14.286,33.337,15.373,33.337S651.694,382.842,651.694,382.842Z" transform="translate(-83.107 -35.555)" fill="#ff7b60"/>
        <path id="Path_531" data-name="Path 531" d="M680.877,360.9s-15.718-3.483-21.067-9.574" transform="translate(-85.681 -44.726)" opacity="0.1"/>
        <path id="Path_532" data-name="Path 532" d="M770.9,341.51,752.67,356.45a31.047,31.047,0,0,0,.6,3.536l.53-.486,26.91-5.958Z" transform="translate(-96.449 -43.587)" opacity="0.1"/>
        <path id="Path_533" data-name="Path 533" d="M717.46,388.687s3.987,2.245,10.1,5.2h10.476c-2.166-7.753,0-14.923,3.085-20.439l-18.468-5.976C728.935,373.313,717.46,388.687,717.46,388.687Z" transform="translate(-92.366 -46.598)" opacity="0.1"/>
        <path id="Path_534" data-name="Path 534" d="M645.6,293.76,634.779,299.6,624.17,326.452s-11.042,29.438-9.963,37.236c0,0-3.89,18.406,3.032,21.65l18.034,8.168a1.68,1.68,0,0,0,2.166-2.316c-2.573-4.871-5.4-12.491-.884-16.682l-5.2-10.821,18.786-30.747,6.277-10.608Z" transform="translate(-80.266 -38.05)" fill="#ff7b60"/>
        <path id="Path_535" data-name="Path 535" d="M677.072,354.232c.937,3.819,4.1,9.724,14.578,11.926l11.492,9.415,12.226,5.543,4.986,2.254,2.113-15.267-4.8-2.652-5.6-3.059s-12.624-22.87-32.612-13.261A4.42,4.42,0,0,0,677.072,354.232Z" transform="translate(-87.666 -44.198)" opacity="0.1"/>
        <path id="Path_536" data-name="Path 536" d="M677.814,352.768c.937,3.828,4.093,9.724,14.569,11.926l11.492,9.415,12.235,5.543,4.977,2.254,2.113-15.267-4.8-2.652-5.552-3.032s-12.633-22.87-32.621-13.216a4.42,4.42,0,0,0-2.413,5.03Z" transform="translate(-87.754 -44.034)" fill="#cc818c"/>
        <circle id="Ellipse_111" data-name="Ellipse 111" cx="27.927" cy="27.927" r="27.927" transform="translate(584.658 174.838)" opacity="0.1"/>
        <circle id="Ellipse_112" data-name="Ellipse 112" cx="27.927" cy="27.927" r="27.927" transform="translate(584.658 174.193)" fill="#cc818c"/>
        <path id="Path_537" data-name="Path 537" d="M721.778,296.9l-8.4-16.319s12.288-4.968,13.181-10.723,11.775,6.745,9.424,10.891S721.778,296.9,721.778,296.9Z" transform="translate(-91.893 -35.105)" opacity="0.1"/>
        <path id="Path_538" data-name="Path 538" d="M721.778,295.427l-8.4-16.319s12.288-4.968,13.181-10.723,11.775,6.754,9.424,10.891S721.778,295.427,721.778,295.427Z" transform="translate(-91.893 -34.935)" fill="#ff7b60"/>
        <path id="Path_539" data-name="Path 539" d="M640.737,346.064l46.4,62.386s-17.106,9.309-40.666-7.355L636.3,388.967,607.25,340Z" transform="translate(-79.586 -43.412)" fill="#f6f8fb"/>
        <path id="Path_540" data-name="Path 540" d="M634.657,383.122l4.226-.115s25.814-25.054,32.152-12.377-16.081,24.523-16.081,24.523l-6.816,3.678-8.885,2.652-5.684-7.629Z" transform="translate(-82.638 -46.549)" fill="#cc818c"/>
        <path id="Path_541" data-name="Path 541" d="M640.123,398.416c.389,1.441.76,3.032.106,4.367a1.768,1.768,0,0,1-.769.84,1.971,1.971,0,0,1-.884.124,8.885,8.885,0,0,1-5.826-2.882,26.607,26.607,0,0,1-3.775-5.463c-1.149-2.007-2.343-4.226-1.936-6.506.46-2.484,2.652-4.208,4.8-5.6,4.279-2.829,4.42.469,5.357,4.111S639.142,394.738,640.123,398.416Z" transform="translate(-81.871 -48.309)" opacity="0.1"/>
        <path id="Path_542" data-name="Path 542" d="M639.393,398.416c.38,1.441.76,3.032.106,4.367a1.768,1.768,0,0,1-.769.84,1.989,1.989,0,0,1-.884.124,8.84,8.84,0,0,1-5.826-2.882,26.3,26.3,0,0,1-3.784-5.463c-1.149-2.007-2.343-4.226-1.927-6.507.451-2.484,2.652-4.208,4.792-5.6,4.288-2.829,4.42.469,5.366,4.111S638.4,394.738,639.393,398.416Z" transform="translate(-81.786 -48.309)" fill="#ff7b60"/>
        <path id="Path_543" data-name="Path 543" d="M623.85,317.461l2.157-3.651-1.883,6.781Z" transform="translate(-53.964 -22.571)" opacity="0.1"/>
        <path id="Path_544" data-name="Path 544" d="M721.19,382.1l4.977,2.254,2.113-15.267-4.8-2.652C726.795,370.231,723.9,377.259,721.19,382.1Z" transform="translate(-92.799 -46.477)" opacity="0.1"/>
        <path id="Path_545" data-name="Path 545" d="M740.786,363.654s-16.072.981-22.9-3.4" transform="translate(-92.416 -45.761)" opacity="0.1"/>
        <g id="Group_92" data-name="Group 92" transform="translate(577.948 237.958)" opacity="0.1">
          <path id="Path_546" data-name="Path 546" d="M740.591,364.068a45.246,45.246,0,0,1,8.071-10.476,21.548,21.548,0,0,1,2.378-1.291l25.054-5.145,1.45-.318s.221-48.931-17.1-55.65a104.071,104.071,0,0,1-27.016-15.214l1.9-.583s10.387,9.088,27.714,15.8,17.1,55.65,17.1,55.65h-2.6l-25.637,4.906s-1.105,1.07-1.441,1.379a49.685,49.685,0,0,0-8.2,10.838,27.175,27.175,0,0,0-2.148,20.545H737.47C735.331,376.754,737.541,369.584,740.591,364.068Z" transform="translate(-672.166 -273.878)"/>
          <path id="Path_547" data-name="Path 547" d="M664.13,277.978c.415-.062.813-.124,1.246-.168a44.829,44.829,0,0,0,5.3.433,48.215,48.215,0,0,1-6.551-.265Z" transform="translate(-664.13 -274.159)"/>
          <path id="Path_548" data-name="Path 548" d="M703.62,282.547l-15.86-8.027a8.385,8.385,0,0,0,.884-.84l16.549,8.372Z" transform="translate(-666.87 -273.68)"/>
        </g>
        <path id="Path_549" data-name="Path 549" d="M767.528,340l10.608,13,2.166,35.291s2.811,17.964-17.751,13.632S718.19,384.2,718.19,384.2s11.492-15.373,5.2-21.217l29.447,9.53s4.977-1.087,1.078-5.41-4.588-12.129-4.588-12.129Z" transform="translate(-92.451 -43.412)" fill="#ff7b60"/>
        <path id="Path_550" data-name="Path 550" d="M779.42,382.17l5.843,6.71a8.425,8.425,0,0,1-5.844-6.71Z" transform="translate(-99.551 -48.303)" opacity="0.1"/>
        <path id="Path_551" data-name="Path 551" d="M736.99,360.8l9.1,11.687-4.544,1.087Z" transform="translate(-67.084 -28.02)" opacity="0.1"/>
        <path id="Path_552" data-name="Path 552" d="M665.52,213.583c-1-2.449-.23-5.3.972-7.612s2.855-4.491,3.757-6.975c1.335-3.7.928-7.877,2.387-11.492,2.573-6.409,9.883-9.274,16.434-11.492,1.936-.645,4-1.291,5.976-.813,2.652.628,4.376,3.032,6.542,4.65,8.893,6.63,23.356-.672,31.958,6.347,3.289,2.652,4.889,6.993,5.384,11.21s0,8.5-.053,12.748c-.141,7.444,1.255,15.586,6.825,20.518,1.68,1.485,3.66,2.6,5.3,4.137s2.935,3.686,2.652,5.914a20.5,20.5,0,0,1-.884,3.006c-1.105,3.881.548,7.956,2.564,11.492,6.011,10.405,16.611,18.98,28.625,19.219-.8,6.064-7.072,9.583-12.686,12.067-7.072,3.174-14.6,6.285-22.393,5.888s-15.913-5.384-17.274-13.057c-.469-2.652-.407-5.843-2.652-7.223-1.379-.84-3.165-.628-4.65-1.255-2.148-.884-3.209-3.3-3.916-5.516a49.65,49.65,0,0,1-2.307-14.145c-.1-5.693.654-11.908-2.573-16.593-2.988-4.341-8.292-6.542-11.74-10.529-3.182-3.7-6.639-8.151-11.855-8.84C684.7,214.22,669.781,224.024,665.52,213.583Z" transform="translate(-86.29 -24.282)" opacity="0.1"/>
        <path id="Path_553" data-name="Path 553" d="M665.52,212.113c-1-2.449-.23-5.3.972-7.612s2.855-4.491,3.757-6.975c1.335-3.7.928-7.877,2.387-11.492,2.573-6.418,9.883-9.282,16.434-11.492,1.936-.645,4-1.291,5.976-.813,2.652.628,4.376,3.032,6.542,4.65,8.893,6.63,23.356-.672,31.958,6.347,3.289,2.652,4.889,6.993,5.384,11.218s0,8.487-.053,12.739c-.141,7.444,1.255,15.586,6.825,20.518,1.68,1.485,3.66,2.6,5.3,4.137s2.935,3.686,2.652,5.914a20.5,20.5,0,0,1-.884,3.006c-1.105,3.881.548,7.956,2.564,11.492,6.029,10.37,16.584,18.971,28.6,19.21-.8,6.064-7.072,9.583-12.686,12.076-7.072,3.165-14.6,6.277-22.393,5.879s-15.913-5.384-17.274-13.057c-.469-2.652-.407-5.843-2.652-7.223-1.379-.84-3.165-.628-4.65-1.255-2.148-.884-3.209-3.3-3.916-5.516a49.6,49.6,0,0,1-2.307-14.145c-.1-5.693.654-11.908-2.573-16.593-2.988-4.341-8.292-6.542-11.74-10.529-3.182-3.7-6.639-8.151-11.855-8.84C684.7,212.75,669.781,222.571,665.52,212.113Z" transform="translate(-86.29 -24.112)" fill="#585268"/>
        <path id="Path_554" data-name="Path 554" d="M687.277,294.979l16.01-13s-10.962-5.941-12.27-11.006-10.078,2.4-9.185,6.949S687.277,294.979,687.277,294.979Z" transform="translate(-88.227 -35.212)" opacity="0.1"/>
        <path id="Path_555" data-name="Path 555" d="M687.994,292.77,704,279.784s-10.962-5.941-12.217-11.006-10.078,2.4-9.185,6.948S687.994,292.77,687.994,292.77Z" transform="translate(-88.316 -34.957)" fill="#ff7b60"/>
        <circle id="Ellipse_113" data-name="Ellipse 113" cx="1.273" cy="1.273" r="1.273" transform="translate(615.042 254.428)" opacity="0.1"/>
        <circle id="Ellipse_114" data-name="Ellipse 114" cx="1.273" cy="1.273" r="1.273" transform="translate(615.042 261.5)" opacity="0.1"/>
        <circle id="Ellipse_115" data-name="Ellipse 115" cx="1.273" cy="1.273" r="1.273" transform="translate(615.042 268.564)" opacity="0.1"/>
        <g id="Group_93" data-name="Group 93" transform="translate(578.972 159.076)" opacity="0.1">
          <path id="Path_556" data-name="Path 556" d="M672.672,195.324c1.264-3.474.99-7.373,2.175-10.874a11.878,11.878,0,0,0-1.353,2.493c-1.467,3.651-1.052,7.833-2.4,11.492l-.088.212a20.2,20.2,0,0,0,1.662-3.324Z" transform="translate(-665.951 -184.45)"/>
          <path id="Path_557" data-name="Path 557" d="M773.009,285.387c-7.072,3.165-14.6,6.277-22.393,5.879s-15.913-5.384-17.274-13.048c-.469-2.652-.407-5.852-2.652-7.231-1.379-.84-3.165-.628-4.65-1.255-2.148-.884-3.209-3.3-3.916-5.516a49.6,49.6,0,0,1-2.307-14.145c-.1-5.684.663-11.9-2.564-16.593-3-4.341-8.3-6.533-11.749-10.529-3.182-3.686-6.639-8.151-11.855-8.84-7.152-.972-22.1,8.84-26.327-1.609a8.221,8.221,0,0,1,.274-6.038c-.309.522-.61,1.043-.884,1.574-1.2,2.352-1.963,5.172-.964,7.62,4.252,10.432,19.175.628,26.327,1.609,5.216.707,8.672,5.172,11.855,8.84,3.448,4,8.752,6.188,11.74,10.538,3.236,4.685,2.475,10.9,2.573,16.585a49.6,49.6,0,0,0,2.307,14.145c.707,2.228,1.768,4.615,3.916,5.516,1.485.628,3.271.424,4.65,1.255,2.281,1.379,2.219,4.606,2.652,7.231,1.379,7.665,9.495,12.651,17.274,13.048s15.276-2.705,22.393-5.879c5.127-2.281,10.838-5.437,12.377-10.608C781.355,281.294,777.005,283.61,773.009,285.387Z" transform="translate(-665.288 -187.002)"/>
        </g>
        <path id="Path_558" data-name="Path 558" d="M941.645,339.152c-18.715-10.768-25.787-13.42-25.823-13.42l-.389-.274a15.569,15.569,0,0,1-4.712-5.958,12.437,12.437,0,0,1,0-1.282.538.538,0,0,0,0,.124c.292-5.7,4.349-10.891,8.2-15.418l9.839-11.572a11.4,11.4,0,0,0,2.537-4.014,9.257,9.257,0,0,0,.265-2.466v-1.008c-.053-2.873-.133-5.755-.239-8.628-.088-2.511-.734-5.676-3.244-6.188-1.308-.265-3.041.2-3.731-.884a2.148,2.148,0,0,1-.168-1.494.512.512,0,0,0,0,.124v-.141a33.3,33.3,0,0,0,.928-5.914,8.062,8.062,0,0,0-.407-3c-1.45-4.164-6.462-5.879-10.891-6.666s-9.4-1.459-12.173-4.924a36.011,36.011,0,0,0-2.422-3.333,9.557,9.557,0,0,0-4.526-2.237,25.637,25.637,0,0,0-16.47,1.432c-2.139.955-4.288,2.245-6.639,2.1s-4.526-1.839-6.931-2.245c-3.89-.663-7.612,2.192-9.53,5.578a13.642,13.642,0,0,0-1.768,6.577v.389h0a9.619,9.619,0,0,0,2.528,6.719c1.68,1.768,4.173,2.935,4.871,5.225.283.928.212,1.936.469,2.882a2.585,2.585,0,0,0,.106.345l-.124.168a29.174,29.174,0,0,0-6.188,17.981,29.845,29.845,0,0,0,20.969,28.289c0,.292,0,.583,0,.884a12.718,12.718,0,0,1-4.067,9.9L845.4,337.4s-15.983-1.9-21.747,21.456a39.826,39.826,0,0,0-.99,11.846c.212,3.536-.274,9.724-4.42,17.743-6.551,12.836-5.057,42.3,8.345,45.218,12.651,2.758,17.6,1.609,18.123,1.476v.513c-.212,5.534-2.219,53.219-9.512,58.983-2.016,1.6-1.644,2.652,0,3.4,0,0,0,.309-.044.884-.221,3.536-1.344,16.8-6.188,24.329-5.667,8.752-5.074,59.23-5.074,59.23l-3.863,29.757s2.378,18.379,0,21.588c-2.131,2.855-4.959,70.847-5.552,85.592h-.248a7.178,7.178,0,0,0-5.729,3.536c-3.129,5.083-14.091,14.481-14.091,14.481-2.378,3.377-11.174,6.613-15.824,8.133a9.83,9.83,0,0,0-1.768.778,9.433,9.433,0,0,0-4,4.208,4.517,4.517,0,0,0-.424,3.536c1.185,2.908,25.911,4.959,32.17,2.033,4.915-2.29,24.4-5.3,32.488-6.489a6.665,6.665,0,0,0,5.782-5.782,3.811,3.811,0,0,0-.743-2.891h0c-1.547-1.918-2.334-7.161-2.652-10.608a7.174,7.174,0,0,0,1.821-1.079,77.663,77.663,0,0,1,4.42-31.215c5.958-15.754,7.744-44.927,6.259-63.889,0,0,18.167-78.184,32.471-85.477h0c.221.283,7.161,9.185,8.045,36.758.884,28.006,11.015,46.385,11.015,46.385s-4.473,47.552,0,65.348l-5.843,28.068c-.433-.362-.707-.645-.707-.645s.177.778.415,2.024l-.124.6.256.053c.663,3.536,1.644,9.627,1.238,13.261-.23,2.042-.8,4.844-1.193,7.594-.619,4.323-.787,8.513,1.485,9.433,3.731,1.5,25.637,3.536,29.35-1.273a6.887,6.887,0,0,0,1.078-7.2,7.294,7.294,0,0,0-1.078-1.839s-5.817-9.5-4.173-16.2a4.933,4.933,0,0,0-.7-3.846c.256-3.289,1.583-18.512,5.013-31.436,3.731-14.038,11.59-44.821,5.808-65.056h0q-.327-1.193-.743-2.334a87.377,87.377,0,0,1-3.28-34.133,69.567,69.567,0,0,1,0-29.757c3.58-16.337,6.082-32.382,6.082-32.382s1.971-21.588.248-34.822a8.685,8.685,0,0,0-.115-.884l.937-.212s-5.066-22.463-6.851-36.758c-.424-3.377-.972-7.647-1.574-12.209a31.159,31.159,0,0,0,4.853-1.211C949.937,440.472,955,390.32,955,390.32V374.408S960.413,349.946,941.645,339.152ZM821.8,726.572c-.5-.248-.787-.415-.787-.415h0Z" transform="translate(-98.715 -31.797)" fill="url(#linear-gradient-4)"/>
        <path id="Path_559" data-name="Path 559" d="M937.63,661.008c6.975,20.059-1.167,52.618-4.951,67.187s-4.942,31.984-4.942,31.984c-14.825,2.325-25.584-.583-25.584-.583l6.109-29.942c-4.367-17.734,0-65.127,0-65.127S898.379,646.21,897.5,618.3c-.884-27.467-7.629-36.352-7.841-36.626h0c-13.95,7.267-31.684,85.186-31.684,85.186,1.45,18.892-.3,47.968-6.109,63.651a78.678,78.678,0,0,0-4.358,31.1c-2.033,1.768-4.862,2.016-7.956,1.521-8.3-1.344-18.255-8.5-18.255-8.5s3.191-84.867,5.525-88.085,0-21.517,0-21.517l3.775-29.651s-.583-50.3,4.942-59.018c4.774-7.532,5.87-20.775,6.082-24.249v-.884l8.416-10.078s81.4-6.109,87.52,0c1.494,1.494,2.422,4.906,2.97,9.194,1.68,13.19-.248,34.7-.248,34.7s-2.44,15.992-5.932,32.267a70.83,70.83,0,0,0,0,29.659A88.78,88.78,0,0,0,937.63,661.008Z" transform="translate(-104.408 -64.105)" fill="#5895ff"/>
        <path id="Path_560" data-name="Path 560" d="M943.1,819.194c-3.633,4.8-25,2.767-28.643,1.273-2.219-.884-2.051-5.1-1.45-9.406.38-2.732.937-5.525,1.167-7.558.575-5.233-1.768-15.851-1.768-15.851s4.791,5.092,5.95,0a5.545,5.545,0,0,1,4.155-3.943,10.856,10.856,0,0,1,7.55.469c3.775,1.644,10.069,5.136,8.946,9.857-1.6,6.675,4.067,16.151,4.067,16.151a7.356,7.356,0,0,1,1.061,1.821,6.975,6.975,0,0,1-1.034,7.187Z" transform="translate(-114.973 -94.813)" fill="#a27772"/>
        <path id="Path_561" data-name="Path 561" d="M943.131,822.843c-3.633,4.8-25,2.767-28.643,1.273-2.219-.884-2.051-5.1-1.45-9.406,2.3,1.078,6.188,1.971,12.7,1.37a35.839,35.839,0,0,1,4.57-.141,106.286,106.286,0,0,0,13.879-.283A6.975,6.975,0,0,1,943.131,822.843Z" transform="translate(-115.001 -98.462)" opacity="0.1"/>
        <path id="Path_562" data-name="Path 562" d="M860.363,674.379c1.45,18.892-.3,47.968-6.109,63.651a78.68,78.68,0,0,0-4.358,31.1c-2.033,1.768-4.862,2.016-7.956,1.521,1.768-12.262,9.229-65.092,14.012-106.836,5.454-47.535,30.941-80.235,30.941-80.235l5.083,5.6C878.1,596.46,860.363,674.379,860.363,674.379Z" transform="translate(-106.801 -71.659)" opacity="0.1"/>
        <path id="Path_563" data-name="Path 563" d="M929.488,336.074l-3.536,17.442-17.389,29.217-21.438-9.159s-29.173-30.526-10.829-34.884a16.23,16.23,0,0,0,6.082-2.705c3.6-2.714,4.73-6.657,4.747-10.52a32.249,32.249,0,0,0-2.953-12.5l37.5-11.775a60.2,60.2,0,0,0-2.652,15.188c-.292,10.219,3.536,15.25,6.621,17.681A11.263,11.263,0,0,0,929.488,336.074Z" transform="translate(-110.083 -38.912)" fill="#fbbebe"/>
        <path id="Path_564" data-name="Path 564" d="M923.465,301.19a60.193,60.193,0,0,0-2.652,15.188,28.534,28.534,0,0,1-2.184,2.325,29.668,29.668,0,0,1-29.651,6.763,32.251,32.251,0,0,0-2.979-12.5Z" transform="translate(-111.911 -38.912)" opacity="0.1"/>
        <path id="Path_565" data-name="Path 565" d="M925.469,291.871a29.518,29.518,0,1,1-8.647-21.007,29.659,29.659,0,0,1,8.647,21.007Z" transform="translate(-109.609 -34.393)" fill="#fbbebe"/>
        <path id="Path_566" data-name="Path 566" d="M929.488,340.382l-3.536,17.442-17.389,29.217-21.438-9.159S857.952,347.357,876.3,343a16.23,16.23,0,0,0,6.082-2.705c-3.306,9.088,10.343,28,10.343,28,1.591,2.343,5.233.884,5.233.884,8.8-1.335,24.983-26.627,27.626-30.835a11.262,11.262,0,0,0,3.907,2.042Z" transform="translate(-110.083 -43.22)" opacity="0.1"/>
        <path id="Path_567" data-name="Path 567" d="M943.271,530.363c-5.163,1.176-33.726,7.5-44.555,5.914-11.917-1.768-35.087-2.9-35.087-2.9s-14.755.8-19.3-1.282v-.884l8.416-10.078s81.4-6.109,87.519,0C941.795,522.663,942.723,526.076,943.271,530.363Z" transform="translate(-107.078 -64.103)" opacity="0.1"/>
        <path id="Path_568" data-name="Path 568" d="M887.055,369.2s-15.338-21.217-9.556-29.527l-25.911,10.608s-15.594-1.892-21.217,21.385a40.5,40.5,0,0,0-.964,11.811c.212,3.536-.265,9.724-4.27,17.681-6.392,12.792-4.942,42.16,8.142,45.086S851,447.7,851,447.7s-1.768,53.2-9.3,59.31,19.272,4.65,19.272,4.65,23.171,1.167,35.1,2.908,45.351-6.109,45.351-6.109-4.942-22.384-6.692-36.626-5.826-44.582-5.826-44.582l29.651-40.171s5.234-24.276-13.084-35.034-25.2-13.393-25.2-13.393-18.406,29.969-28,31.419C892.288,370.069,888.646,371.536,887.055,369.2Z" transform="translate(-104.426 -43.256)" fill="#ff7b60"/>
        <path id="Path_569" data-name="Path 569" d="M856.532,382.74s-.283,9.6,1.459,13.375,8.142,24.753,8.142,24.753H851.59s7.85-8.434,7.276-12.509S856.532,382.74,856.532,382.74Z" transform="translate(-107.92 -48.369)" opacity="0.1"/>
        <path id="Path_570" data-name="Path 570" d="M899.782,459.285s-32.108-7.85-35.1-14.534S853.45,423.1,853.45,423.1l3.386-4.562,15.612,12.253s18.565,14.825,27.334,16.284S899.782,459.285,899.782,459.285Z" transform="translate(-108.136 -52.52)" fill="#fbbebe"/>
        <path id="Path_571" data-name="Path 571" d="M899.782,459.285s-32.108-7.85-35.1-14.534S853.45,423.1,853.45,423.1l3.386-4.562,15.612,12.253s18.565,14.825,27.334,16.284S899.782,459.285,899.782,459.285Z" transform="translate(-108.136 -52.52)" opacity="0.05"/>
        <path id="Path_572" data-name="Path 572" d="M929.652,421.855V439.27h-2.794a81.409,81.409,0,0,0-39.548,10.245l-5.237,2.9-1.406.787L871.65,432.87l8.434-7.559h.433c2.06.2,10.98.946,14.763-.327,3.589-1.22,8.045-5.083,18.618-2.387,5.207,1.335,9.663,7.17,14.71,5.348Z" transform="translate(-110.247 -52.882)" fill="#fbbebe"/>
        <path id="Path_573" data-name="Path 573" d="M960.7,383.408l5.808,6.542V405.8s-4.942,50-20.633,55.526-43.724-3.2-43.724-3.2-7.24-19.184-3.854-20.333,29.925-8.168,29.925-8.168-.371-29.332,5.437-38.058c0,0-3.775-27.326,9.309-27.909S960.7,383.408,960.7,383.408Z" transform="translate(-113.232 -46.154)" opacity="0.1"/>
        <path id="Path_574" data-name="Path 574" d="M961.7,383.408l5.817,6.542V405.8s-4.942,50-20.642,55.526-43.724-3.2-43.724-3.2-7.24-19.184-3.846-20.333,29.925-8.168,29.925-8.168-.38-29.332,5.437-38.058c0,0-3.784-27.326,9.3-27.909S961.7,383.408,961.7,383.408Z" transform="translate(-113.348 -46.154)" fill="#ff7b60"/>
        <path id="Path_575" data-name="Path 575" d="M918.131,304.445a11.685,11.685,0,0,0-.663-5.667c-.822-1.768-2.74-3.1-4.615-2.652-2.484.583-3.536,3.819-5.994,4.6-2.06.654-4.305-.8-5.3-2.723s-1.008-4.173-1.008-6.33v-7.284c0-2.652-.088-5.5-1.715-7.576-2.024-2.581-6.789-3.713-9.972-3.607a8.46,8.46,0,0,0-5.693,2.29c-1.7,1.45-3.669,2.511-5.985,2.131a5.154,5.154,0,0,1-4.173-3.607v-.088a29.651,29.651,0,1,1,44.078,39.357,79.945,79.945,0,0,0,1.043-8.84Z" transform="translate(-110.404 -34.379)" opacity="0.1"/>
        <path id="Path_576" data-name="Path 576" d="M876.174,274.406a5.2,5.2,0,0,1-4.182-3.616c-.239-.937-.177-1.936-.451-2.864-.681-2.29-3.121-3.474-4.756-5.216-3.271-3.474-3.059-9.185-.743-13.367,1.874-3.368,5.5-6.188,9.3-5.552,2.352.407,4.42,2.077,6.772,2.237s4.42-1.14,6.48-2.1A24.417,24.417,0,0,1,904.7,242.5a9.282,9.282,0,0,1,4.42,2.237,38.663,38.663,0,0,1,2.36,3.315c2.705,3.448,7.558,4.128,11.881,4.906s9.212,2.493,10.608,6.648c.946,2.758,0,5.746-.513,8.611a2.6,2.6,0,0,0,.115,1.768c.681,1.114,2.369.645,3.642.884,2.449.522,3.076,3.678,3.174,6.188q.15,4.3.23,8.6a10.952,10.952,0,0,1-.256,3.182,11.235,11.235,0,0,1-2.466,4l-9.6,11.537c-4.261,5.11-8.779,11.068-7.956,17.681-2.016.884-4.42-.84-5.074-2.953s-.133-4.42.318-6.551a80.308,80.308,0,0,0,1.538-11.36,11.651,11.651,0,0,0-.663-5.658c-.822-1.768-2.74-3.1-4.615-2.652-2.493.583-3.536,3.819-5.994,4.6-2.06.654-4.305-.8-5.3-2.723s-1.008-4.164-1.008-6.321v-7.293c0-2.652-.088-5.5-1.715-7.576-2.024-2.581-6.789-3.713-9.972-3.607a8.46,8.46,0,0,0-5.684,2.29C880.462,273.717,878.49,274.786,876.174,274.406Z" transform="translate(-109.396 -32.019)" fill="#7c5c5c"/>
        <path id="Path_577" data-name="Path 577" d="M885.3,381.92l9.106,37.4S901.584,419.279,885.3,381.92Z" transform="translate(-111.83 -48.274)" opacity="0.1"/>
        <path id="Path_578" data-name="Path 578" d="M919.4,374.85s-11.917,19.519-7.267,39.711l2.219.159S910.387,405.376,919.4,374.85Z" transform="translate(-114.816 -47.454)" opacity="0.1"/>
        <path id="Path_579" data-name="Path 579" d="M929,499.684s14.64-4.845,15.7,6.392C944.736,506.075,941.978,498.375,929,499.684Z" transform="translate(-116.897 -61.81)" opacity="0.1"/>
        <path id="Path_580" data-name="Path 580" d="M877.907,426.81S875,447.143,880.232,455.3a63.762,63.762,0,0,1-25.584,3.492L852.88,426.81Z" transform="translate(-108.07 -53.479)" opacity="0.1"/>
        <path id="Path_581" data-name="Path 581" d="M882.073,452.895l-1.406.787-9.017-20.333,8.434-7.559h.433C880.384,426.8,878.033,444.275,882.073,452.895Z" transform="translate(-110.247 -53.361)" opacity="0.1"/>
        <path id="Path_582" data-name="Path 582" d="M876.8,425.83s-2.908,20.333,2.325,28.484a63.575,63.575,0,0,1-25.584,3.492L843.37,425.83Z" transform="translate(-106.967 -53.366)" fill="#ff7b60"/>
        <path id="Path_583" data-name="Path 583" d="M843.707,806.72a6.586,6.586,0,0,1-5.649,5.764c-7.894,1.176-26.91,4.182-31.71,6.471-6.109,2.908-30.234.884-31.4-2.033a4.615,4.615,0,0,1,.416-3.536,9.318,9.318,0,0,1,3.9-4.19,10.343,10.343,0,0,1,1.768-.778c4.544-1.512,13.128-4.729,15.444-8.107,0,0,10.706-9.362,13.755-14.419a6.984,6.984,0,0,1,5.587-3.483c2.546-.115,5.384,1.167,6.551,6.745,0,0,13.941,7.956,17.681.981,0,0,.583,10.715,2.9,13.65h0A3.89,3.89,0,0,1,843.707,806.72Z" transform="translate(-99.012 -94.715)" fill="#a27772"/>
        <path id="Path_584" data-name="Path 584" d="M843.707,809.525a6.586,6.586,0,0,1-5.649,5.764c-7.894,1.176-26.91,4.182-31.71,6.471-6.109,2.908-30.234.884-31.4-2.033a4.615,4.615,0,0,1,.416-3.536,9.318,9.318,0,0,1,3.9-4.19c3.934,2.652,12.668,5.163,31.878,2.166,18.326-2.864,27.405-5.667,31.825-7.576h0a3.89,3.89,0,0,1,.743,2.935Z" transform="translate(-99.012 -97.52)" opacity="0.1"/>
        <g id="Group_94" data-name="Group 94" transform="translate(754.892 223.478)" opacity="0.1">
          <path id="Path_585" data-name="Path 585" d="M942.469,271.265v-.141a26.034,26.034,0,0,0,.884-6.6,43.577,43.577,0,0,1-.884,5.3A3.218,3.218,0,0,0,942.469,271.265Z" transform="translate(-873.342 -258.137)"/>
          <path id="Path_586" data-name="Path 586" d="M916.448,297.639a8.408,8.408,0,0,1,.716,3.324,10.024,10.024,0,0,0-.716-4.632c-.813-1.768-2.732-3.1-4.606-2.652-2.493.583-3.536,3.819-6,4.6-2.051.654-4.3-.8-5.3-2.723s-1.008-4.173-1.008-6.33v-7.284c0-2.652-.088-5.5-1.715-7.576-2.033-2.59-6.789-3.713-9.972-3.616a8.469,8.469,0,0,0-5.693,2.3c-1.706,1.45-3.669,2.511-5.994,2.131a5.181,5.181,0,0,1-4.173-3.607c-.239-.937-.177-1.945-.451-2.873-.681-2.281-3.121-3.474-4.756-5.207a9.521,9.521,0,0,1-2.449-6.188,9.91,9.91,0,0,0,2.449,7.452c1.635,1.768,4.075,2.926,4.756,5.207.274.884.212,1.936.451,2.873a5.18,5.18,0,0,0,4.173,3.607c2.325.38,4.288-.681,5.994-2.131a8.469,8.469,0,0,1,5.693-2.3c3.182-.1,7.956,1.026,9.972,3.616,1.627,2.077,1.706,4.933,1.715,7.576v7.284c0,2.157,0,4.42,1.008,6.321s3.227,3.386,5.3,2.732c2.44-.778,3.536-4.014,6-4.6C913.716,294.536,915.634,295.932,916.448,297.639Z" transform="translate(-864.285 -257.3)"/>
          <path id="Path_587" data-name="Path 587" d="M947.69,293.633a11.175,11.175,0,0,1-2.475,4l-9.6,11.537c-4.04,4.853-8.31,10.476-7.956,16.673.292-5.684,4.252-10.856,7.956-15.365l9.6-11.537a11.174,11.174,0,0,0,2.475-4,11.034,11.034,0,0,0,.256-3.191,8.4,8.4,0,0,1-.257,1.883Z" transform="translate(-871.632 -261.295)"/>
          <path id="Path_588" data-name="Path 588" d="M921.958,327.906a6.8,6.8,0,0,1-.292-1.556,7.84,7.84,0,0,0,.292,2.864c.654,2.1,3.05,3.846,5.074,2.944a12.393,12.393,0,0,1-.106-1.273C924.911,331.69,922.577,329.975,921.958,327.906Z" transform="translate(-870.936 -265.307)"/>
        </g>
        <path id="Path_589" data-name="Path 589" d="M812.69,789.36s3.041,5.3,14.056.636" transform="translate(-103.409 -95.522)" opacity="0.1"/>
        <path id="Path_590" data-name="Path 590" d="M918,790.82s9.495,11.183,21.464,3.669" transform="translate(-115.622 -95.692)" opacity="0.1"/>
        <path id="Path_591" data-name="Path 591" d="M948.351,641.23s-6.71,4.19-6.922,6.586,3.465-1.768,3.465-1.768Z" transform="translate(-118.337 -78.344)" opacity="0.1"/>
        <path id="Path_592" data-name="Path 592" d="M950.68,677.59a14.029,14.029,0,0,1-8.266,3.227c-5.021.221-4.6,6.763-1.317,4.8S950.68,677.59,950.68,677.59Z" transform="translate(-118.014 -82.561)" opacity="0.1"/>
        <path id="Path_593" data-name="Path 593" d="M952.935,682.34s-3.218,15.815-5.835,12.766" transform="translate(-118.996 -83.112)" opacity="0.1"/>
        <path id="Path_594" data-name="Path 594" d="M249.21,748.4s20.2,5.543,29.925-1.83,13.941-5,13.941-5,23.188-1.282,25.1-6.763-8.893-25.389-8.893-25.389c-.769-1.768-1.892-4.014-2.4-4.014l.106-8.4h0l3.359-35.14c7.753-19.882.141-45.572.141-45.572L309.1,609.92a16.125,16.125,0,0,1,1.317-10.608L324.5,571.022a42.338,42.338,0,0,1,2.652-5.428c.884-1.618,2.06-3.616,3.536-6.011.433-.69.884-1.406,1.379-2.157,1.706-2.652,3.775-5.658,6.277-9.123,6.232-8.637,9.512-19.449,11.21-27.405l.751,2.493h.168l.2.044h.336l.362.062h.133l4.332,55.128c.265,21.5,8.16,33.4,8.16,33.4l-1.087,47.464c1.485,11.431-1.768,26.671-3.262,32.753l-3.412,7.7a9.256,9.256,0,0,0-5.03,7c-.672,5.684-6.657,17.937-6.657,17.937-2.316,2.935-7.346,10.865-7.346,10.865s-2.369,7.656-.9,10.52,13.738,2.573,13.738,2.573c14.012,3.1,24.753-4.42,24.072-9.6s2.184-6.5,2.184-6.5c5.569-1.768,5.03-5.543,5.03-5.543a34.69,34.69,0,0,0-4.217-22.578l-.884,2.042a31.091,31.091,0,0,1,1.68-12.049l-.513.354-.159.1h-.053c.884-7.753,9.026-22.1,9.026-22.1,14.958-26.238,9.521-61.794,9.521-61.794l-2.316-11.086-.133-4.181a139.561,139.561,0,0,1,2.254-29.792c.8-4.349,1.635-9.6,2.272-15.391,1.344-12.235,5.675-24.859,7.673-30.207l.592-.106h.071c.813-.141,1.635-.283,2.466-.442h.159s.477-2.581.884-6.975c.239-2.8.433-6.356.433-10.44a117.463,117.463,0,0,0-5.578-36.343l.451-.645s1.07-1.45,3.023-3.961h0c3.589-4.562,9.176-11.492,16.063-19.307C436.378,428.224,432.753,414,432.753,414s-8.929-32.718-12.907-52.361a59.547,59.547,0,0,0-9.8-23.294,46.356,46.356,0,0,0,1.238-9.442c.265-5.817.062-11.881-2.555-17.106s-8.186-9.353-14-8.655a5.358,5.358,0,0,1-2.511,0,3.819,3.819,0,0,1-1.653-1.441c-3.4-4.694-3.625-11.006-2.564-16.7s3.236-11.139,4.208-16.85.53-12.049-3.1-16.576c-4.27-5.3-11.714-6.8-17.265-10.785-3.9-2.8-6.825-6.825-10.936-9.309s-7.956-1.538-12.421-.6c-7.505,1.582-14.64,2.307-21.738,5.534A57.9,57.9,0,0,0,307.8,250.2a17.981,17.981,0,0,0-4.226,6.666c-1.768,5.843,1.688,12.067.964,18.114-.513,4.288-3.041,8.018-5.048,11.846s-3.536,8.372-1.963,12.376c2.475,6.259,10.547,7.585,16.417,10.918a5.012,5.012,0,0,1,1.945,1.689c1.45,2.528-1.512,5.154-3.377,7.4a11.148,11.148,0,0,0-2.21,4.491,16.019,16.019,0,0,0-9.609,11.6c-1.989,8.9,1.07,20.138,3.766,27.564-2.944,16.54.884,23.064,3.7,25.566a14.189,14.189,0,0,1,4.915,9.671v.309c.186,3.006.5,6,.928,8.991h0c-.1-.7-.195-1.441-.248-1.768-2.307,4.27-6.7,15.179-9.176,33.531a100.785,100.785,0,0,1-2.237,11.678,63.864,63.864,0,0,0-1.874,20.881l.442,5.95a1.874,1.874,0,0,1-1.2-.4l3.1,5.684v9.592a35.363,35.363,0,0,1-2.352,12.651c-.221.583-.46,1.167-.716,1.768a10.29,10.29,0,0,0-1.043,5.207c-6.674,10.228-21.977,67.549-21.977,67.549-8.3,18.795.681,30.941.681,30.941s4.349,52.326,5.163,55.031,2.617,34.6,2.617,34.6h0v2.537a5.951,5.951,0,0,0-1.512-.433c-7.276-.407-9.247,11.086-9.247,11.086L259.544,727.7s-6.8-1.149-16.8,6.356S249.21,748.4,249.21,748.4ZM397.86,445.984l-.044-.159-.407.239h0l-.168.1-.08.053h0L390.3,422a40.207,40.207,0,0,1-.5-19.917l5.3-23.232h0v-5.587l16.859,44.927C413.039,424.246,403.023,438.912,397.86,445.984Z" transform="translate(-36.943 -30.644)" fill="url(#linear-gradient-5)"/>
        <path id="Path_595" data-name="Path 595" d="M419.886,557s-6.807,16.558-8.54,32.444c-.628,5.729-1.441,10.909-2.237,15.205a138.951,138.951,0,0,0-2.175,29.412l.133,4.128,2.21,10.935s5.3,35.123-9.344,61c0,0-8.681,15.5-8.946,22.835l-5.879,2.272L373.226,731.9s5.737-20.572,3.872-34.99l1.07-46.854s-7.718-11.722-7.983-32.939l-4.535-58.223Z" transform="translate(-51.569 -68.577)" fill="#fdc2cc"/>
        <path id="Path_596" data-name="Path 596" d="M355.6,547.62s-1.459,22.7-12.686,38.349S329.3,608.406,329.3,608.406L315.47,636.359a16.01,16.01,0,0,0-1.3,10.458l1.361,6.294s7.479,25.372-.133,45.006l-3.607,37.925H290.7s-1.768-31.516-2.537-34.186-5.074-54.351-5.074-54.351-8.84-12.023-.672-30.579c0,0,18.432-69.441,23.365-68.239S355.6,547.62,355.6,547.62Z" transform="translate(-41.515 -67.489)" fill="#fdc2cc"/>
        <g id="Group_95" data-name="Group 95" transform="translate(268.138 480.131)" opacity="0.1">
          <path id="Path_597" data-name="Path 597" d="M317.419,653.156l-1.353-6.294a15.912,15.912,0,0,1,1.291-10.5l13.826-27.98s2.4-6.807,13.614-22.437c10.776-15.029,12.553-36.564,12.677-38.217l2.148-.106s-1.459,22.7-12.686,38.349-13.614,22.437-13.614,22.437L319.5,636.359a16.01,16.01,0,0,0-1.3,10.458l1.361,6.294s7.479,25.372-.133,45.006l-3.607,37.925H313.68l3.607-37.925C324.9,678.484,317.419,653.156,317.419,653.156Z" transform="translate(-313.68 -547.62)"/>
        </g>
        <path id="Path_598" data-name="Path 598" d="M391.272,732.985c.265-7.337,8.946-22.835,8.946-22.835,14.693-25.9,9.344-61,9.344-61L407.3,638.207l-.133-4.128a138.952,138.952,0,0,1,2.175-29.412c.787-4.3,1.6-9.477,2.228-15.205,1.671-15.294,8.045-31.206,8.513-32.373l2.192-.088s-6.807,16.558-8.54,32.444c-.628,5.729-1.441,10.909-2.237,15.205a138.951,138.951,0,0,0-2.175,29.412l.133,4.128,2.21,10.935s5.3,35.123-9.344,61c0,0-8.681,15.5-8.946,22.835L387.5,735.23l-1.238-.345Z" transform="translate(-53.959 -68.577)" opacity="0.1"/>
        <path id="Path_599" data-name="Path 599" d="M382.458,755.319a10.219,10.219,0,0,0,9.724-1.2,31.384,31.384,0,0,0-.8,17.628c2.4,9.618-22.437-7.744-22.437-7.744l5.3-12.12S376.314,755.717,382.458,755.319Z" transform="translate(-51.951 -91.176)" fill="#d39999"/>
        <path id="Path_600" data-name="Path 600" d="M384.308,755.855a9.927,9.927,0,0,0,7.894-1.768,31.383,31.383,0,0,0-.8,17.628c2.4,9.618-22.437-7.744-22.437-7.744l5.3-12.12s1.538,2.953,6.056,3.412C381.7,755.422,383.009,755.607,384.308,755.855Z" transform="translate(-51.954 -91.172)" opacity="0.1"/>
        <path id="Path_601" data-name="Path 601" d="M289.32,473.592H299.7V414.707l-7.788-1.4Z" transform="translate(-15.17 -34.109)" fill="#fdc2cc"/>
        <path id="Path_602" data-name="Path 602" d="M289.32,473.592H299.7V414.707l-7.788-1.4Z" transform="translate(-15.17 -34.109)" opacity="0.05"/>
        <path id="Path_603" data-name="Path 603" d="M374.2,760.771s6.542-.407,9.477,5.472l3.607,2.8,1.768-4.137a34.478,34.478,0,0,1,4.084,22.3s.53,3.731-4.942,5.472c0,0-2.8,1.335-2.139,6.409s-9.875,12.553-23.63,9.477c0,0-12.023.274-13.49-2.537s.937-10.281.937-10.281,4.942-7.833,7.2-10.723c0,0,5.879-12.111,6.551-17.681S370.729,757.7,374.2,760.771Z" transform="translate(-49.576 -92.084)" fill="#7e5659"/>
        <path id="Path_604" data-name="Path 604" d="M313.413,765.352l.106-8.3s-11.943,3.439-21.615-.451c0,0,.813,8.345-.53,9.486s4.473,11.881,4.473,11.881l6.5,6.807,11.174-4.067,3.032-9.548S314.208,765.352,313.413,765.352Z" transform="translate(-42.932 -91.723)" fill="#d39999"/>
        <path id="Path_605" data-name="Path 605" d="M313.413,765.352l.106-8.3s-11.943,3.439-21.615-.451c0,0,.813,8.345-.53,9.486s4.473,11.881,4.473,11.881l6.5,6.807,11.174-4.067,3.032-9.548S314.208,765.352,313.413,765.352Z" transform="translate(-42.932 -91.723)" opacity="0.1"/>
        <path id="Path_606" data-name="Path 606" d="M284.883,763.1s6.347.734,5.543,8.84.336,0,.336,0,6.745,2.732,9.15,6.542,6.745-3.4,7.072-5.472,3.032-2.926,3.032-2.926,10.608,19.67,8.734,25.08-24.647,6.657-24.647,6.657-4.146-2.334-13.694,4.942-29.376,1.768-29.376,1.768-16.16-6.745-6.339-14.145,16.487-6.277,16.487-6.277L275.8,774.017S277.74,762.692,284.883,763.1Z" transform="translate(-37.175 -92.476)" fill="#7e5659"/>
        <path id="Path_607" data-name="Path 607" d="M368.075,236.882c4.04,2.449,6.913,6.427,10.741,9.194,5.446,3.934,12.757,5.4,16.947,10.653,3.536,4.473,4,10.723,3.041,16.363s-3.094,11.024-4.128,16.646-.822,11.855,2.52,16.487a3.74,3.74,0,0,0,1.618,1.423,5.3,5.3,0,0,0,2.466,0c5.711-.69,11.192,3.395,13.756,8.549s2.767,11.148,2.5,16.894c-.221,4.712-.751,9.521-2.82,13.764-3.536,7.214-10.891,11.669-18.149,15.082a140.569,140.569,0,0,1-14.489,5.852c-3.395,1.149-6.975,2.184-10.5,1.582-6.038-1.043-10.317-6.533-16.045-8.681-4.694-1.768-9.9-1.132-14.9-.69-4.261.371-9.132.362-12.067-2.749-3.766-4-2.069-10.44-.141-15.586a11.095,11.095,0,0,1-7.85-18.14c1.821-2.219,4.73-4.809,3.306-7.311a4.844,4.844,0,0,0-1.91-1.662c-5.755-3.289-13.685-4.606-16.107-10.776-1.556-3.969-.053-8.46,1.918-12.235s4.42-7.47,4.959-11.7c.707-5.976-2.652-12.12-.946-17.884a17.928,17.928,0,0,1,4.146-6.595,56.9,56.9,0,0,1,18.565-13.605c6.975-3.191,13.968-3.907,21.341-5.463C360.269,235.361,363.929,234.371,368.075,236.882Z" transform="translate(-44.561 -31.27)" fill="#865a61"/>
        <path id="Path_608" data-name="Path 608" d="M329.49,337.759s-16.912-.884-20.112,13.535,6.94,35.07,6.94,35.07Z" transform="translate(-44.971 -43.151)" fill="#fdc2cc"/>
        <path id="Path_609" data-name="Path 609" d="M329.49,337.759s-16.912-.884-20.112,13.535,6.94,35.07,6.94,35.07Z" transform="translate(-44.971 -43.151)" opacity="0.05"/>
        <path id="Path_610" data-name="Path 610" d="M320,376.084l6.409,5.074,29.907,1.335,18.671-12.819,18.989-32.586c-11.607-2.962-16.3-10.98-18.052-18.476a40.453,40.453,0,0,1-.371-15.435s-30.446-15.762-26.707,8.84a33.416,33.416,0,0,1,.283,9.141c-1.768,14.41-15.754,11.7-15.754,11.7l-5.366,8.275-6.144,20.333Z" transform="translate(-46.275 -38.566)" fill="#fdc2cc"/>
        <path id="Path_611" data-name="Path 611" d="M352.618,311.982a33.417,33.417,0,0,1,.283,9.141,26.99,26.99,0,0,0,26.8-2.511,40.454,40.454,0,0,1-.371-15.435S348.879,287.415,352.618,311.982Z" transform="translate(-50.02 -38.565)" opacity="0.1"/>
        <circle id="Ellipse_116" data-name="Ellipse 116" cx="26.972" cy="26.972" r="26.972" transform="translate(287.127 229.984)" fill="#fdc2cc"/>
        <path id="Path_612" data-name="Path 612" d="M340.427,375.419c.654,0,1.3.1,1.945.159,3.536.354,18.308,1.149,26.724-8.9,9.415-11.245,21.951-25.133,22.463-25.7l12.757,3.854s-10.1-3.589-16.8,15.188a19.449,19.449,0,0,0,6.568,22.375,20.209,20.209,0,0,0,8.345,3.536.044.044,0,0,1,0,.044v8.239h0L397.218,417.2a39.843,39.843,0,0,0,.5,19.67l7.956,28.121c-1.2.831-50.567,34.407-83.541,11.218h0c.124-1.008,4.2-34.009,1.37-50.16a111.537,111.537,0,0,1-1.476-12.483c0-.106,0-.2,0-.309a14.074,14.074,0,0,0-4.836-9.548c-2.97-2.652-6.993-9.724-3.015-28.413a68.653,68.653,0,0,1,4.42-13.464l11.059-24.992h0l10.193.2v.071c-.884,1.1-12.7,15.86-13.985,25.372C324.6,371.53,323.056,374.305,340.427,375.419Z" transform="translate(-45.406 -43.046)" fill="#ff7b60"/>
        <path id="Path_613" data-name="Path 613" d="M419.578,350.22s9.972,8.549,13.888,27.953,12.642,51.637,12.642,51.637,3.536,14.065-8.549,27.953-20.121,24.753-20.121,24.753l-7.956,11.722a9.98,9.98,0,0,1-5.729,4.049c-3.625.955-9.194,1.644-14.021-1a8.169,8.169,0,0,1-3.536-10.317l1.768-4.093s-16.381,10.326-17.8,4.624,19.051-11.4,19.051-11.4,16.912-2.847,20.333-10.856c0,0,18.158-23.33,16.735-31.339l-17.539-47s-21.933-2.9-14.454-27.538S419.578,350.22,419.578,350.22Z" transform="translate(-52.083 -44.04)" fill="#fdc2cc"/>
        <path id="Path_614" data-name="Path 614" d="M307.42,542.762s40.064,8.009,49.506,6.94l1.017,3.386s15.205,3.4,49.586-2.051q3.368-.53,6.993-1.193l.8-.141s.469-2.546.84-6.887c.822-9.857,1.114-28.943-5.826-48.48l-5.782-17.8s-35.733,21.42-59.389,19.449c-2.113-.177-4.208-.345-6.321-.415-4.853-.186-12.376,0-17.265-3.916l-10.255,1.768v29.173a34.954,34.954,0,0,1-2.316,12.483c-.221.583-.451,1.158-.707,1.768A9.283,9.283,0,0,0,307.42,542.762Z" transform="translate(-44.799 -59.245)" fill="#5895ff"/>
        <path id="Path_615" data-name="Path 615" d="M364.58,552.7v9.079s17.5,3.916,57.383-3.386c0,0,.469-2.546.84-6.887C410.568,553.473,376.824,558.193,364.58,552.7Z" transform="translate(-51.445 -67.94)" opacity="0.1"/>
        <path id="Path_616" data-name="Path 616" d="M307.421,550.446s40.064,8.009,49.506,6.94l1.017,3.386v-9.079c-4.562,1.892-37.129-5.958-48.931-8.9-.221.583-.451,1.158-.707,1.768a9.283,9.283,0,0,0-.884,5.888Z" transform="translate(-44.799 -66.929)" opacity="0.1"/>
        <path id="Path_617" data-name="Path 617" d="M417.31,539.253l2.97,18.423q3.368-.53,6.993-1.193c-.928-5.384-2.953-17.681-2.4-19.723l-3.74-3.2Z" transform="translate(-57.559 -65.858)" fill="#4f86e5"/>
        <g id="Group_96" data-name="Group 96" transform="translate(275.06 417.258)" opacity="0.05">
          <path id="Path_619" data-name="Path 619" d="M344.672,497.952c-2.1-.177-4.208-.345-6.321-.415-4.721-.177-11.926,0-16.841-3.616l1.715-.3c4.915,3.9,12.376,3.731,17.265,3.916,2.113.071,4.208.239,6.321.415.69.062,1.4.1,2.113.115a39.661,39.661,0,0,1-4.252-.115Z" transform="translate(-321.51 -478.485)"/>
          <path id="Path_620" data-name="Path 620" d="M413.8,551.033q3.368-.53,6.993-1.185l.813-.15s.469-2.546.831-6.887c.831-9.857,1.123-28.943-5.826-48.48l-5.446-16.8c1.158-.654,1.768-1.034,1.768-1.034l5.782,17.8c6.94,19.537,6.648,38.623,5.826,48.481-.371,4.341-.84,6.887-.84,6.887l-.8.15q-3.616.654-6.993,1.185A220.212,220.212,0,0,1,379.88,554.1,227.2,227.2,0,0,0,413.8,551.033Z" transform="translate(-328.279 -476.5)"/>
          <path id="Path_621" data-name="Path 621" d="M360.849,559.3v.1H359.7Q360.354,559.353,360.849,559.3Z" transform="translate(-325.939 -486.102)"/>
        </g>
        <ellipse id="Ellipse_117" data-name="Ellipse 117" cx="1.512" cy="3.112" rx="1.512" ry="3.112" transform="translate(363.216 470.61)" fill="#d39999"/>
        <path id="Path_622" data-name="Path 622" d="M313.248,464.747c2.44-18.123,6.745-28.89,9.017-33.107.088.575.318,2.44.424,3.015.46,2.652.053,5.994.194,9.362L320.621,485l3.032,12.819c2.847,10.149-7.7,2.131-7.7,2.131-2.184,4.809-6.188,4.279-6.188,4.279l-.548-7.355a63.527,63.527,0,0,1,1.839-20.625,98.276,98.276,0,0,0,2.192-11.5Z" transform="translate(-45.004 -54.039)" fill="#fdc2cc"/>
        <path id="Path_623" data-name="Path 623" d="M313.248,464.747c2.44-18.123,6.745-28.89,9.017-33.107.088.575.318,2.44.424,3.015.46,2.652.053,5.994.194,9.362L320.621,485l3.032,12.819c2.847,10.149-7.7,2.131-7.7,2.131-2.184,4.809-6.188,4.279-6.188,4.279l-.548-7.355a63.527,63.527,0,0,1,1.839-20.625,98.276,98.276,0,0,0,2.192-11.5Z" transform="translate(-45.004 -54.039)" opacity="0.05"/>
        <path id="Path_624" data-name="Path 624" d="M421.979,491.718c-1.918,2.484-2.97,3.907-2.97,3.907l-7.956,11.713a9.936,9.936,0,0,1-5.729,4.049c-3.625.955-9.194,1.653-14.021-1a8.151,8.151,0,0,1-3.536-10.308l1.768-4.1s-16.381,10.326-17.8,4.632,19.051-11.4,19.051-11.4,16.912-2.847,20.333-10.865c0,0,1.476-1.892,3.536-4.792" transform="translate(-52.266 -58.901)" fill="#fdc2cc"/>
        <path id="Path_625" data-name="Path 625" d="M413.6,514.61s-19.369-1.883-25.5-12.96l-2.811,9.15s20.333,14.038,24.974,12.217Z" transform="translate(-53.845 -62.158)" fill="#4f86e5"/>
        <path id="Path_627" data-name="Path 627" d="M316.515,510.46s-6.781,2.4-8.115,1.07l3.05,5.614,5.764-4.42Z" transform="translate(-44.93 -63.18)" fill="#4f86e5"/>
        <path id="Path_629" data-name="Path 629" d="M333.055,531.183V519.47l-2.785,12Z" transform="translate(-19.919 -46.42)" opacity="0.1"/>
        <path id="Path_630" data-name="Path 630" d="M387.624,275.733c-1.635,2.3-4.473,3.465-7.267,3.828a57.263,57.263,0,0,1-8.443,0c-4.42-.071-9.123.61-12.739,3.209a32.39,32.39,0,0,0-5.843,6.188c-5.463,6.674-13.048,12.925-21.659,12.226a5.614,5.614,0,0,1-4.023-1.7,6.453,6.453,0,0,1-1.025-3.66,83.667,83.667,0,0,1,.522-16.5,34.778,34.778,0,0,1,2.493-9.839,33.593,33.593,0,0,1,5.994-8.557,36.66,36.66,0,0,1,10.458-8.381,18.759,18.759,0,0,1,13.084-1.688c5.154,1.406,9.167,5.437,14.083,7.514C378.872,260.739,393.777,267.043,387.624,275.733Z" transform="translate(-47.021 -33.018)" opacity="0.1"/>
        <path id="Path_631" data-name="Path 631" d="M387.624,274.521c-1.635,2.3-4.473,3.465-7.267,3.828a57.263,57.263,0,0,1-8.443,0c-4.42-.08-9.123.6-12.739,3.2a32.39,32.39,0,0,0-5.843,6.188c-5.463,6.674-13.048,12.925-21.659,12.226a5.578,5.578,0,0,1-4.022-1.7,6.427,6.427,0,0,1-1.026-3.66,83.667,83.667,0,0,1,.522-16.5,34.779,34.779,0,0,1,2.493-9.839,33.364,33.364,0,0,1,5.994-8.549,36.536,36.536,0,0,1,10.458-8.389,18.759,18.759,0,0,1,13.084-1.688c5.154,1.406,9.167,5.437,14.083,7.514C378.872,259.528,393.777,265.814,387.624,274.521Z" transform="translate(-47.021 -32.877)" fill="#865a61"/>
        <path id="Path_632" data-name="Path 632" d="M292.2,473.47l-.071,3.227-.725-3.085Z" transform="translate(-15.412 -41.086)" fill="#fdc2cc"/>
        <path id="Path_633" data-name="Path 633" d="M292.2,473.47l-.071,3.227-.725-3.085Z" transform="translate(-15.412 -41.086)" opacity="0.05"/>
        <g id="Group_97" data-name="Group 97" transform="translate(340.19 302.131)" opacity="0.05">
          <path id="Path_634" data-name="Path 634" d="M399.954,357.78c-7.488,24.638,14.339,27.529,14.339,27.529l17.539,47c1.423,8.009-16.744,31.339-16.744,31.339-1.264,2.988-4.42,5.26-7.868,6.94a12.324,12.324,0,0,0,4.668-5.127s18.158-23.321,16.735-31.33l-17.539-47.013s-21.818-2.891-14.339-27.529c2.5-8.23,6.188-11.979,9.919-13.322C404.092,348.339,401.731,351.919,399.954,357.78Z" transform="translate(-395.184 -346.27)"/>
        </g>
        <g id="Group_98" data-name="Group 98" transform="translate(267.163 293.785)" opacity="0.1">
          <path id="Path_635" data-name="Path 635" d="M401,384.61a18.423,18.423,0,0,0,3.536,3.351,20.094,20.094,0,0,0,8.345,3.536v.928a20.032,20.032,0,0,1-7.567-3.351A18.344,18.344,0,0,1,401,384.61Z" transform="translate(-322.831 -342.371)"/>
          <path id="Path_636" data-name="Path 636" d="M323.866,423.463v.309a114.186,114.186,0,0,0,1.521,12.527c2.652,15.241-.822,45.5-1.317,49.683-.283-.186-.566-.362-.884-.566.133-1.008,4.208-34.009,1.379-50.151a112.026,112.026,0,0,1-1.476-12.483v-.309a13.641,13.641,0,0,0-2.378-6.763A13.746,13.746,0,0,1,323.866,423.463Z" transform="translate(-313.521 -345.977)"/>
          <path id="Path_637" data-name="Path 637" d="M339.2,338.041l-8.646-.168a.044.044,0,0,0-.044,0l-11.05,24.983a68.88,68.88,0,0,0-4.42,13.464c-3.218,15.117-1.193,22.649,1.264,26.371-2.767-3.262-5.622-10.7-2.06-27.405a68.148,68.148,0,0,1,4.376-13.473l11.13-24.983h0l10.193.2v.062C339.861,337.2,339.587,337.537,339.2,338.041Z" transform="translate(-312.577 -336.83)"/>
          <path id="Path_638" data-name="Path 638" d="M416.39,345.87l.15.044Z" transform="translate(-324.616 -337.878)"/>
          <path id="Path_639" data-name="Path 639" d="M403.018,345.228l-8.664-2.608h-.044c-.513.566-13.04,14.454-22.454,25.7-8.416,10.051-23.171,9.265-26.724,8.911-.645-.071-1.3-.124-1.945-.168-9.663-.619-13.464-1.768-14.737-4.208,1.812,1.768,5.8,2.652,13.932,3.147.654,0,1.3.1,1.945.159,3.536.354,18.308,1.14,26.724-8.9C380.467,356,393,342.116,393.515,341.55h0l12.606,3.819a7.876,7.876,0,0,0-3.1-.141Z" transform="translate(-314.418 -337.377)"/>
        </g>
        <path id="Path_640" data-name="Path 640" d="M294.86,777.381s-12.2,3.333-14.56-1.9" transform="translate(-41.671 -93.913)" opacity="0.1"/>
        <path id="Path_641" data-name="Path 641" d="M382.1,774.538s-14.145,3.651-17.416-2" transform="translate(-51.456 -93.572)" opacity="0.1"/>
        <ellipse id="Ellipse_122" data-name="Ellipse 122" cx="23.807" cy="4.022" rx="23.807" ry="4.022" transform="translate(164.839 642.82)" fill="#6c63ff" opacity="0.1"/>
      </g>
    </g>
    <path id="Path_643" data-name="Path 643" d="M16291.442,483.024c.715-.477,1.681-4.129,6.689-3.711" transform="matrix(0.978, -0.208, 0.208, 0.978, -15663.957, 3398.391)" fill="none" stroke="#707070" stroke-width="1"/>
    <path id="Path_644" data-name="Path 644" d="M16291.442,483.024c.715-.477,1.681-4.129,6.689-3.711" transform="translate(-15755.902 -1974.249) rotate(7)" fill="none" stroke="#707070" stroke-width="1"/>
    <rect id="Rectangle_147" data-name="Rectangle 147" width="3" height="6" rx="1.5" transform="translate(374.376 482.462) rotate(-19)" fill="#707070"/>
    <rect id="Rectangle_148" data-name="Rectangle 148" width="3" height="6" rx="1.5" transform="translate(358.376 490.462) rotate(-19)" fill="#707070"/>
    <path id="Path_645" data-name="Path 645" d="M16291.126,492.81s2.579,3.03,4,2.53.752,2-1.419,1.92" transform="translate(-15920)" fill="none" stroke="#707070" stroke-width="1"/>
    <path id="Path_646" data-name="Path 646" d="M16291.126,503.738s6.891-.651,9.6-5.209" transform="translate(-15921)" fill="none" stroke="#707070" stroke-width="1"/>
    <g id="Ellipse_156" data-name="Ellipse 156" transform="matrix(0.891, -0.454, 0.454, 0.891, 485.741, 389.479)" fill="none" stroke="#6e654c" stroke-width="1">
      <ellipse cx="7.205" cy="7.205" rx="7.205" ry="7.205" stroke="none"/>
      <ellipse cx="7.205" cy="7.205" rx="6.705" ry="6.705" fill="none"/>
    </g>
    <g id="Ellipse_157" data-name="Ellipse 157" transform="matrix(0.891, -0.454, 0.454, 0.891, 467.649, 398.698)" fill="none" stroke="#6e654c" stroke-width="1">
      <ellipse cx="7.205" cy="7.205" rx="7.205" ry="7.205" stroke="none"/>
      <ellipse cx="7.205" cy="7.205" rx="6.705" ry="6.705" fill="none"/>
    </g>
    <path id="Path_858" data-name="Path 858" d="M0,1.555s3.394-3.5,6.167,0" transform="matrix(0.891, -0.454, 0.454, 0.891, 483.053, 397.19)" fill="none" stroke="#6e654c" stroke-width="1"/>
    <path id="Path_859" data-name="Path 859" d="M2.2,0s.163,5.221,1.469,6.444S1.551,8.729,0,6.852" transform="matrix(0.891, -0.454, 0.454, 0.891, 486.25, 399.768)" fill="none" stroke="#707070" stroke-width="1"/>
    <path id="Path_860" data-name="Path 860" d="M.384.232s3.907,1.583,6.727,0S4.984,5.774,1.917,2.9.384.232.384.232Z" transform="matrix(0.891, -0.454, 0.454, 0.891, 488.708, 410.193)" fill="#fff"/>
    <rect id="Rectangle_228" data-name="Rectangle 228" width="1.965" height="3.275" rx="0.982" transform="matrix(0.891, -0.454, 0.454, 0.891, 493.097, 393.818)" fill="#707070"/>
    <rect id="Rectangle_229" data-name="Rectangle 229" width="1.965" height="3.275" rx="0.982" transform="matrix(0.891, -0.454, 0.454, 0.891, 479.091, 400.954)" fill="#707070"/>
    <path id="Path_861" data-name="Path 861" d="M0,0C.716.477,1.682,4.129,6.69,3.711" transform="translate(647.274 430.078) rotate(177)" fill="none" stroke="#707070" stroke-width="1"/>
    <path id="Path_862" data-name="Path 862" d="M0,0C.716.477,1.682,4.129,6.69,3.711" transform="translate(665.163 432.453) rotate(158)" fill="none" stroke="#707070" stroke-width="1"/>
    <rect id="Rectangle_230" data-name="Rectangle 230" width="3" height="6" rx="1.5" transform="matrix(-0.998, -0.07, 0.07, -0.998, 644.154, 435.528)" fill="#707070"/>
    <rect id="Rectangle_231" data-name="Rectangle 231" width="3" height="6" rx="1.5" transform="matrix(-0.998, -0.07, 0.07, -0.998, 661.68, 439.114)" fill="#707070"/>
    <path id="Path_863" data-name="Path 863" d="M16295.873,492.81s-2.579,3.03-4,2.53-.752,2,1.419,1.92" transform="matrix(0.966, -0.259, 0.259, 0.966, -15217.764, 4180.361)" fill="none" stroke="#707070" stroke-width="1"/>
    <path id="Path_864" data-name="Path 864" d="M16300.729,503.738s-6.891-.651-9.6-5.209" transform="matrix(0.966, -0.259, 0.259, 0.966, -15221.488, 4181.359)" fill="none" stroke="#707070" stroke-width="1"/>
    <path id="Path_865" data-name="Path 865" d="M0,0C.716.477,1.682,4.129,6.69,3.711" transform="translate(815.765 482.643) rotate(172)" fill="none" stroke="#707070" stroke-width="1"/>
    <path id="Path_866" data-name="Path 866" d="M0,0C.716.477,1.682,4.129,6.69,3.711" transform="matrix(-0.891, 0.454, -0.454, -0.891, 833.794, 483.449)" fill="none" stroke="#707070" stroke-width="1"/>
    <rect id="Rectangle_232" data-name="Rectangle 232" width="3" height="6" rx="1.5" transform="translate(813.132 488.344) rotate(179)" fill="#707070"/>
    <rect id="Rectangle_233" data-name="Rectangle 233" width="3" height="6" rx="1.5" transform="translate(830.904 490.388) rotate(179)" fill="#707070"/>
    <path id="Path_867" data-name="Path 867" d="M16295.873,492.81s-2.579,3.03-4,2.53-.752,2,1.419,1.92" transform="translate(-14662.042 5601.384) rotate(-20)" fill="none" stroke="#707070" stroke-width="1"/>
    <path id="Path_868" data-name="Path 868" d="M16300.729,503.738s-6.891-.651-9.6-5.209" transform="translate(-14665.665 5602.703) rotate(-20)" fill="none" stroke="#707070" stroke-width="1"/>
  </g>
</svg>
