<svg xmlns="http://www.w3.org/2000/svg" xmlns:xlink="http://www.w3.org/1999/xlink" width="766.623" height="621.463" viewBox="0 0 766.623 621.463">
  <defs>
    <linearGradient id="linear-gradient" y1="0.5" x2="1" y2="0.5" gradientUnits="objectBoundingBox">
      <stop offset="0" stop-color="gray" stop-opacity="0.251"/>
      <stop offset="0.54" stop-color="gray" stop-opacity="0.122"/>
      <stop offset="1" stop-color="gray" stop-opacity="0.102"/>
    </linearGradient>
  </defs>
  <g id="Group_124" data-name="Group 124" transform="translate(-37.494 72.073)">
    <path id="Path_700" data-name="Path 700" d="M1002.073,691.492s-8.59-5.668-17.1-1.636c0,0,2.621,5.046,13.4,4.571Z" transform="translate(-319.252 -253.707)" fill="#6c63ff"/>
    <path id="Path_701" data-name="Path 701" d="M1008.547,693.25s2.614,9.953-3.942,16.726c0,0-3.942-4.1,0-14.154Z" transform="translate(-324.636 -255.165)" fill="#6c63ff"/>
    <path id="Path_702" data-name="Path 702" d="M1017.772,676.9s-.636-8.464-19.752-5.654c0,0-.091,5.459,6.619,8.045S1014.424,679.694,1017.772,676.9Z" transform="translate(-323.181 -248.367)" fill="#6c63ff"/>
    <path id="Path_703" data-name="Path 703" d="M1025.586,679.5s8.08,2.593.874,20.521c0,0-5.333-1.188-6.291-8.324S1022.049,682.1,1025.586,679.5Z" transform="translate(-329.792 -251.025)" fill="#6c63ff"/>
    <path id="Path_704" data-name="Path 704" d="M1035.486,656.89s1.1-13.93-18.438-12.5c0,0-1.4,12.581,14.992,15.852Z" transform="translate(-328.9 -240.423)" fill="#6c63ff"/>
    <path id="Path_705" data-name="Path 705" d="M1052.346,634.668s-2.677-15.789-22.206-11.085c0,0-.07,13.65,19.019,14.846Z" transform="translate(-332.85 -233.928)" fill="#6c63ff"/>
    <path id="Path_718" data-name="Path 718" d="M1042.836,662.151s13.853-1.81,13.441,17.767c0,0-12.518,2.041-16.607-14.154Z" transform="translate(-335.719 -245.789)" fill="#6c63ff"/>
    <g id="Group_125" data-name="Group 125">
      <path id="Path_706" data-name="Path 706" d="M1065.144,611.548s-4.487-15.377-23.834-10.778c0,0,4.606,13.832,22.548,13.615Z" transform="translate(-336.215 -227.065)" fill="#5191ff"/>
      <path id="Path_707" data-name="Path 707" d="M1078.3,588.639s-4.382-15.957-23.065-11.183c0,0,6.235,15.16,21.828,13.881Z" transform="translate(-340.404 -220.036)" fill="#5191ff"/>
      <path id="Path_708" data-name="Path 708" d="M1087.537,565.446s-3.369-19.515-20.787-15.2c0,0,5.06,17.753,19.508,18.04Z" transform="translate(-343.873 -211.927)" fill="#5191ff"/>
      <path id="Path_709" data-name="Path 709" d="M1094.907,539.724s-4.047-19.668-21.667-13.979c0,0,6.906,18.592,20.416,16.67Z" transform="translate(-345.826 -204.426)" fill="#5191ff"/>
      <path id="Path_710" data-name="Path 710" d="M1100.366,513.68s-6.423-19.675-20.046-19.144c0,0,6.563,20.78,18.906,23.065Z" transform="translate(-347.959 -195.338)" fill="#5191ff"/>
      <path id="Path_711" data-name="Path 711" d="M1104.295,488.793s-6.99-23.68-18.075-21.856c0,0,4.837,18.1,17.683,25.547Z" transform="translate(-349.734 -187.002)" fill="#5191ff"/>
      <path id="Path_712" data-name="Path 712" d="M1106.294,461.161s-6.556-19.731-17.474-20.521c0,0,4.459,19.417,17.257,25.651Z" transform="translate(-350.518 -179.116)" fill="#5191ff"/>
      <path id="Path_713" data-name="Path 713" d="M1109.087,434.94s-8.171-19.752-15.377-20.2c0,0,3.551,19.452,14.678,23.443Z" transform="translate(-351.988 -171.319)" fill="#5191ff"/>
      <path id="Path_714" data-name="Path 714" d="M1111.726,409.113s-5.025-21.451-12.246-23.233c0,0,.986,17.551,11.519,24.841Z" transform="translate(-353.727 -162.63)" fill="#5191ff"/>
      <path id="Path_715" data-name="Path 715" d="M1116.1,378.51s-5.284-17.1-11.134-19.71c0,0,1.153,20.165,9.785,23.89Z" transform="translate(-355.379 -154.478)" fill="#5191ff"/>
      <path id="Path_716" data-name="Path 716" d="M1122.236,353.013l1.063-30.153s-10.939,22.73-1.852,35.444Z" transform="translate(-359.252 -143.658)" fill="#5191ff"/>
      <path id="Path_717" data-name="Path 717" d="M1134.377,313.077s7.877-22.017,9.785-23.247c0,0-15.447,14.286-13.937,32.662Z" transform="translate(-362.951 -133.714)" fill="#5191ff"/>
      <path id="Path_719" data-name="Path 719" d="M1061.474,639.06s16.006-.049,14.678,19.99c0,0-13.441,2.4-17.872-16.2Z" transform="translate(-341.322 -238.851)" fill="#5191ff"/>
      <path id="Path_720" data-name="Path 720" d="M1075.076,617.851s14.531-6.815,23.827,10.778c0,0-13.42,5.675-25.113-7.933Z" transform="translate(-345.992 -232.074)" fill="#5191ff"/>
      <path id="Path_721" data-name="Path 721" d="M1088.16,593.4s14.881-7.248,23.618,9.932c0,0-15.5,5.34-24.848-7.213Z" transform="translate(-349.947 -224.646)" fill="#5191ff"/>
      <path id="Path_722" data-name="Path 722" d="M1095.937,570.271s14.321-13.678,25.749.154c0,0-14.629,11.26-26.406,2.894Z" transform="translate(-352.461 -216.325)" fill="#5191ff"/>
      <path id="Path_723" data-name="Path 723" d="M1102.857,542.924s14.405-13.979,25.742.643c0,0-16.167,11.484-26.259,2.293Z" transform="translate(-354.588 -208.094)" fill="#5191ff"/>
      <path id="Path_724" data-name="Path 724" d="M1106.93,515.039s11.1-17.474,24.17-13.574c0,0-11.519,18.5-24.044,17.676Z" transform="translate(-355.969 -197.256)" fill="#5191ff"/>
      <path id="Path_725" data-name="Path 725" d="M1111.487,490.07s11.183-22,21.765-18.173c0,0-8.066,16.914-22.052,21.884Z" transform="translate(-357.254 -188.391)" fill="#5191ff"/>
      <path id="Path_726" data-name="Path 726" d="M1112.238,461.735s11.5-17.32,22.268-15.2c0,0-9.4,17.565-23.387,20.214Z" transform="translate(-357.23 -180.836)" fill="#5191ff"/>
      <path id="Path_727" data-name="Path 727" d="M1114,434.661s8.912-19.438,16.153-19.571c0,0-4.278,19.3-15.552,22.87Z" transform="translate(-358.098 -171.424)" fill="#5191ff"/>
      <path id="Path_728" data-name="Path 728" d="M1116.5,410.024s9.9-19.682,17.348-19.724c0,0-5.068,16.831-17.019,21.451Z" transform="translate(-358.85 -163.961)" fill="#5191ff"/>
      <path id="Path_729" data-name="Path 729" d="M1118.63,380.951s7.409-16.285,13.545-18.131c0,0-3.7,19.85-12.728,22.45Z" transform="translate(-359.492 -155.688)" fill="#5191ff"/>
      <path id="Path_730" data-name="Path 730" d="M1124.349,354.285l16.558-25.225s-4.243,24.883-18.976,30.055Z" transform="translate(-360.484 -145.524)" fill="#5191ff"/>
      <path id="Path_731" data-name="Path 731" d="M1138.2,319.356s19.242-13.28,19.941-15.426c0,0-9.785,18.6-27.958,21.884Z" transform="translate(-362.969 -137.959)" fill="#5191ff"/>
      <path id="Path_732" data-name="Path 732" d="M1143.071,308.31s22.094-21.241,27.734-21.22c0,0-18.221.832-28.265,20.088Z" transform="translate(-366.689 -132.889)" fill="#5191ff"/>
    </g>
    <g id="Group_126" data-name="Group 126" transform="translate(77.876 -72.073)">
      <path id="Path_706-2" data-name="Path 706" d="M1041.31,615.595s6.048-20.725,32.123-14.526c0,0-6.208,18.643-30.39,18.351Z" transform="translate(-939.976 -305.223)" fill="#5191ff"/>
      <path id="Path_707-2" data-name="Path 707" d="M1055.23,592.839s5.906-21.507,31.086-15.072c0,0-8.4,20.433-29.419,18.709Z" transform="translate(-965.973 -303.869)" fill="#5191ff"/>
      <path id="Path_708-2" data-name="Path 708" d="M1066.75,570.948s4.541-26.3,28.016-20.48c0,0-6.82,23.928-26.292,24.314Z" transform="translate(-985.274 -302.308)" fill="#5191ff"/>
      <path id="Path_709-2" data-name="Path 709" d="M1073.24,544.945s5.454-26.509,29.2-18.841c0,0-9.307,25.058-27.516,22.468Z" transform="translate(-999.065 -300.864)" fill="#5191ff"/>
      <path id="Path_710-2" data-name="Path 710" d="M1080.32,520.341s8.657-26.518,27.017-25.8c0,0-8.845,28.007-25.481,31.087Z" transform="translate(-1010.628 -299.114)" fill="#5191ff"/>
      <path id="Path_711-2" data-name="Path 711" d="M1086.22,496.429s9.42-31.916,24.361-29.458c0,0-6.519,24.4-23.833,34.432Z" transform="translate(-1019.431 -297.509)" fill="#5191ff"/>
      <path id="Path_712-2" data-name="Path 712" d="M1088.82,468.3s8.836-26.594,23.551-27.658c0,0-6.01,26.17-23.259,34.573Z" transform="translate(-1023.669 -295.99)" fill="#5191ff"/>
      <path id="Path_713-2" data-name="Path 713" d="M1093.71,441.965s11.012-26.622,20.724-27.225c0,0-4.785,26.217-19.783,31.6Z" transform="translate(-1030.341 -294.489)" fill="#5191ff"/>
      <path id="Path_714-2" data-name="Path 714" d="M1099.48,417.193s6.773-28.911,16.5-31.313c0,0-1.328,23.654-15.525,33.48Z" transform="translate(-1037.325 -292.816)" fill="#5191ff"/>
      <path id="Path_715-2" data-name="Path 715" d="M1104.97,385.365s7.122-23.052,15.007-26.565c0,0-1.554,27.178-13.188,32.2Z" transform="translate(-1046.489 -291.246)" fill="#5191ff"/>
      <path id="Path_716-2" data-name="Path 716" d="M1119.269,363.5l-1.432-40.639s14.743,30.635,2.5,47.771Z" transform="translate(-1063.832 -289.163)" fill="#5191ff"/>
      <path id="Path_717-2" data-name="Path 717" d="M1143.31,321.162s-10.616-29.674-13.188-31.332c0,0,20.819,19.255,18.784,44.021Z" transform="translate(-1099.251 -287.249)" fill="#5191ff"/>
      <path id="Path_719-2" data-name="Path 719" d="M1078.168,639.06s-21.572-.066-19.782,26.942c0,0,18.115,3.24,24.088-21.836Z" transform="translate(-965.003 -307.492)" fill="#5191ff"/>
      <path id="Path_720-2" data-name="Path 720" d="M1105.9,618.3s-19.585-9.185-32.114,14.526c0,0,18.087,7.649,33.847-10.692Z" transform="translate(-1004.777 -306.187)" fill="#5191ff"/>
      <path id="Path_721-2" data-name="Path 721" d="M1118.761,593.924s-20.056-9.769-31.831,13.386c0,0,20.894,7.2,33.489-9.722Z" transform="translate(-1029.938 -304.757)" fill="#5191ff"/>
      <path id="Path_722-2" data-name="Path 722" d="M1129.984,572.37s-19.3-18.436-34.7.207c0,0,19.716,15.176,35.589,3.9Z" transform="translate(-1048.255 -303.155)" fill="#5191ff"/>
      <path id="Path_723-2" data-name="Path 723" d="M1137.034,545.02s-19.415-18.841-34.694.867c0,0,21.789,15.478,35.392,3.09Z" transform="translate(-1061.766 -301.57)" fill="#5191ff"/>
      <path id="Path_724-2" data-name="Path 724" d="M1139.505,519.957s-14.959-23.551-32.575-18.294c0,0,15.525,24.936,32.406,23.824Z" transform="translate(-1067.865 -299.483)" fill="#5191ff"/>
      <path id="Path_725-2" data-name="Path 725" d="M1140.535,496.546s-15.072-29.656-29.335-24.493c0,0,10.871,22.8,29.721,29.5Z" transform="translate(-1073.303 -297.776)" fill="#5191ff"/>
      <path id="Path_726-2" data-name="Path 726" d="M1141.133,467.084s-15.5-23.344-30.013-20.489c0,0,12.67,23.673,31.52,27.244Z" transform="translate(-1074.946 -296.322)" fill="#5191ff"/>
      <path id="Path_727-2" data-name="Path 727" d="M1135.77,441.467s-12.011-26.2-21.77-26.377c0,0,5.765,26.01,20.96,30.823Z" transform="translate(-1070.789 -294.509)" fill="#5191ff"/>
      <path id="Path_728-2" data-name="Path 728" d="M1139.881,416.884s-13.348-26.528-23.381-26.584c0,0,6.83,22.684,22.938,28.911Z" transform="translate(-1077.256 -293.072)" fill="#5191ff"/>
      <path id="Path_729-2" data-name="Path 729" d="M1136.886,387.256s-9.985-21.949-18.256-24.436c0,0,4.993,26.754,17.154,30.258Z" transform="translate(-1076.266 -291.48)" fill="#5191ff"/>
      <path id="Path_730-2" data-name="Path 730" d="M1144.247,363.058l-22.316-34s5.718,33.536,25.576,40.508Z" transform="translate(-1089.996 -289.523)" fill="#5191ff"/>
      <path id="Path_731-2" data-name="Path 731" d="M1157.056,324.721s-25.934-17.9-26.876-20.791c0,0,13.188,25.068,37.681,29.5Z" transform="translate(-1118.122 -288.066)" fill="#5191ff"/>
      <path id="Path_732-2" data-name="Path 732" d="M1179.92,315.69s-29.777-28.629-37.379-28.6c0,0,24.558,1.121,38.1,27.074Z" transform="translate(-1142.54 -287.09)" fill="#5191ff"/>
    </g>
    <path id="Path_733" data-name="Path 733" d="M1118.94,369.692l.8.1c4.152-32.494,10.2-51.722,17.04-54.078l-.266-.769C1129.27,317.466,1123.176,336.4,1118.94,369.692Z" transform="translate(-359.584 -141.276)" fill="#444053"/>
    <path id="Path_734" data-name="Path 734" d="M1110.2,469.94l1.216.1c.259-3.033.454-6.137.588-9.233,1.16-26.9,2.956-51.6,5.318-70.111l-.7-.874c-2.37,18.557-4.676,44-5.836,70.936C1110.654,463.832,1110.459,466.921,1110.2,469.94Z" transform="translate(-356.952 -163.816)" fill="#444053"/>
    <path id="Path_735" data-name="Path 735" d="M976.717,650.614c.21-.091,21.619-9.652,43.838-32.452A176.292,176.292,0,0,0,1052.6,572.73c10.275-20.919,16.537-46.627,18.634-71.6l-1.265.594c-4.718,56.056-30.236,94.358-50.527,115.221-22,22.6-43.174,32.061-43.384,32.152Z" transform="translate(-316.569 -197.326)" fill="#444053"/>
    <path id="Path_736" data-name="Path 736" d="M764.458,132.69H92.853a5.983,5.983,0,0,0-5.983,5.983V156.1H770.441V138.673A5.983,5.983,0,0,0,764.458,132.69Z" transform="translate(-48.876 -86.407)" fill="#5191ff"/>
    <path id="Path_737" data-name="Path 737" d="M86.87,166.19V558.467a12.064,12.064,0,0,0,12.064,12.064H758.377a12.064,12.064,0,0,0,12.064-12.064V166.19Z" transform="translate(-48.876 -96.492)" fill="#fff" stroke="#5191ff" stroke-width="1"/>
    <circle id="Ellipse_138" data-name="Ellipse 138" cx="2.796" cy="2.796" r="2.796" transform="translate(46.024 55.02)" fill="#fa5959" opacity="0.8"/>
    <circle id="Ellipse_139" data-name="Ellipse 139" cx="2.796" cy="2.796" r="2.796" transform="translate(53.713 55.02)" fill="#fed253" opacity="0.8"/>
    <circle id="Ellipse_140" data-name="Ellipse 140" cx="2.796" cy="2.796" r="2.796" transform="translate(61.401 55.02)" fill="#8ccf4d" opacity="0.8"/>
    <path id="Path_772" data-name="Path 772" d="M549.373,241.57h0Z" transform="translate(101.535 135.106)" opacity="0.05"/>
    <rect id="Rectangle_180" data-name="Rectangle 180" width="540.985" height="236.244" transform="translate(105.729 136.937)" fill="none" stroke="#5191ff" stroke-width="1"/>
    <path id="Path_740" data-name="Path 740" d="M364.976,327.38a69.2,69.2,0,1,0,69.2,69.2,69.2,69.2,0,0,0-69.2-69.2Zm12.406,70.859V431H352.919v-32.76a20.269,20.269,0,1,1,24.463,0Z" transform="translate(-111.769 -145.018)" fill="#5191ff"/>
    <path id="Path_773" data-name="Path 773" d="M0,0H223.663V23.764H0Z" transform="translate(351.059 242.478)" fill="#fff" stroke="#5191ff" stroke-width="1"/>
    <rect id="Rectangle_182" data-name="Rectangle 182" width="48.227" height="23.764" transform="translate(526.495 285.813)" fill="#fff"/>
    <path id="Path_741" data-name="Path 741" d="M561.915,427.773h-4.047l3.6-3.593a.356.356,0,0,0,0-.5.349.349,0,0,0-.5,0l-3.6,3.6V423.23a.349.349,0,0,0-.349-.349.356.356,0,0,0-.35.349v4.054l-3.593-3.621a.35.35,0,0,0-.5,0,.356.356,0,0,0,0,.5l3.6,3.593H552.13a.356.356,0,0,0-.349.349.349.349,0,0,0,.349.349h4.054l-3.6,3.6a.356.356,0,0,0,0,.5.363.363,0,0,0,.5,0l3.593-3.6v4.047a.349.349,0,1,0,.7,0v-4.047l3.6,3.6a.363.363,0,0,0,.5,0,.356.356,0,0,0,0-.5l-3.6-3.6h4.047a.339.339,0,1,0,0-.678Z" transform="translate(-188.839 -173.769)" fill="#6c63ff"/>
    <path id="Path_742" data-name="Path 742" d="M582.915,427.773h-4.047l3.6-3.593a.357.357,0,0,0,0-.5.349.349,0,0,0-.5,0l-3.6,3.6V423.23a.349.349,0,0,0-.349-.349.356.356,0,0,0-.349.349v4.054l-3.593-3.621a.349.349,0,0,0-.5,0,.356.356,0,0,0,0,.5l3.6,3.593H573.13a.357.357,0,0,0-.35.349.349.349,0,0,0,.35.349h4.054l-3.6,3.6a.356.356,0,0,0,0,.5.364.364,0,0,0,.5,0l3.593-3.6v4.047a.349.349,0,1,0,.7,0v-4.047l3.6,3.6a.363.363,0,0,0,.5,0,.357.357,0,0,0,0-.5l-3.6-3.6h4.047a.339.339,0,1,0,0-.678Z" transform="translate(-195.161 -173.769)" fill="#6c63ff"/>
    <path id="Path_743" data-name="Path 743" d="M603.915,427.773h-4.047l3.6-3.593a.356.356,0,0,0,0-.5.349.349,0,0,0-.5,0l-3.6,3.6V423.23a.35.35,0,0,0-.35-.349.356.356,0,0,0-.349.349v4.054l-3.593-3.621a.35.35,0,0,0-.5,0,.357.357,0,0,0,0,.5l3.6,3.593H594.13a.356.356,0,0,0-.349.349.35.35,0,0,0,.349.349h4.054l-3.6,3.6a.356.356,0,0,0,0,.5.363.363,0,0,0,.5,0l3.593-3.6v4.047a.35.35,0,1,0,.7,0v-4.047l3.6,3.6a.364.364,0,0,0,.5,0,.356.356,0,0,0,0-.5l-3.6-3.6h4.047a.339.339,0,1,0,0-.678Z" transform="translate(-201.483 -173.769)" fill="#6c63ff"/>
    <path id="Path_744" data-name="Path 744" d="M624.915,427.773h-4.047l3.6-3.593a.356.356,0,0,0,0-.5.349.349,0,0,0-.5,0l-3.6,3.6V423.23a.35.35,0,0,0-.349-.349.356.356,0,0,0-.349.349v4.054l-3.593-3.621a.349.349,0,0,0-.5,0,.356.356,0,0,0,0,.5l3.6,3.593H615.13a.356.356,0,0,0-.349.349.349.349,0,0,0,.349.349h4.054l-3.6,3.6a.356.356,0,0,0,0,.5.363.363,0,0,0,.5,0l3.593-3.6v4.047a.349.349,0,1,0,.7,0v-4.047l3.6,3.6a.363.363,0,0,0,.5,0,.356.356,0,0,0,0-.5l-3.6-3.6h4.047a.339.339,0,1,0,0-.678Z" transform="translate(-207.805 -173.769)" fill="#6c63ff"/>
    <path id="Path_745" data-name="Path 745" d="M645.915,427.773h-4.047l3.6-3.593a.356.356,0,0,0,0-.5.349.349,0,0,0-.5,0l-3.6,3.6V423.23a.35.35,0,0,0-.35-.349.356.356,0,0,0-.35.349v4.054l-3.593-3.621a.35.35,0,0,0-.5,0,.357.357,0,0,0,0,.5l3.6,3.593H636.13a.356.356,0,0,0-.349.349.349.349,0,0,0,.349.349h4.054l-3.6,3.6a.357.357,0,0,0,0,.5.364.364,0,0,0,.5,0l3.593-3.6v4.047a.35.35,0,0,0,.7,0v-4.047l3.6,3.6a.363.363,0,0,0,.5,0,.356.356,0,0,0,0-.5l-3.6-3.6h4.047a.339.339,0,1,0,0-.678Z" transform="translate(-214.127 -173.769)" fill="#6c63ff"/>
    <path id="Path_746" data-name="Path 746" d="M666.915,427.773h-4.047l3.6-3.593a.357.357,0,0,0,0-.5.349.349,0,0,0-.5,0l-3.6,3.6V423.23a.35.35,0,0,0-.35-.349.356.356,0,0,0-.349.349v4.054l-3.593-3.621a.35.35,0,0,0-.5,0,.356.356,0,0,0,0,.5l3.6,3.593H657.13a.356.356,0,0,0-.349.349.35.35,0,0,0,.349.349h4.054l-3.6,3.6a.356.356,0,0,0,0,.5.363.363,0,0,0,.5,0l3.593-3.6v4.047a.35.35,0,1,0,.7,0v-4.047l3.6,3.6a.363.363,0,0,0,.5,0,.357.357,0,0,0,0-.5l-3.6-3.6h4.047a.339.339,0,1,0,0-.678Z" transform="translate(-220.449 -173.769)" fill="#6c63ff"/>
    <path id="Path_747" data-name="Path 747" d="M687.915,427.773h-4.047l3.6-3.593a.357.357,0,0,0,0-.5.349.349,0,0,0-.5,0l-3.6,3.6V423.23a.349.349,0,0,0-.349-.349.356.356,0,0,0-.35.349v4.054l-3.592-3.621a.35.35,0,0,0-.5,0,.356.356,0,0,0,0,.5l3.6,3.593H678.13a.356.356,0,0,0-.349.349.349.349,0,0,0,.349.349h4.054l-3.6,3.6a.356.356,0,0,0,0,.5.364.364,0,0,0,.5,0l3.592-3.6v4.047a.349.349,0,1,0,.7,0v-4.047l3.6,3.6a.364.364,0,0,0,.5,0,.357.357,0,0,0,0-.5l-3.6-3.6h4.047a.339.339,0,1,0,0-.678Z" transform="translate(-226.772 -173.769)" fill="#6c63ff"/>
    <path id="Path_748" data-name="Path 748" d="M708.915,427.773h-4.047l3.6-3.593a.357.357,0,0,0,0-.5.349.349,0,0,0-.5,0l-3.6,3.6V423.23a.349.349,0,0,0-.349-.349.357.357,0,0,0-.35.349v4.054l-3.592-3.621a.35.35,0,0,0-.5,0,.357.357,0,0,0,0,.5l3.6,3.593H699.13a.356.356,0,0,0-.349.349.349.349,0,0,0,.349.349h4.054l-3.6,3.6a.356.356,0,0,0,0,.5.364.364,0,0,0,.5,0l3.592-3.6v4.047a.35.35,0,1,0,.7,0v-4.047l3.6,3.6a.364.364,0,0,0,.5,0,.357.357,0,0,0,0-.5l-3.6-3.6h4.047a.339.339,0,1,0,0-.678Z" transform="translate(-233.094 -173.769)" fill="#6c63ff"/>
    <path id="Path_749" data-name="Path 749" d="M729.915,427.773h-4.047l3.6-3.593a.356.356,0,0,0,0-.5.349.349,0,0,0-.5,0l-3.6,3.6V423.23a.35.35,0,0,0-.35-.349.356.356,0,0,0-.349.349v4.054l-3.593-3.621a.35.35,0,0,0-.5,0,.357.357,0,0,0,0,.5l3.6,3.593H720.13a.357.357,0,0,0-.35.349.35.35,0,0,0,.35.349h4.054l-3.6,3.6a.357.357,0,0,0,0,.5.364.364,0,0,0,.5,0l3.593-3.6v4.047a.349.349,0,1,0,.7,0v-4.047l3.6,3.6a.364.364,0,0,0,.5,0,.356.356,0,0,0,0-.5l-3.6-3.6h4.047a.339.339,0,1,0,0-.678Z" transform="translate(-239.416 -173.769)" fill="#6c63ff"/>
    <path id="Path_750" data-name="Path 750" d="M750.915,427.773h-4.047l3.6-3.593a.356.356,0,0,0,0-.5.349.349,0,0,0-.5,0l-3.6,3.6V423.23a.35.35,0,0,0-.349-.349.356.356,0,0,0-.349.349v4.054l-3.593-3.621a.35.35,0,0,0-.5,0,.357.357,0,0,0,0,.5l3.6,3.593H741.13a.356.356,0,0,0-.349.349.349.349,0,0,0,.349.349h4.054l-3.6,3.6a.356.356,0,0,0,0,.5.363.363,0,0,0,.5,0l3.593-3.6v4.047a.35.35,0,1,0,.7,0v-4.047l3.6,3.6a.363.363,0,0,0,.5,0,.356.356,0,0,0,0-.5l-3.6-3.6h4.047a.339.339,0,1,0,0-.678Z" transform="translate(-245.738 -173.769)" fill="#6c63ff"/>
    <path id="Path_751" data-name="Path 751" d="M771.915,427.773h-4.047l3.6-3.593a.357.357,0,0,0,0-.5.349.349,0,0,0-.5,0l-3.6,3.6V423.23a.35.35,0,0,0-.35-.349.356.356,0,0,0-.349.349v4.054l-3.593-3.621a.35.35,0,0,0-.5,0,.357.357,0,0,0,0,.5l3.6,3.593H762.13a.356.356,0,0,0-.35.349.35.35,0,0,0,.35.349h4.054l-3.6,3.6a.356.356,0,0,0,0,.5.364.364,0,0,0,.5,0l3.593-3.6v4.047a.35.35,0,1,0,.7,0v-4.047l3.6,3.6a.364.364,0,0,0,.5,0,.357.357,0,0,0,0-.5l-3.6-3.6h4.047a.339.339,0,1,0,0-.678Z" transform="translate(-252.06 -173.769)" fill="#6c63ff"/>
    <path id="Path_752" data-name="Path 752" d="M891.563,526.189a12.507,12.507,0,0,0-.314-2.509c-.629-2.362-2.048-5.221-4.382-5.934a36.8,36.8,0,0,1-6.948-2.936c-.419-7.493,1.3-15.16-.573-22.422-.7-2.656-1.852-5.2-2.16-7.919-.384-3.383.538-6.99-.811-10.107a9.975,9.975,0,0,0-5.906-5.1,31.471,31.471,0,0,0-7.877-1.4c-3.355-.273-14.217-1.559-18,1.44h0a3.963,3.963,0,0,0-.7.7h0a2.829,2.829,0,0,0-.224.364l-.035.056a2.857,2.857,0,0,0-.189.454h0a3.526,3.526,0,0,0-.119.524v1.258c.049.629.14,1.258.14,1.88a4.051,4.051,0,0,1-.084.923,6.461,6.461,0,0,1-1.16,2.265h0l-.126.182c-.077.112-.154.217-.224.328s-.126.2-.182.294-.112.161-.161.252a3.42,3.42,0,0,0-.182.356c0,.07-.077.133-.1.2a3.449,3.449,0,0,0-.21.587,3.9,3.9,0,0,0-.042,1.859,6.921,6.921,0,0,0,.958,2.2c.175.287.363.566.559.846l.489.664a15.1,15.1,0,0,0-.147,1.957,14.46,14.46,0,0,0,5.52,11.363,42.84,42.84,0,0,1-.089,8.871c-.063.615-.14,1.237-.224,1.852s-.147,1.021-.231,1.531a7.1,7.1,0,0,1-3.055-.231,14.4,14.4,0,0,0-1.4-.538c-2.034-.51-4.11,1.517-6.123.9a.823.823,0,0,1-.091.28,2.74,2.74,0,0,0-1.4-.412,5.1,5.1,0,0,1-3.034-1.74l-2.663-2.509a2.95,2.95,0,0,1-.461-.517,3.633,3.633,0,0,1-.322-.86,9.9,9.9,0,0,0-2.579-3.7,1.747,1.747,0,0,0-.762-.552,1.17,1.17,0,0,0-.349,0,3.04,3.04,0,0,0-.231-.28,6.581,6.581,0,0,0-.58-.587c-1.272-1.174-1.4-2.181-2.5-3.495a33.592,33.592,0,0,1-2.614-3.949c-.091-.734-.217-1.489-.371-2.251a28.948,28.948,0,0,0-1.531-5.1l-1.4-3.1-.161.161c-1.013-1.51-2.1-2.334-3.068-2.139-1.629.336-2.432,3.495-2.174,7.625l.559,4.194a1.294,1.294,0,0,0,.077.314,7.748,7.748,0,0,0-.154,1.51c0,.587.545,1.02.832,1.545a4.368,4.368,0,0,1,.7,2.383c-.035.3-.126.587-.14.881a3.391,3.391,0,0,0,.657,1.817l3.495,5.871.7,1.23.042.056a2.983,2.983,0,0,0,.937,1.076,12.8,12.8,0,0,0,1.153,4.243c.119.265.251.517.391.769a24.712,24.712,0,0,0,3.3,4.285l1.663,1.866c1.643,1.831,3.285,3.669,5.068,5.361a6.786,6.786,0,0,0,2.264,1.587,2.565,2.565,0,0,0,2.544-.37v2.6a1.461,1.461,0,0,1,1.1,2.3,57.655,57.655,0,0,1-5.172,10.945,23.3,23.3,0,0,1,4.333,3.306,19.481,19.481,0,0,1,2.258,3.054c.063.517.112,1.027.14,1.538.517,8.331-2.7,16.6-5.592,24.54-.832,2.25-1.74,4.606-1.67,6.948a13.659,13.659,0,0,0-1.566,1.125,10.363,10.363,0,0,1,.286,4.431,7.848,7.848,0,0,1-.58,2.8,19.642,19.642,0,0,1-1.006,1.8c-1.81,3.194-2.209,6.989-2.572,10.638-.217,2.2.636,4.893-.363,6.864-1.726,3.383-3.257,6.99-3.495,10.75a10.777,10.777,0,0,1-.321,2.509c-.217.7-.6,1.293-.8,1.978a8.463,8.463,0,0,0-.14,2.8,26.753,26.753,0,0,1-1.468,9.862c-.874,2.5-1.838,5.165-1.153,7.73a10.9,10.9,0,0,0-2.957,6.493,10.229,10.229,0,0,1-.224,1.852,9,9,0,0,1-.839,1.782,15.6,15.6,0,0,0-1.9,8.387,23.332,23.332,0,0,0-3.767,9.841c-.622,3.488-.895,7.038-1.691,10.484-1.062,4.557-2.984,9.163-3.362,13.832-2.265,1.447-3.243,4.25-3.677,6.9s-.5,5.431-1.615,7.877c-.573,1.272-1.4,2.411-1.943,3.711a17.052,17.052,0,0,0-.839,3.194,12.464,12.464,0,0,0-.217,5.242,7.9,7.9,0,0,1-2.048,1.559c.112-.433.2-.867.279-1.307-1.8,1.636-5.074,1.062-6.514,3.026a2.95,2.95,0,0,0,.7,4.047,5.591,5.591,0,0,0,1.447.622c3.495,1.118,7.087,2.244,10.68,1.65a3.19,3.19,0,0,0,1.209-.384,3.893,3.893,0,0,0,1.125-1.3c.538-.853,1.076-1.705,1.608-2.558a33.189,33.189,0,0,0,3.921.916c.133,1.118.231,2.237.279,3.355.7.14,1.636.182,1.964-.468a1.7,1.7,0,0,0,.119-.776c0-.5.07-1.154.112-1.824h.14a13.28,13.28,0,0,0,6.186-1.251c-.748-6.193,1.719-12.246,3.858-18.1,2.258-6.165,4.194-12.441,6.144-18.718,1.4-4.417,2.943-8.695,4.313-13.119q2.586-8.387,5.193-16.775c.755-2.46,1.517-4.893,2.383-7.339a114.315,114.315,0,0,1,6.479-14.419c.7-1.321,1.4-2.628,1.971-4,.7-1.67,1.2-3.418,1.754-5.144a79.7,79.7,0,0,1,4.39-10.331c.049-.091.084-.175.133-.259.566,2.314,1.132,4.662,1.51,6.99a26.557,26.557,0,0,1,.119,8.639,28.482,28.482,0,0,0-.895,5.857c.1,2.733,1.566,5.214,2.285,7.849a29.86,29.86,0,0,1,.783,6.011c.2,3.145,1.9,6.675.7,9.59-3.739,9.233-1.929,19.661-4.061,29.356-1.1,4.977-4.459,9.652-4.194,14.741q.28,5.417.951,10.806a10.286,10.286,0,0,0,.874,3.278,12.064,12.064,0,0,0,.958,1.566c-.308.119-.566.433-.79,1.1a4.312,4.312,0,0,0,1.552,4.893,6.8,6.8,0,0,0,2.02.7,10.636,10.636,0,0,0,2.922.405,6.843,6.843,0,0,0,.916-.112,33.318,33.318,0,0,0,3.306,1.188,7.206,7.206,0,0,0,.091.86,1.07,1.07,0,0,0,.364.79,1.09,1.09,0,0,0,.559.1h3.8v-.951a3.125,3.125,0,0,0,2.411-.783,3.732,3.732,0,0,0,.7-1.454q1.552-5.263,3.082-10.533a33.678,33.678,0,0,0,1.5-12.022c-1.349-12.882,1.615-25.805.65-38.722a92.752,92.752,0,0,1,1.188-23.233c.315-1.733.7-3.495.839-5.221.308-3.257-.07-6.549.161-9.785.077-1.132.231-2.258.37-3.383a162.462,162.462,0,0,0,1.5-21.073,66.41,66.41,0,0,0-.433-6.989,3.99,3.99,0,0,0,1.908-1.118c.622-.811.461-1.95.454-2.985,0-2.474,1.041-4.809,1.88-7.143a84.873,84.873,0,0,0,2.642-9.827,34.31,34.31,0,0,0,1.174-8.213q0-.419-.042-.839a2.165,2.165,0,0,0,.643-.7,4.065,4.065,0,0,0,.336-1.293c.252-1.782.51-3.572.762-5.361q.28-1.922.552-3.837l2.223-15.51c.189-1.349.384-2.691.573-4.033l.58-4.012c.063-.475.133-.951.182-1.4C893.373,533.234,891.744,529.432,891.563,526.189ZM873.02,584.257a12.775,12.775,0,0,1-1.4-6.074h-.077a3.118,3.118,0,0,0-.091-1.971c-.217-.51-.594-.944-.825-1.454a5.323,5.323,0,0,1-.377-1.957,53.346,53.346,0,0,1,1-12.679c.091-.489.189-.986.28-1.475a3.651,3.651,0,0,0,.8-.622,5.669,5.669,0,0,0,.9-1.4c.79-1.587,1.51-3.2,2.174-4.844.217-.531.531-1.146,1.069-1.279-.112,4.089.307,8.262-1.356,11.952a7.564,7.564,0,0,0-.7,1.887c-.154,1.041.28,2.1.126,3.131-.077.538-.308,1.034-.4,1.566a1.531,1.531,0,0,0,.405,1.482,1.22,1.22,0,0,0,.3.154c-.042.28-.077.566-.1.839-.056.573-.084,1.111-.119,1.447a45.049,45.049,0,0,0-.189,5.144c0,1.852.07,3.7.042,5.592a3.8,3.8,0,0,1-.266,1.587,2.751,2.751,0,0,1-.531.7,18.175,18.175,0,0,0-.664-1.726Z" transform="translate(-259.184 -187.158)" fill="url(#linear-gradient)"/>
    <ellipse id="Ellipse_141" data-name="Ellipse 141" cx="3.942" cy="11.162" rx="3.942" ry="11.162" transform="matrix(0.98, -0.201, 0.201, 0.98, 550.323, 294.921)" fill="#ffb8b8"/>
    <path id="Path_753" data-name="Path 753" d="M878.306,838.678a4.232,4.232,0,0,0,1.552,4.844,6.911,6.911,0,0,0,2.006.7,10.588,10.588,0,0,0,2.915.4c1.209-.056,2.369-.531,3.579-.7a.558.558,0,0,1,.412.056.594.594,0,0,1,.154.489,18.47,18.47,0,0,0,.154,2.055,1.056,1.056,0,0,0,.363.79,1.092,1.092,0,0,0,.559.1h3.788a36.955,36.955,0,0,0-1.083-9.883,2.211,2.211,0,0,0-.28-.7,2.312,2.312,0,0,0-1.209-.7,6.756,6.756,0,0,0-2.929-.51A8.576,8.576,0,0,0,885,837.224a5,5,0,0,1-3.725.9C880.012,837.79,878.957,836.735,878.306,838.678Z" transform="translate(-287.075 -298.022)" fill="#3f3d56"/>
    <path id="Path_754" data-name="Path 754" d="M796.8,834.991a10.48,10.48,0,0,1-3.823,2.6l-.643.308a.445.445,0,0,0-.217.175.377.377,0,0,0,.07.315,4.522,4.522,0,0,0,5.13,1.866,2.718,2.718,0,0,0,1.125-.587,3.69,3.69,0,0,0,.867-2.251,4.606,4.606,0,0,0-.1-2.579C798.232,832.65,797.875,833.642,796.8,834.991Z" transform="translate(-261.19 -297.404)" fill="#fbbebe"/>
    <path id="Path_755" data-name="Path 755" d="M809.48,843.776a1.7,1.7,0,0,1-.119.776c-.328.643-1.244.608-1.957.468a47.075,47.075,0,0,0-.86-7.059c-1.356-.063-2.335,1.223-3.061,2.376l-1.873,2.971a3.874,3.874,0,0,1-1.118,1.3,3.314,3.314,0,0,1-1.209.384c-3.579.594-7.192-.531-10.645-1.65a5.635,5.635,0,0,1-1.447-.615,2.957,2.957,0,0,1-.7-4.04c1.447-1.957,4.7-1.4,6.5-3.02a16.266,16.266,0,0,1-.923,3.334c2.411-.363,4.033-2.572,5.976-4.047a3.68,3.68,0,0,1,1.706-.811,3.755,3.755,0,0,1,1.4.147,16.4,16.4,0,0,1,6.151,3.026,6.632,6.632,0,0,1,2.2,2.293C809.843,840.68,809.48,842.637,809.48,843.776Z" transform="translate(-259.346 -297.577)" fill="#3f3d56"/>
    <circle id="Ellipse_142" data-name="Ellipse 142" cx="14.44" cy="14.44" r="14.44" transform="translate(583.774 286.707)" fill="#fbbebe"/>
    <path id="Path_756" data-name="Path 756" d="M922.641,617.35a34.24,34.24,0,0,1-1.167,8.171,84.308,84.308,0,0,1-2.642,9.785c-.832,2.328-1.873,4.662-1.866,7.129,0,1.027.168,2.167-.461,2.978a4.351,4.351,0,0,1-2.041,1.167,2.55,2.55,0,0,0-1.719,1.531,10.8,10.8,0,0,1-1.454-3.2q-1.88-5.759-3.495-11.582a1.5,1.5,0,0,1,.1-1.4,1.733,1.733,0,0,1,.608-.343,6.285,6.285,0,0,0,1.936-1.244,2.829,2.829,0,0,0,.643-.832,3.764,3.764,0,0,0,.273-1.58c0-1.852,0-3.7-.049-5.55a46.386,46.386,0,0,1,.2-5.123c0-.336.063-.874.119-1.447.1-1.1.315-2.369.909-2.8.888-.594,3.544.2,4.55.342,1.733.238,3.495.517,5.186.846A13.843,13.843,0,0,1,922.641,617.35Z" transform="translate(-295.98 -230.945)" fill="#ffb8b8"/>
    <path id="Path_757" data-name="Path 757" d="M838.859,514.229c-.559,1.118-1.9,1.656-2.936,2.362l-3.544,2.432a2.362,2.362,0,0,1-1.755.6,2.306,2.306,0,0,1-1.307-1.223.232.232,0,0,0,0-.056l-.734-1.23-3.495-5.857a3.334,3.334,0,0,1-.65-1.8c0-.3.1-.58.133-.881a4.228,4.228,0,0,0-.7-2.376c-.279-.524-.839-.957-.825-1.545a5.59,5.59,0,0,1,.392-2.258,4.568,4.568,0,0,1,1.531-1.636c.328-.238.664-.461,1.013-.7a2,2,0,0,1,.608-.28c.58-.119,1.153.363,1.74.384,2.523,1.691,3.495,4.893,5.48,7.2,1.118,1.314,1.23,2.32,2.5,3.495.2.182.4.377.587.58a4.059,4.059,0,0,1,.629.909C837.754,512.95,839.145,513.656,838.859,514.229Z" transform="translate(-270.504 -196.915)" fill="#ff7b60"/>
    <path id="Path_758" data-name="Path 758" d="M878.326,513.423a13.01,13.01,0,0,1,1.552,7.038,4.4,4.4,0,0,1-.608,1.852c-1.007,1.545-3.117,1.824-4.956,1.915a2.921,2.921,0,0,0-2.153.7,1.957,1.957,0,0,0,.133,2.39,5.4,5.4,0,0,0,2.139,1.4c2.908,1.279,6.046,2.334,9.205,2.041,1.468-.14,2.894-.566,4.354-.783a45.71,45.71,0,0,1,4.795-.266c1.9-.07,3.8-.259,5.689-.447l5.018-.5a1.118,1.118,0,0,0,.748-.273c.37-.433-.1-1.069-.566-1.4-2.663-1.971-6.053-3.327-7.57-6.29a37.035,37.035,0,0,1-1.433-4.571,38.412,38.412,0,0,1-1.664-4.41,29.264,29.264,0,0,1-.231-4.068,5.459,5.459,0,0,0-1.4-3.718,5.827,5.827,0,0,0-3.8-1.223c-3.341-.147-6.9.65-9.268,3.005-.636.636-1.181,1.4-1.838,1.971s-1.552.741-1.118,1.5,1.286,1.223,1.747,1.887a16.08,16.08,0,0,1,1.223,2.251Z" transform="translate(-285.187 -197.828)" fill="#fbbebe"/>
    <path id="Path_759" data-name="Path 759" d="M900.276,539.351A79.4,79.4,0,0,1,896,555.1a59.333,59.333,0,0,0-2.516,7.059c-.538,2.167-.433,4.487-.93,6.661-.615,2.7-1.23,5.417-1.726,8.143a53.384,53.384,0,0,0-.993,12.651,5.291,5.291,0,0,0,.377,1.95c.231.5.6.937.818,1.454a3.494,3.494,0,0,1-.2,2.8,8.1,8.1,0,0,1-1.44,2.181c-6.514,1.943-13.483,1.307-20.269,1.719-6.256.378-12.581,1.664-18.746.594-.7-2.8.468-5.724,1.468-8.45,2.9-7.919,6.109-16.167,5.592-24.463a25.38,25.38,0,0,0-.328-2.887c-1.014-5.878.091-11.966,1.859-17.662a30.313,30.313,0,0,0,.8-11.029,20.154,20.154,0,0,1-.049-3.614,6.354,6.354,0,0,1,1.314-3.376c0-.049.063-.1.1-.147a.958.958,0,0,1,.524,0h0a.448.448,0,0,0,.35,0l.077-.049a.175.175,0,0,1,.2,0c.161.1.252.433.6.5a13.924,13.924,0,0,0,1.559.147,8.391,8.391,0,0,1,1.859.266h.084a5.458,5.458,0,0,0,2.712-.231,7.218,7.218,0,0,0,1.664-.643c.154-.168,1.118-.322,1.314-.44.636-.384.5-2.188.629-2.929a8.052,8.052,0,0,1,.524-2.167,3.691,3.691,0,0,1,2.992-1.74,15.932,15.932,0,0,1,3.586.321c2.607.37,5.277.308,7.835.909,1.286.3,2.691.755,3.872.168.321.077.37.356.37.7a4.473,4.473,0,0,1-.2.958c-.447,1.929,1.07,3.7,2.467,5.1a7.918,7.918,0,0,0,2.062,1.643c.7.322,1.4.454,2.1.8a3.817,3.817,0,0,1,1.4,1.279,5.342,5.342,0,0,1,.8,2.034A12.165,12.165,0,0,1,900.276,539.351Z" transform="translate(-278.669 -203.424)" fill="#ffb8b8"/>
    <path id="Path_760" data-name="Path 760" d="M903.11,542.457a79.407,79.407,0,0,1-4.278,15.747,59.326,59.326,0,0,0-2.516,7.059c-.538,2.167-.433,4.487-.93,6.661-.615,2.705-1.23,5.417-1.726,8.143-.147.084-.3.161-.454.231a10.726,10.726,0,0,1-2.74.881,16.772,16.772,0,0,1-5.116-.168l-9.974-1.335c-3.984-.538-8.227-1.188-11.183-3.886a23.852,23.852,0,0,1-3.9-5.326,25.413,25.413,0,0,0-.328-2.887c-1.014-5.878.091-11.966,1.859-17.662a30.316,30.316,0,0,0,.8-11.029,20.155,20.155,0,0,1-.049-3.614,6.354,6.354,0,0,1,1.314-3.376,4.963,4.963,0,0,1,.622-.14h0a3.117,3.117,0,0,1,.426-.056h.2a3.047,3.047,0,0,1,.7.084,12.649,12.649,0,0,1,1.4.538h.084a5.351,5.351,0,0,0,1.859.266c.923,0,1.873-.147,2.8-.21a5.16,5.16,0,0,1,3.313.594,19.831,19.831,0,0,1,1.845,1.684,7.926,7.926,0,0,0,2.328,1.265,24.736,24.736,0,0,0,18.606-.391,3.641,3.641,0,0,1,1.866-.475,3.493,3.493,0,0,1,1.342.573c.419.245.832.482,1.258.7a5.342,5.342,0,0,1,.8,2.034A12.163,12.163,0,0,1,903.11,542.457Z" transform="translate(-281.502 -206.53)" opacity="0.1"/>
    <path id="Path_761" data-name="Path 761" d="M906.6,537.252a37.3,37.3,0,0,1-7.968-3.495,3.568,3.568,0,0,0-1.342-.573,3.752,3.752,0,0,0-1.873.475,24.723,24.723,0,0,1-18.6.391,8.084,8.084,0,0,1-2.328-1.265,20.911,20.911,0,0,0-1.845-1.684c-2.3-1.489-5.48.258-8.052-.7a14.263,14.263,0,0,0-1.4-.538c-2.034-.51-4.1,1.517-6.1.9A34,34,0,0,0,855.448,537a67.961,67.961,0,0,0-.454,7.353c0,1.475-.07,2.95,0,4.424a1.451,1.451,0,0,1,1.1,2.292,57.3,57.3,0,0,1-5.158,10.911,23.708,23.708,0,0,1,4.32,3.3c2.446,2.586,3.648,6.214,6.29,8.6,2.977,2.691,7.22,3.348,11.183,3.879l9.974,1.335a17.045,17.045,0,0,0,5.123.175,10.783,10.783,0,0,0,2.733-.888,4.891,4.891,0,0,0,1.524-1.007,5.587,5.587,0,0,0,.9-1.4c.79-1.58,1.51-3.194,2.174-4.83.231-.58.58-1.258,1.209-1.307,3.7-3.341,7.2-6.766,10.9-10.107a24.165,24.165,0,0,0,3.977-4.194c1.838-2.719.168-6.57,0-9.855a12.439,12.439,0,0,0-.315-2.5C910.337,540.81,908.925,537.958,906.6,537.252Z" transform="translate(-278.902 -205.952)" fill="#ff7b60"/>
    <path id="Path_762" data-name="Path 762" d="M841.558,519.2c-.559,1.118-1.9,1.657-2.936,2.363L835.079,524a2.363,2.363,0,0,1-1.754.6,2.306,2.306,0,0,1-1.307-1.223v-.5a4.687,4.687,0,0,1,.224-1.671,5.2,5.2,0,0,1,1.566-2.013,12.815,12.815,0,0,1,4.592-2.8,1.57,1.57,0,0,1,.839-.084,1.107,1.107,0,0,1,.308.133,4.057,4.057,0,0,1,.629.909C840.454,517.925,841.845,518.631,841.558,519.2Z" transform="translate(-273.203 -201.889)" opacity="0.1"/>
    <path id="Path_763" data-name="Path 763" d="M850.277,526.765a5.09,5.09,0,0,1-3.026-1.733l-2.649-2.46a2.468,2.468,0,0,1-.461-.517,3.622,3.622,0,0,1-.322-.86,9.862,9.862,0,0,0-2.572-3.69,1.677,1.677,0,0,0-.762-.545,1.531,1.531,0,0,0-.846.084,12.784,12.784,0,0,0-4.592,2.8,5.22,5.22,0,0,0-1.566,2.013,4.65,4.65,0,0,0-.224,1.671,12.838,12.838,0,0,0,1.216,5.34c.119.259.252.517.392.769a24.219,24.219,0,0,0,3.285,4.271l1.664,1.859c1.636,1.831,3.271,3.662,5.046,5.347a6.665,6.665,0,0,0,2.265,1.58,2.53,2.53,0,0,0,2.6-.419,3.76,3.76,0,0,0,.741-1.328,26.131,26.131,0,0,0,2.16-8.716,32.857,32.857,0,0,0-.154-3.614C852.367,527.338,851.465,526.842,850.277,526.765Z" transform="translate(-273.577 -202.084)" fill="#ff7b60"/>
    <path id="Path_764" data-name="Path 764" d="M882.072,657.127a161.5,161.5,0,0,1-1.5,21.017c-.14,1.125-.294,2.251-.37,3.376-.231,3.264.147,6.542-.161,9.785-.161,1.754-.524,3.495-.832,5.207a92.594,92.594,0,0,0-1.188,23.17c.964,12.882-1.992,25.77-.65,38.617a31.215,31.215,0,0,1-.413,7.472,31.66,31.66,0,0,1-1.083,4.515q-1.531,5.249-3.075,10.484a3.638,3.638,0,0,1-.7,1.454,3.314,3.314,0,0,1-2.621.776c-4.033-.126-7.828-1.866-11.491-3.565a4,4,0,0,1-1.153-.7c-.762-.79-.7-2.034-1.034-3.075a29.249,29.249,0,0,0-1.761-3.089,10.084,10.084,0,0,1-.762-3.18q-.7-5.368-.951-10.778c-.266-5.074,3.089-9.743,4.194-14.678,2.1-9.7.321-20.1,4.047-29.307,1.174-2.908-.531-6.43-.7-9.562a30.326,30.326,0,0,0-.783-6c-.7-2.628-2.174-5.1-2.279-7.828a28.765,28.765,0,0,1,.888-5.836,26.23,26.23,0,0,0-.119-8.618c-.371-2.348-.937-4.7-1.5-6.989l-.126.259a79,79,0,0,0-4.383,10.309c-.559,1.712-1.048,3.46-1.747,5.123-.573,1.4-1.279,2.677-1.971,3.991a114.637,114.637,0,0,0-6.465,14.363c-.867,2.418-1.629,4.893-2.383,7.318l-5.179,16.775c-1.4,4.41-2.928,8.674-4.3,13.077-1.936,6.291-3.872,12.525-6.123,18.676-2.1,5.836-4.592,11.882-3.844,18.047a13.279,13.279,0,0,1-6.172,1.251,36.135,36.135,0,0,1-10.484-2.544,8.149,8.149,0,0,1-3.621-2.153c-1.552-1.894-1.167-4.669-.7-7.08a17.108,17.108,0,0,1,.839-3.187c.531-1.286,1.4-2.425,1.943-3.7,1.1-2.439,1.167-5.2,1.6-7.849s1.4-5.445,3.662-6.885c.384-4.655,2.3-9.247,3.355-13.8.8-3.446,1.062-6.989,1.691-10.484a23.025,23.025,0,0,1,3.753-9.82,15.563,15.563,0,0,1,1.9-8.387,9.162,9.162,0,0,0,.832-1.782,10.235,10.235,0,0,0,.224-1.845,10.91,10.91,0,0,1,2.95-6.479c-.7-2.551.273-5.214,1.146-7.688a26.711,26.711,0,0,0,1.468-9.834,8.62,8.62,0,0,1,.133-2.8c.2-.7.58-1.293.8-1.964a11.182,11.182,0,0,0,.315-2.509c.273-3.781,1.8-7.346,3.495-10.722,1.006-1.971.154-4.648.364-6.843.363-3.648.762-7.423,2.572-10.6.336-.6.7-1.174,1-1.8a7.776,7.776,0,0,0,.58-2.8c.063-1.6.286-2.929-.287-4.417,3.739-3.11,8.842-3.984,13.706-4.194s9.785.231,14.545-.8c1.4-.315,2.8-.748,4.27-.958,3.348-.489,6.745.273,10.051,1.028a11.973,11.973,0,0,0,1.4,6.06,65.052,65.052,0,0,1,5.179,24.966Z" transform="translate(-263.015 -234.593)" fill="#ff7b60"/>
    <path id="Path_765" data-name="Path 765" d="M890.5,673.29l-8.031,18.061c-.37-2.349-.937-4.7-1.5-6.99l-.126.259v-.377l4.375-9.625Z" transform="translate(-287.903 -249.156)" opacity="0.1"/>
    <path id="Path_766" data-name="Path 766" d="M924.321,617.35a3.018,3.018,0,0,1-1.594.594,7.749,7.749,0,0,1-2.614-.357l-6.291-1.573a3.089,3.089,0,0,1-.573-.2c.1-1.1.315-2.369.909-2.8.888-.594,3.544.2,4.55.342,1.733.238,3.495.517,5.186.846A13.847,13.847,0,0,1,924.321,617.35Z" transform="translate(-297.66 -230.944)" opacity="0.1"/>
    <path id="Path_767" data-name="Path 767" d="M929.359,558.849c.133.58.322,1.153.433,1.74a13.275,13.275,0,0,1-.147,4.326l-.573,4-.573,4.019L926.284,588.4l-.545,3.83-.769,5.347a3.848,3.848,0,0,1-.336,1.286,2.677,2.677,0,0,1-2.188,1.293,7.925,7.925,0,0,1-2.614-.357l-6.29-1.579a1.973,1.973,0,0,1-.769-.315,1.516,1.516,0,0,1-.405-1.475c.091-.531.321-1.027.4-1.559.154-1.034-.28-2.1-.126-3.124a7.778,7.778,0,0,1,.7-1.88c2.1-4.634.881-10.044,1.594-15.076A22.855,22.855,0,0,1,919.784,564a30.979,30.979,0,0,1,5.354-5.256c.783-.608,2.027-1.859,3.012-2.1C929.415,556.382,929.15,557.968,929.359,558.849Z" transform="translate(-297.379 -214.031)" fill="#ff7b60"/>
    <path id="Path_768" data-name="Path 768" d="M865.781,472.142c-.461,1.468.259,3.082-.07,4.578-.357,1.65-1.908,2.8-2.349,4.452-.7,2.523,1.44,4.823,3.005,6.92,5.8,7.786,5.039,18.564,3.054,28.063a144.926,144.926,0,0,1-6.6,22.366,17.141,17.141,0,0,1-3.558,6.242c3.215-.923,6.633-1.852,9.855-.957,4.082,1.132,7.6,5.1,11.742,4.194,2.488-.552,4.236-2.761,6.472-3.984,4.194-2.257,9.247-.839,13.923-.112a5.466,5.466,0,0,0,3.041-.154,5.053,5.053,0,0,0,1.845-1.7,17.236,17.236,0,0,0,3.593-9.3,11.924,11.924,0,0,0-3.432-9.177,19.635,19.635,0,0,1-2.943-2.8,8.68,8.68,0,0,1-1.153-4.236c-.552-7.688,1.321-15.538-.608-22.974-.7-2.649-1.838-5.186-2.146-7.9-.385-3.376.531-6.989-.811-10.079a9.884,9.884,0,0,0-5.892-5.088,32.281,32.281,0,0,0-7.856-1.4C881.06,468.787,867.382,467.144,865.781,472.142Z" transform="translate(-281.406 -187.531)" fill="#2f2e41"/>
    <g id="Group_123" data-name="Group 123" transform="translate(577.854 283.01)" opacity="0.1">
      <path id="Path_769" data-name="Path 769" d="M870.97,520.63a144.633,144.633,0,0,1-6.57,22.275c.482-.958.888-1.964,1.272-2.964a144.125,144.125,0,0,0,6.6-22.366c1.992-9.506,2.754-20.27-3.047-28.063-1.4-1.859-3.194-3.872-3.131-6.053a7.447,7.447,0,0,0-1.188,2.195c-.7,2.523,1.44,4.823,3.005,6.92C873.717,500.354,872.955,511.131,870.97,520.63Z" transform="translate(-860.807 -475.017)"/>
      <path id="Path_770" data-name="Path 770" d="M868.531,476.853a6.8,6.8,0,0,0,1.23-2.355,11.981,11.981,0,0,0-.084-3.117,3.361,3.361,0,0,0-1.16,1.6C868.1,474.218,868.58,475.56,868.531,476.853Z" transform="translate(-861.996 -471.38)"/>
      <path id="Path_771" data-name="Path 771" d="M907.452,568.233a5.032,5.032,0,0,1-1.845,1.692,5.339,5.339,0,0,1-3.04.154c-4.676-.7-9.785-2.139-13.923.119-2.244,1.216-3.984,3.425-6.479,3.984-4.131.923-7.653-3.04-11.735-4.194-2.894-.8-5.941-.14-8.856.7a12.215,12.215,0,0,1-2.314,3.341c3.215-.923,6.633-1.852,9.855-.958,4.082,1.132,7.6,5.1,11.742,4.194,2.488-.552,4.236-2.761,6.472-3.984,4.194-2.258,9.247-.839,13.923-.112a5.466,5.466,0,0,0,3.041-.154,5.054,5.054,0,0,0,1.845-1.7,18.786,18.786,0,0,0,2.893-5.536A20.3,20.3,0,0,1,907.452,568.233Z" transform="translate(-859.26 -499.799)"/>
    </g>
  </g>
</svg>
